<?xml version="1.0" encoding="utf-8"?>
<!-- Generator: Adobe Illustrator 28.1.0, SVG Export Plug-In . SVG Version: 6.00 Build 0)  -->
<svg version="1.1" id="Layer_1" xmlns="http://www.w3.org/2000/svg" xmlns:xlink="http://www.w3.org/1999/xlink" x="0px" y="0px"
	 viewBox="0 0 512 512" style="enable-background:new 0 0 512 512;" xml:space="preserve">
<style type="text/css">
	.st0{fill-rule:evenodd;clip-rule:evenodd;}
</style>
<path class="st0" d="M52.2,239.6c-9,9-9,23.8,0,32.8l177.1,177.1c9.1,9.1,23.8,9.1,32.8,0l9.9-9.9c9.1-9.1,9.1-23.8,0-32.9
	L137.8,272.4c-9.1-9.1-9.1-23.8,0-32.9l134.4-134.4c9.1-9.1,9.1-23.8,0-32.9l-9.9-9.9c-9-9-23.8-9-32.8,0L52.2,239.6z M255.6,288.1
	l-15.7-15.7c-9-9-9-23.8,0-32.8L417,62.4c9.1-9.1,23.8-9.1,32.9,0l9.9,9.9c9,9,9,23.8,0,32.9L325.4,239.6c-9.1,9.1-9.1,23.8,0,32.9
	l134.4,134.4c9.1,9.1,9.1,23.8,0,32.9l-9.9,9.9c-9.1,9.1-23.8,9.1-32.9,0L255.6,288.1"/>
</svg>
