<?xml version="1.0" encoding="utf-8"?>
<!-- Generator: Adobe Illustrator 28.1.0, SVG Export Plug-In . SVG Version: 6.00 Build 0)  -->
<svg version="1.1" id="Calque_1" xmlns="http://www.w3.org/2000/svg" xmlns:xlink="http://www.w3.org/1999/xlink" x="0px" y="0px"
	 viewBox="0 0 512 512" style="enable-background:new 0 0 512 512;" xml:space="preserve">
<style type="text/css">
	.st0{fill-rule:evenodd;clip-rule:evenodd;}
</style>
<g>
	<path class="st0" d="M99,157.5c10.9,0.3,19.6,9.3,19.3,20.2l-19.8-0.5l-19.8-0.5C78.9,165.9,88,157.3,99,157.5z M98.5,177.2
		c-19.8-0.5-19.8-0.5-19.8-0.5l0,1.1l-0.1,3.2c-0.1,2.8-0.1,6.8-0.2,11.8c-0.2,10-0.4,24-0.6,39.9c-0.3,31.8-0.3,71.5,0.9,102.8
		c1.3,34.2,4.8,78.4,7.7,111.3c3.3,37.2,34.7,65.2,72,65.2h195.2c37.3,0,68.7-28,72-65.2c2.9-32.9,6.4-77.1,7.7-111.3
		c1.2-31.2,1.2-71,0.9-102.8c-0.1-15.9-0.4-29.9-0.6-39.9c-0.1-5-0.2-9-0.2-11.8l-0.1-3.2l0-1.1c-0.3-10.9-9.4-19.5-20.3-19.2
		c-10.9,0.3-19.6,9.3-19.3,20.2l12.6-0.3c-12.6,0.3-12.6,0.3-12.6,0.3l0,1.1l0.1,3.1c0.1,2.7,0.1,6.7,0.2,11.7
		c0.2,9.9,0.4,23.8,0.6,39.6c0.3,31.6,0.3,70.6-0.9,100.9c-1.3,33.1-4.7,76.5-7.6,109.3c-1.5,16.5-15.5,29.3-32.5,29.3H158.4
		c-17,0-31-12.7-32.5-29.3c-2.9-32.8-6.3-76.2-7.6-109.3c-1.2-30.2-1.2-69.2-0.9-100.9c0.1-15.8,0.4-29.6,0.5-39.6
		c0.1-5,0.2-8.9,0.2-11.7l0.1-3.1l0-1.1L98.5,177.2z"/>
	<path class="st0" d="M51.2,98.5c0-10.9,8.9-19.7,19.8-19.7h370c10.9,0,19.8,8.8,19.8,19.7c0,10.9-8.9,19.7-19.8,19.7H71
		C60.1,118.2,51.2,109.3,51.2,98.5z"/>
	<path class="st0" d="M160.2,38.2C172.8,14.7,197.5,0,224.3,0h63.4c26.8,0,51.5,14.7,64.1,38.2l27.4,51c5.2,9.6,1.5,21.5-8.2,26.6
		c-9.7,5.1-21.7,1.5-26.8-8.1l-27.4-51c-5.7-10.7-16.9-17.4-29.1-17.4h-63.4c-12.2,0-23.4,6.7-29.1,17.4l-27.4,51
		c-5.2,9.6-17.2,13.2-26.8,8.1s-13.3-17-8.2-26.6L160.2,38.2z"/>
</g>
</svg>
