<svg width="15" height="15" viewBox="0 0 15 15" fill="none" xmlns="http://www.w3.org/2000/svg">
<path d="M12.1094 4.21395C11.7857 4.21395 11.5234 4.47627 11.5234 4.79988V5.76173C11.1337 5.77705 10.6177 5.70331 9.87887 5.90798C9.92539 5.54604 9.92405 5.17758 9.87201 4.81544C9.61945 3.05713 8.42463 2.30997 8.08593 1.891V0.585938C8.08593 0.262324 7.82361 0 7.49999 0C7.17638 0 6.91405 0.262324 6.91405 0.585938V1.891C6.57225 2.31378 5.38007 3.06021 5.12797 4.81544C5.07597 5.17758 5.07462 5.54602 5.12114 5.90798C4.38565 5.70422 3.87298 5.77731 3.47656 5.76173V4.79988C3.47656 4.47627 3.21424 4.21395 2.89063 4.21395C2.56701 4.21395 2.30469 4.47627 2.30469 4.79988V7.5C2.30469 8.11166 2.44279 8.70853 2.70295 9.25002C2.4715 9.32833 2.30469 9.5468 2.30469 9.8047V10.957C2.30469 13.1863 4.11837 15 6.34766 15H8.65236C10.8817 15 12.6953 13.1863 12.6953 10.957V9.8047C12.6953 9.54683 12.5285 9.32833 12.2971 9.25002C12.5572 8.70855 12.6953 8.11166 12.6953 7.5C12.6953 7.11469 12.6953 5.18467 12.6953 4.79988C12.6953 4.4763 12.433 4.21395 12.1094 4.21395V4.21395ZM11.5234 6.9336C11.4883 7.24529 11.6956 8.22504 10.9517 9.21882C9.83217 9.22025 8.81791 9.67919 8.08593 10.4182V9.8047C8.08593 8.22158 9.37391 6.9336 10.957 6.9336H11.5234ZM6.28795 4.98208C6.46455 3.75267 7.29518 3.21812 7.50002 2.96235C7.70554 3.21896 8.53555 3.75293 8.71206 4.98208C8.79216 5.53963 8.70442 6.11783 8.46503 6.62376C8.08197 6.92452 7.75405 7.29243 7.50002 7.71018C7.24596 7.29243 6.91804 6.92449 6.53498 6.62373C6.2956 6.1178 6.20785 5.5396 6.28795 4.98208V4.98208ZM6.91405 9.8047V10.4182C6.18207 9.67919 5.16778 9.22025 4.04826 9.21882C3.304 8.22448 3.51189 7.24749 3.47656 6.9336H4.04296C5.6261 6.9336 6.91405 8.22155 6.91405 9.8047V9.8047ZM3.47656 10.957V10.3906H4.04296C5.6261 10.3906 6.91405 11.6786 6.91405 13.2617V13.8281H6.34766C4.76454 13.8281 3.47656 12.5402 3.47656 10.957ZM11.5234 10.957C11.5234 12.5402 10.2354 13.8281 8.65233 13.8281H8.08593V13.2617C8.08593 11.6786 9.37391 10.3906 10.957 10.3906H11.5234V10.957Z" fill="#0F172A"/>
</svg>
