<svg id="Layer_1" height="512" viewBox="0 0 48 48" width="512" xmlns="http://www.w3.org/2000/svg" data-name="Layer 1"><path d="m28.39 24 18.7-18.7a3.09 3.09 0 0 0 .91-2.2 3 3 0 0 0 -.91-2.19 3 3 0 0 0 -2.19-.91 3.09 3.09 0 0 0 -2.2.91l-18.7 18.7-18.7-18.7a3.09 3.09 0 0 0 -2.2-.91 3 3 0 0 0 -2.19.91 3 3 0 0 0 -.91 2.19 3.09 3.09 0 0 0 .91 2.2l18.7 18.7-18.7 18.7a3.09 3.09 0 0 0 -.91 2.2 3 3 0 0 0 .91 2.19 3 3 0 0 0 2.19.91 3.09 3.09 0 0 0 2.2-.91l18.7-18.7 18.7 18.7a3.09 3.09 0 0 0 2.2.91 3.11 3.11 0 0 0 3.1-3.1 3.09 3.09 0 0 0 -.91-2.2z"/></svg>