<svg width="14" height="22" viewBox="0 0 14 22" fill="none" xmlns="http://www.w3.org/2000/svg">
<path d="M6.71254 11.1574C6.9298 11.1574 7.10592 10.9813 7.10592 10.764C7.10592 10.5467 6.9298 10.3706 6.71254 10.3706C6.49528 10.3706 6.31915 10.5467 6.31915 10.764C6.31915 10.9813 6.49528 11.1574 6.71254 11.1574Z" fill="#091F5A"/>
<path d="M13.0067 10.3707H12.5994C12.5738 9.98302 12.5106 9.6003 12.41 9.22667C12.66 8.96802 12.7614 8.58714 12.6899 8.13731C12.5735 7.404 12.0129 6.52755 11.1905 5.79275C10.3644 5.05476 9.34222 4.52019 8.27505 4.26142C8.28218 4.20045 8.28611 4.13885 8.28611 4.07649C8.28611 3.35409 7.79658 2.74422 7.13192 2.56016C7.23963 1.89428 7.64887 1.68748 7.66885 1.67784C7.8648 1.58425 7.94792 1.34952 7.85437 1.15346C7.76086 0.957399 7.52609 0.874277 7.32995 0.967784C7.23554 1.01279 6.47226 1.41124 6.33926 2.54859C6.30739 2.55638 6.27569 2.56484 6.24441 2.5746C5.29325 0.949571 3.26383 0.929469 3.17209 0.929469C2.95482 0.929469 2.77871 1.10559 2.77871 1.32285C2.77871 1.36955 2.78598 2.29203 3.27413 3.18717C2.16298 3.4496 1.37563 4.14164 1.33676 4.1763C1.25309 4.25092 1.20521 4.35772 1.20517 4.46988C1.20513 4.58203 1.25301 4.68883 1.33668 4.7635C1.36268 4.78671 1.83467 5.20259 2.55672 5.51336C1.47708 6.33636 0.826031 7.30845 0.7791 8.20517C0.759746 8.57526 0.850814 8.89784 1.03822 9.14036C0.923708 9.5411 0.852466 9.95289 0.82493 10.3706H0.418407C0.201142 10.3706 0.0250244 10.5467 0.0250244 10.764C0.0250244 14.0503 2.39484 16.9754 5.53239 17.5754V18.8464C4.60613 19.0725 4.00535 19.5381 3.65406 19.9082C3.42712 20.1469 3.10809 20.2839 2.77871 20.2839C2.56144 20.2839 2.38532 20.46 2.38532 20.6773C2.38532 20.8945 2.56144 21.0706 2.77871 21.0706H10.6464C10.8636 21.0706 11.0398 20.8945 11.0398 20.6773C11.0398 20.46 10.8636 20.2839 10.6464 20.2839C10.317 20.2839 9.99795 20.147 9.77121 19.9084C9.41972 19.5382 8.81895 19.0725 7.89269 18.8464V17.5754C11.0316 16.9752 13.4 14.0489 13.4 10.764C13.4 10.5468 13.2239 10.3707 13.0067 10.3707ZM7.4993 4.07653C7.4993 4.51445 7.14274 4.8633 6.71254 4.8633C6.281 4.8633 5.92577 4.51189 5.92577 4.07653C5.92577 3.63886 6.28194 3.28977 6.71254 3.28977C7.14636 3.28977 7.4993 3.64267 7.4993 4.07653ZM4.22872 1.9228C4.84157 2.14278 5.29278 2.50155 5.57487 2.99036C5.34364 3.23194 5.19463 3.54106 5.15191 3.87559C4.79448 3.73445 4.49236 3.51907 4.25031 3.23147C3.84529 2.7506 3.67975 2.15855 3.61209 1.7625C3.78817 1.79239 4.00276 1.84165 4.22872 1.9228ZM3.7897 3.89392C4.19107 4.31005 4.6935 4.59478 5.28794 4.74304C5.29042 4.74831 5.29262 4.7537 5.29518 4.75893C4.74983 5.05476 4.15496 5.13702 3.52157 5.00173C3.00758 4.89221 2.56427 4.66023 2.26518 4.47003C2.61526 4.24758 3.16273 3.96863 3.7897 3.89392ZM1.5648 8.24624C1.59517 7.66545 2.1275 6.68714 3.51783 5.80171C3.71984 5.83614 3.91877 5.8536 4.11436 5.8536C4.71494 5.8536 5.28397 5.69102 5.81519 5.36821C6.07628 5.5496 6.38961 5.65007 6.71258 5.65007C7.22165 5.65007 7.69293 5.40282 7.9847 5.00185C8.96489 5.21963 9.90854 5.70247 10.6663 6.37948C11.4807 7.10708 11.8442 7.82835 11.9129 8.26071C11.9712 8.62794 11.8227 8.70634 11.774 8.73203C11.6933 8.77459 11.5755 8.79709 11.4332 8.79709C11.3213 8.79709 11.1441 8.3292 11.059 8.10438C10.8441 7.53669 10.5766 6.83018 9.85964 6.83018C9.14266 6.83018 8.8752 7.53669 8.66029 8.10438C8.57517 8.32924 8.39803 8.79709 8.28611 8.79709C8.14016 8.79709 8.0677 8.71511 7.87675 8.41248C7.67688 8.09569 7.3748 7.61694 6.71258 7.61694C6.05036 7.61694 5.74828 8.09569 5.5484 8.41248C5.35741 8.71511 5.28495 8.79709 5.13904 8.79709C5.02713 8.79709 4.84999 8.3292 4.7649 8.10438C4.54999 7.53669 4.28249 6.83018 3.56551 6.83018C2.84853 6.83018 2.58107 7.53669 2.36613 8.10438C2.28104 8.32924 2.10386 8.79709 1.99198 8.79709C1.87939 8.79709 1.78856 8.77129 1.72169 8.72011C1.60902 8.63411 1.55332 8.46582 1.5648 8.24624ZM9.02799 20.2839H4.39704C4.72536 19.9945 5.23802 19.6809 5.99064 19.5551C6.18025 19.5234 6.31915 19.3593 6.31915 19.1671V17.6748C6.45047 17.6831 6.58186 17.6876 6.71254 17.6876C6.84322 17.6876 6.97461 17.6831 7.10592 17.6748V19.1671C7.10592 19.3594 7.24482 19.5235 7.43447 19.5551C8.1869 19.6809 8.69959 19.9944 9.02799 20.2839ZM6.71254 16.9006C3.58168 16.9006 1.02563 14.2444 0.824615 11.1574H4.94235C5.15962 11.1574 5.33574 10.9813 5.33574 10.764C5.33574 10.5468 5.15962 10.3707 4.94235 10.3707H1.61378C1.63459 10.0968 1.67712 9.82614 1.7412 9.56053C1.82196 9.57544 1.90551 9.5839 1.99194 9.5839C2.64724 9.5839 2.89936 8.91802 3.10191 8.38298C3.22429 8.05969 3.39191 7.61698 3.56547 7.61698C3.73907 7.61698 3.90665 8.05969 4.02904 8.38298C4.23159 8.91806 4.48371 9.5839 5.139 9.5839C5.73954 9.5839 6.01361 9.14952 6.21373 8.83234C6.40999 8.52129 6.50385 8.40375 6.71254 8.40375C6.92123 8.40375 7.01505 8.52129 7.21135 8.83234C7.41146 9.14952 7.68553 9.5839 8.28607 9.5839C8.94137 9.5839 9.19345 8.91802 9.39604 8.38298C9.51842 8.05969 9.68604 7.61698 9.8596 7.61698C10.0332 7.61698 10.2008 8.05969 10.3232 8.38298C10.5257 8.91806 10.7778 9.5839 11.4331 9.5839C11.5211 9.5839 11.6049 9.57788 11.6853 9.56706C11.7485 9.83067 11.7908 10.0991 11.8115 10.3707H8.4828C8.26557 10.3707 8.08942 10.5468 8.08942 10.764C8.08942 10.9813 8.26557 11.1574 8.4828 11.157H12.6005C12.3997 14.2405 9.84678 16.9005 6.71254 16.9006Z" fill="#091F5A"/>
</svg>
