<svg width="20" height="14" viewBox="0 0 20 14" fill="none" xmlns="http://www.w3.org/2000/svg">
<path d="M10.7999 4.36469C10.5928 4.36469 10.4234 4.5341 10.4234 4.74116C10.4234 4.94821 10.5928 5.11763 10.7999 5.11763C11.0069 5.11763 11.1763 4.94821 11.1763 4.74116C11.1763 4.5341 11.0069 4.36469 10.7999 4.36469Z" fill="#091F5A"/>
<path d="M18.5552 11.1412C18.5552 6.96612 15.295 3.54401 11.2931 2.94918C11.4588 2.70824 11.5529 2.41836 11.5529 2.10589C11.5529 1.27389 10.879 0.600006 10.047 0.600006C9.21501 0.600006 8.54113 1.27389 8.54113 2.10589C8.54113 2.41836 8.63901 2.70824 8.80089 2.94918C4.81407 3.54401 1.53877 6.95483 1.53877 11.1412C0.913833 11.1412 0.409363 11.6457 0.409363 12.2706C0.409363 12.8918 0.917598 13.4 1.53877 13.4H18.5552C19.1802 13.4 19.6847 12.8955 19.6847 12.2706C19.6847 11.6494 19.1764 11.1412 18.5552 11.1412ZM9.29407 2.10589C9.29407 1.69177 9.63289 1.35295 10.047 1.35295C10.4611 1.35295 10.8 1.69177 10.8 2.10589C10.8 2.52001 10.4611 2.85883 10.047 2.85883C9.63289 2.85883 9.29407 2.52001 9.29407 2.10589ZM10.047 3.61177C14.192 3.61177 17.8023 6.96612 17.8023 11.1412H2.29172C2.29172 7.06024 5.84183 3.61177 10.047 3.61177ZM18.5552 12.6471H1.53877C1.33172 12.6471 1.1623 12.4777 1.1623 12.2706C1.1623 12.0635 1.33172 11.8941 1.53877 11.8941H18.5552C18.7623 11.8941 18.9317 12.0635 18.9317 12.2706C18.9317 12.4777 18.7623 12.6471 18.5552 12.6471Z" fill="#091F5A"/>
<path d="M16.4471 8.35153C15.7393 6.79294 14.2221 5.46024 12.385 4.78259C12.1892 4.71106 11.9746 4.80894 11.9031 5.00471C11.8315 5.20047 11.9294 5.41506 12.1252 5.48659C13.7515 6.08518 15.1482 7.30118 15.7619 8.66024C15.8485 8.84847 16.0706 8.93506 16.2588 8.84847C16.4508 8.76188 16.5337 8.53977 16.4471 8.35153Z" fill="#091F5A"/>
</svg>
