<svg width="15" height="15" viewBox="0 0 15 15" fill="none" xmlns="http://www.w3.org/2000/svg">
<g clip-path="url(#clip0_2396_7342)">
<path d="M5.60844 12.4236C5.70291 13.3167 5.43032 14.2097 4.85327 14.8978C4.78823 14.9868 4.67172 15.0212 4.56879 14.9819C4.06758 14.7334 2.56809 13.844 2.83861 12.1629C1.15628 12.4334 0.267404 10.934 0.0196457 10.4328C-0.0196695 10.3298 0.0147545 10.2133 0.103697 10.1483C0.791786 9.57121 1.68487 9.29863 2.57792 9.3931L5.60844 12.4236Z" fill="#2FA8CC"/>
<path d="M14.813 8.12741C14.3396 8.94976 13.7492 9.69897 13.0603 10.3515C10.4439 12.9403 5.53758 13.319 3.60982 11.3904C1.68206 9.46189 2.05991 4.55637 4.64844 1.93965C5.30827 1.24654 6.0649 0.652547 6.89482 0.176117L14.813 8.12741Z" fill="#67B9CC"/>
<path d="M14.5423 8.50151C15.6326 7.41121 14.7155 4.72636 12.4939 2.50475C10.2723 0.283132 7.58743 -0.633973 6.49712 0.456335C5.40682 1.54664 6.32392 4.23149 8.54553 6.4531C10.7671 8.67471 13.452 9.59182 14.5423 8.50151Z" fill="#FF5364"/>
<path d="M10.193 9.19602C10.092 9.09506 9.92832 9.09506 9.82733 9.19602C9.63127 9.39204 9.34552 9.46857 9.07773 9.39678C8.80994 9.325 8.60079 9.1158 8.52907 8.84799C8.45734 8.58018 8.53394 8.29446 8.73 8.09844C8.82801 7.99696 8.82661 7.83566 8.72685 7.7359C8.6271 7.63614 8.46579 7.63474 8.36431 7.73275C8.05742 8.02602 7.57414 8.02602 7.26724 7.73275C6.96436 7.42977 6.96436 6.93865 7.26724 6.63568C7.36526 6.5342 7.36385 6.3729 7.26409 6.27314C7.16434 6.17338 7.00303 6.17198 6.90156 6.26999C6.70549 6.46605 6.41972 6.54263 6.15189 6.47086C5.88406 6.3991 5.67486 6.1899 5.6031 5.92207C5.53133 5.65424 5.6079 5.36847 5.80397 5.1724C5.90198 5.07093 5.90058 4.90962 5.80082 4.80986C5.70106 4.71011 5.53976 4.7087 5.43828 4.80671C5.0066 5.25123 4.94461 5.93708 5.28957 6.4518C4.98694 6.89271 4.98694 7.47442 5.28957 7.91533C5.00065 8.33704 4.98727 8.88936 5.25543 9.32456C4.95443 9.48056 4.58762 9.42865 4.34173 9.19525C4.19612 9.04973 4.11431 8.85231 4.11431 8.64645C4.11431 8.4406 4.19612 8.24318 4.34173 8.09766C4.4371 7.99567 4.4343 7.83638 4.33538 7.73782C4.23647 7.63925 4.07717 7.63701 3.97552 7.73275C3.60562 8.10254 3.49493 8.65875 3.69505 9.14199C3.89518 9.62523 4.3667 9.94033 4.88974 9.94033C4.95295 9.93881 5.01596 9.93267 5.07828 9.92197C4.99632 10.4728 5.2769 11.014 5.77423 11.2645C6.27156 11.515 6.87348 11.4182 7.26724 11.0245C7.36526 10.923 7.36385 10.7617 7.26409 10.6619C7.16434 10.5622 7.00303 10.5608 6.90156 10.6588C6.63009 10.9314 6.19957 10.9632 5.89103 10.7333C5.58248 10.5035 5.48964 10.0819 5.67311 9.74378C6.10733 10.0164 6.66235 10.0037 7.08362 9.71145C7.52394 10.0166 8.10737 10.0166 8.54768 9.71145C9.06034 10.0654 9.75267 10.0024 10.193 9.56171C10.294 9.46072 10.294 9.29701 10.193 9.19602ZM6.53612 6.99464C6.52709 7.05743 6.52259 7.12078 6.52268 7.18421C6.52312 7.42393 6.59087 7.6587 6.71819 7.8618C6.41713 8.018 6.05014 7.96608 5.80423 7.73249C5.56379 7.49029 5.51041 7.11918 5.67285 6.81904C5.93202 6.97467 6.23675 7.03665 6.53612 6.99464ZM5.80397 9.19602C5.56348 8.95308 5.51033 8.58137 5.67311 8.28077C5.9293 8.4482 6.23963 8.51182 6.54104 8.4587C6.53037 8.52101 6.52423 8.58402 6.52268 8.64723C6.52316 8.88773 6.59127 9.12325 6.71923 9.32689C6.41863 9.48966 6.04691 9.43651 5.80397 9.19602ZM7.26724 9.19602C7.02379 8.95542 6.96972 8.58241 7.13483 8.28258C7.39313 8.44157 7.69875 8.50558 7.99914 8.46361C7.95666 8.76296 8.02005 9.06775 8.17837 9.32533C7.87803 9.48017 7.51264 9.42831 7.26724 9.19602Z" fill="#3B97D3"/>
<path d="M11.8389 5.35551L10.7162 4.23283C10.87 3.94476 10.9054 3.60804 10.8147 3.2943C10.7046 2.89611 10.4904 2.53447 10.1941 2.24662C9.82462 1.85008 9.31699 1.61057 8.77603 1.57757C8.48649 1.56943 8.206 1.67897 7.99862 1.88119C7.4775 2.40257 7.63474 3.34602 8.36431 4.07585C8.73351 4.47216 9.24069 4.71173 9.78129 4.74516C9.98068 4.74723 10.177 4.69627 10.3503 4.59749L11.4745 5.72146C11.576 5.81947 11.7373 5.81806 11.837 5.71831C11.9368 5.61855 11.9382 5.45724 11.8402 5.35577L11.8389 5.35551Z" fill="#DF4D60"/>
<path d="M10.1914 4.07564C10.4943 3.7727 10.3306 3.1178 9.82568 2.61289C9.32077 2.10797 8.66587 1.94425 8.36293 2.2472C8.05998 2.55014 8.2237 3.20504 8.72861 3.70996C9.23353 4.21487 9.88842 4.37859 10.1914 4.07564Z" fill="#ECF0F1"/>
</g>
<defs>
<clipPath id="clip0_2396_7342">
<rect width="15" height="15" fill="white"/>
</clipPath>
</defs>
</svg>
