<svg enable-background="new 0 0 512 512" height="512" viewBox="0 0 512 512" width="512" xmlns="http://www.w3.org/2000/svg"><g id="_x30_1_United_Kingdom_x2C__country_x2C__national_x2C__flag_x2C__world_flag"><g id="XMLID_1_"><circle id="XMLID_1007_" cx="255.999" cy="256" fill="#0053b5" r="240"/><circle id="XMLID_1006_" cx="255.999" cy="256" fill="#fff" r="215"/></g><g id="XMLID_712_"><g fill="#0053b5"><path id="XMLID_1005_" d="m83.822 175.587c-2.598 5.553-4.934 11.251-6.995 17.08h31.396z"/><path id="XMLID_1004_" d="m192.666 76.827c-27.686 9.787-52.423 25.805-72.531 46.374l72.531 48.354z"/><path id="XMLID_1003_" d="m391.864 123.202c-20.108-20.57-44.845-36.588-72.531-46.374v94.729z"/><path id="XMLID_1002_" d="m428.177 336.413c2.598-5.553 4.934-11.251 6.995-17.08h-31.396z"/><path id="XMLID_1001_" d="m435.172 192.667c-2.061-5.83-4.397-11.528-6.995-17.08l-24.401 17.08z"/><path id="XMLID_1000_" d="m120.135 388.798c20.108 20.569 44.845 36.588 72.531 46.374v-94.729z"/><path id="XMLID_999_" d="m76.827 319.333c2.061 5.83 4.397 11.528 6.995 17.08l24.401-17.08z"/><path id="XMLID_998_" d="m319.332 435.173c27.686-9.787 52.423-25.805 72.531-46.374l-72.531-48.354z"/></g><g id="XMLID_721_" fill="#fff"><path id="XMLID_997_" d="m192.666 171.556-72.531-48.354c-4.133 4.228-8.071 8.647-11.798 13.245l84.33 56.22h-52.778l-47.673-33.004c-3.04 5.157-5.842 10.469-8.394 15.924l24.401 17.08h-31.396c-2.427 6.866-4.476 13.909-6.111 21.111h121.95v84.444h-121.95c1.634 7.202 3.684 14.245 6.111 21.111h31.396l-24.401 17.08c2.552 5.454 5.354 10.767 8.394 15.924l47.673-33.004h52.778l-84.33 56.22c3.727 4.598 7.665 9.017 11.798 13.245l72.531-48.354v94.729c6.866 2.427 13.909 4.476 21.111 6.111 0-12.844 0-357.537 0-370.567-7.202 1.634-14.245 3.684-21.111 6.111z"/><path id="XMLID_996_" d="m319.332 213.778h121.95c-1.634-7.202-3.684-14.245-6.111-21.111h-31.396l24.401-17.08c-2.552-5.454-5.354-10.767-8.394-15.924l-47.673 33.004h-52.778l84.33-56.22c-3.727-4.598-7.665-9.017-11.798-13.245l-72.531 48.354v-94.729c-6.866-2.427-13.909-4.476-21.111-6.111v370.567c7.202-1.634 14.245-3.684 21.111-6.111v-94.729l72.531 48.354c4.133-4.228 8.071-8.647 11.798-13.245l-84.33-56.22h52.778l47.673 33.004c3.04-5.157 5.843-10.469 8.394-15.924l-24.401-17.08h31.396c2.427-6.866 4.476-13.909 6.111-21.111h-121.95z"/></g><g id="XMLID_713_" fill="#d80027"><path id="XMLID_995_" d="m70.716 298.222h121.95v-84.444h-121.95c-6.1 26.882-6.475 55.911 0 84.444z"/><path id="XMLID_994_" d="m441.283 213.778h-121.95v84.444h121.95c6.1-26.882 6.474-55.911 0-84.444z"/><path id="XMLID_993_" d="m213.777 70.717v370.567c26.882 6.1 55.911 6.475 84.444 0 0-24.036 0-354.114 0-370.567-26.881-6.1-55.911-6.475-84.444 0z"/><path id="XMLID_992_" d="m419.783 159.663c-4.803-8.148-10.195-15.906-16.121-23.216l-84.33 56.22h52.778z"/><path id="XMLID_991_" d="m92.216 159.663 47.673 33.004h52.778l-84.33-56.22c-5.926 7.31-11.318 15.068-16.121 23.216z"/><path id="XMLID_990_" d="m92.216 352.337c4.803 8.148 10.195 15.906 16.121 23.216l84.33-56.22h-52.778z"/><path id="XMLID_989_" d="m319.332 319.333 84.33 56.22c5.925-7.31 11.318-15.067 16.121-23.216l-47.673-33.004z"/></g></g></g></svg>