<svg enable-background="new 0 0 512 512" height="512" viewBox="0 0 512 512" width="512" xmlns="http://www.w3.org/2000/svg"><g id="Layer_4_x2C__france_x2C__country_x2C__national_x2C__flag_x2C__world_flag"><g id="XMLID_1_"><circle id="XMLID_953_" cx="255.999" cy="256" fill="#d80027" r="240"/><circle id="XMLID_952_" cx="255.999" cy="256" fill="#fff" r="215"/></g><g id="XMLID_712_"><path id="XMLID_951_" d="m66.057 256.003c0 74.575 42.985 139.1 105.523 170.182v-340.363c-62.538 31.082-105.523 95.606-105.523 170.181z" fill="#0053b5"/><path id="XMLID_950_" d="m340.417 85.822c-25.432-12.64-54.092-19.759-84.418-19.759s-58.986 7.119-84.418 19.759v340.363c25.432 12.64 54.092 19.759 84.418 19.759s58.986-7.119 84.418-19.759z" fill="#fff"/><path id="XMLID_949_" d="m445.939 256.003c0-74.575-42.985-139.1-105.523-170.182v340.363c62.539-31.081 105.523-95.606 105.523-170.181z" fill="#d80027"/></g></g></svg>