<svg width="18" height="17" viewBox="0 0 18 17" fill="none" xmlns="http://www.w3.org/2000/svg">
<g clip-path="url(#clip0_2465_1892)">
<path d="M13.2828 6.741L14.3169 6.67833C14.3186 6.6782 14.3205 6.67807 14.3224 6.67794C15.0593 6.61848 15.7207 6.24926 16.1373 5.66467L16.9547 4.51758C17.6663 3.51895 17.942 2.31279 17.7307 1.12139C17.6892 0.887403 17.5641 0.671778 17.3785 0.514458C17.1928 0.357009 16.9541 0.26403 16.7062 0.252728C15.4437 0.194937 14.2252 0.601401 13.2739 1.39674L12.1812 2.31048C11.6243 2.77602 11.3203 3.44832 11.3469 4.1553C11.347 4.15697 11.347 4.15877 11.3472 4.16056L11.4061 5.14982C11.4291 5.53548 11.2812 5.916 11.0013 6.19314L2.46417 14.5811C2.23563 14.809 2.1176 15.1217 2.13197 15.4617C2.14782 15.8359 2.32735 16.2035 2.61228 16.445C2.86969 16.6632 3.22351 16.7875 3.5772 16.7875C3.61507 16.7875 3.65293 16.7861 3.69067 16.7832C4.04529 16.7561 4.35588 16.6066 4.56616 16.3608L12.2478 7.2511C12.5025 6.95136 12.8798 6.7654 13.2828 6.741ZM11.8377 6.93364L4.15674 16.0425C4.03939 16.1797 3.85892 16.2642 3.64864 16.2803C3.39848 16.2994 3.14201 16.2198 2.96234 16.0675C2.78268 15.915 2.66935 15.681 2.65928 15.4413C2.65069 15.2398 2.71662 15.0583 2.84364 14.9317L11.3801 6.54438C11.7628 6.16566 11.9642 5.64695 11.933 5.12118L11.8741 4.13449C11.8541 3.58111 12.0924 3.05496 12.5284 2.69036L13.6212 1.77662C14.4693 1.06758 15.5561 0.705554 16.6811 0.756667C16.8092 0.762574 16.9325 0.810605 17.0285 0.892026C17.1245 0.973319 17.1891 1.08479 17.2105 1.20564C17.3988 2.26784 17.1531 3.34301 16.5187 4.23325L15.7013 5.38047C15.3751 5.83818 14.8575 6.12752 14.2806 6.1749L13.2494 6.23732C12.6999 6.27071 12.1856 6.52422 11.8377 6.93364Z" fill="#091F5A"/>
<path d="M17.3126 14.5174L11.5885 9.53103C11.4808 9.43715 11.314 9.4446 11.2157 9.5476C11.1177 9.65059 11.1255 9.81022 11.2332 9.9041L16.9558 14.8893C17.092 15.0096 17.1692 15.187 17.1734 15.3886C17.1783 15.6285 17.0799 15.8685 16.91 16.031C16.7403 16.1933 16.4898 16.2877 16.2384 16.2828C16.0276 16.2789 15.8421 16.205 15.7177 16.0762L10.617 10.7204C10.5188 10.6172 10.3519 10.6099 10.2442 10.7037C10.1365 10.7976 10.1287 10.9572 10.2269 11.0602L15.3288 16.4173C15.553 16.6492 15.8723 16.7807 16.228 16.7874C16.2373 16.7875 16.2464 16.7877 16.2557 16.7877C16.638 16.7877 17.0203 16.6393 17.2831 16.3879C17.5524 16.1303 17.7086 15.7531 17.7008 15.3787C17.6938 15.0385 17.5565 14.7331 17.3126 14.5174Z" fill="#091F5A"/>
<path d="M3.38345 6.69324C3.82012 7.078 4.38744 7.29735 4.98095 7.31096C4.98283 7.31109 4.98471 7.31109 4.98645 7.31109L6.02254 7.31417C6.42645 7.31533 6.81465 7.47932 7.08709 7.76327L7.5435 8.24242C7.5956 8.29713 7.66691 8.32487 7.73861 8.32487C7.80199 8.32487 7.86564 8.30317 7.91613 8.25912C8.02395 8.16524 8.03174 8.00561 7.93358 7.90261L7.4765 7.42282C7.10428 7.03472 6.57496 6.81126 6.02429 6.80946L4.99102 6.80638C4.53192 6.79521 4.09297 6.6271 3.75285 6.33262L0.750262 2.91884C0.719646 2.88391 0.721929 2.83331 0.755633 2.80107C0.778729 2.77885 0.805853 2.77564 0.819952 2.77564C0.834051 2.77564 0.861175 2.77885 0.884405 2.80107L3.61749 5.41515C3.88766 5.67354 4.32729 5.67354 4.59745 5.41503L4.91864 5.10796V5.10783L5.48892 4.56242C5.48892 4.56242 5.48906 4.56242 5.48906 4.56229L5.48919 4.56216L5.81025 4.2551C6.08041 3.9967 6.08041 3.57624 5.81025 3.31785L3.07716 0.703897C3.04171 0.669993 3.04171 0.614642 3.07716 0.580738C3.11086 0.548504 3.16377 0.54632 3.20029 0.575601L6.76966 3.44743C7.0777 3.7726 7.25346 4.19255 7.26515 4.63151L7.26824 5.61986C7.27012 6.1464 7.50389 6.65265 7.91022 7.00942L8.39926 7.4354C8.50708 7.52928 8.67385 7.52183 8.77201 7.41884C8.87003 7.31571 8.86225 7.15621 8.75455 7.06233L8.26632 6.63699C7.96863 6.37577 7.79729 6.00437 7.79595 5.61819L7.79272 4.62727C7.79272 4.62547 7.79272 4.62367 7.79259 4.62188C7.77836 4.05424 7.54901 3.51165 7.14671 3.09401C7.13919 3.08617 7.13114 3.07873 7.12254 3.07179L3.53988 0.189428C3.29227 -0.00988657 2.93295 0.00501068 2.70414 0.223846C2.46284 0.454625 2.46284 0.83001 2.70414 1.06066L5.43722 3.67474C5.50168 3.73639 5.50168 3.83669 5.43722 3.89833L5.30254 4.02701L2.25645 1.11383C2.15346 1.0152 1.98642 1.0152 1.88343 1.11383C1.78044 1.21233 1.78044 1.37209 1.88343 1.47059L4.92952 4.3839L4.73213 4.57256L1.68604 1.65938C1.58305 1.56087 1.41601 1.56087 1.31302 1.65938C1.20989 1.75788 1.20989 1.91764 1.31302 2.01614L4.35897 4.92945L4.22443 5.05826C4.15998 5.11991 4.0551 5.11991 3.99065 5.05826L1.25743 2.44431C1.14061 2.33258 0.985248 2.27093 0.819952 2.27093C0.654656 2.27093 0.499297 2.33258 0.382475 2.44431C0.153666 2.66314 0.138224 3.00681 0.346489 3.24375L3.36035 6.67012C3.36747 6.67834 3.37526 6.68604 3.38345 6.69324Z" fill="#091F5A"/>
</g>
<defs>
<clipPath id="clip0_2465_1892">
<rect width="17.6" height="16.8" fill="white" transform="translate(0.200012)"/>
</clipPath>
</defs>
</svg>
