<svg width="22" height="22" viewBox="0 0 22 22" fill="none" xmlns="http://www.w3.org/2000/svg">
<path d="M13.4281 11.5542H13.4147C13.3501 11.5124 13.2855 11.4744 13.2247 11.4344C13.1317 11.3858 13.0168 11.4218 12.9682 11.5147C12.9224 11.6023 12.9512 11.7103 13.0346 11.7633C13.0973 11.7994 13.1581 11.8374 13.2247 11.8754C13.2549 11.8942 13.2898 11.904 13.3254 11.9039C13.4304 11.9036 13.5153 11.8183 13.515 11.7134C13.5148 11.649 13.4821 11.5891 13.4281 11.5542Z" fill="#091F5A"/>
<path d="M14.9638 12.8828C14.6569 12.5285 14.3142 12.2069 13.9412 11.9229C13.8588 11.8578 13.7392 11.8719 13.6741 11.9543C13.609 12.0367 13.6231 12.1563 13.7055 12.2214C14.0592 12.4898 14.3841 12.7943 14.6749 13.1299C14.7431 13.2097 14.8631 13.2191 14.9429 13.1508C15.0227 13.0826 15.032 12.9626 14.9638 12.8828Z" fill="#091F5A"/>
<path d="M21.3998 16.9315C21.071 16.2244 19.9096 15.9583 18.7597 16.3251C18.7403 16.3312 18.7222 16.3409 18.7065 16.3537C18.5998 16.1305 18.4566 15.9268 18.2826 15.7511C18.1676 15.6364 18.04 15.5351 17.9024 15.4489C17.9581 15.2252 17.936 14.9892 17.8397 14.7798C17.7923 14.6717 17.7052 14.586 17.5964 14.5403C17.5451 14.5175 17.4919 14.4985 17.4405 14.4814C17.4797 14.1378 17.2866 13.8099 16.9673 13.6774C16.8266 13.6161 16.681 13.5672 16.532 13.531C16.4522 13.3657 16.3647 13.2041 16.2697 13.0444C17.1877 12.3316 18.3491 11.8241 18.83 12.3506C18.9058 12.4232 19.0262 12.4206 19.0988 12.3448C19.1648 12.2758 19.1694 12.1684 19.1094 12.094C18.5392 11.4725 17.3588 11.7234 16.0682 12.7232C15.9751 12.5863 15.8781 12.4514 15.7736 12.3202C17.2182 11.5238 17.9252 10.5278 17.5774 9.758C17.5386 9.65983 17.4275 9.61179 17.3294 9.65061C17.2312 9.68943 17.1831 9.80049 17.222 9.89866C17.431 10.3643 16.9844 11.2178 15.5113 12.0085C15.4105 11.8945 15.3098 11.7842 15.2014 11.6759C15.1425 11.617 15.0798 11.5599 15.0114 11.5029C16.3305 10.7844 16.9768 9.87585 16.6574 9.17257C16.6142 9.0772 16.502 9.03472 16.4065 9.07753C16.3107 9.12044 16.2678 9.23287 16.3107 9.32872C16.311 9.32924 16.3112 9.32981 16.3115 9.33033C16.5016 9.7428 16.0891 10.5069 14.7491 11.214C14.7368 11.2224 14.7254 11.232 14.7149 11.2425C14.5381 11.0961 14.3575 10.9593 14.1731 10.8338C15.4485 9.93668 16.3609 8.41226 15.6367 6.91826C16.0321 6.07623 15.9256 4.96808 15.3155 3.84283C14.9218 3.13156 14.396 2.50194 13.7664 1.98768C11.8048 0.35873 9.28627 0.130638 8.17243 1.48018C8.15342 1.50299 8.13821 1.5277 8.1211 1.55051L8.1002 1.58092C8.0608 1.63661 8.05425 1.70917 8.08309 1.771C8.11298 1.83401 8.17499 1.87559 8.24465 1.87934C9.25396 1.93446 10.3716 2.40775 11.3068 3.17946C11.773 3.56161 12.1809 4.00986 12.5176 4.51L12.0234 4.65636L8.03177 2.18536C7.98092 2.154 7.91825 2.14835 7.8626 2.17016C7.80743 2.19135 7.76528 2.23702 7.74856 2.29371C7.33419 3.71548 8.12871 5.56112 9.74246 6.88595C10.8544 7.80782 12.1374 8.27921 13.2437 8.27921H13.314C13.6612 8.88931 13.4826 9.66368 12.9034 10.0602C12.8766 10.0799 12.8561 10.107 12.8445 10.1382C12.3706 9.95469 11.8736 9.83765 11.3676 9.79032V9.2581C11.3676 9.15313 11.2825 9.06803 11.1775 9.06803C11.0726 9.06803 10.9875 9.15313 10.9875 9.2581V9.76561C10.66 9.76109 10.333 9.79231 10.0124 9.85874C9.93771 9.87395 9.87936 9.93235 9.8641 10.007C9.79767 10.3277 9.76645 10.6546 9.77097 10.9821H9.26346C9.15849 10.9823 9.07353 11.0676 9.07377 11.1726C9.07396 11.2772 9.15878 11.3621 9.26346 11.3622H9.79188C9.8392 11.8682 9.95624 12.3652 10.1397 12.8391C10.1082 12.8502 10.081 12.8707 10.0618 12.8981C9.66524 13.4773 8.89087 13.6558 8.28077 13.3086C8.30168 12.1853 7.83029 10.8738 6.89321 9.7371C5.56838 8.13095 3.72274 7.32883 2.30097 7.74319C2.24428 7.75992 2.19861 7.80207 2.17742 7.85724C2.15561 7.91289 2.16126 7.97556 2.19262 8.02641L4.66362 12.018L4.51916 12.5122C4.01902 12.1756 3.57077 11.7677 3.18862 11.3014C2.41691 10.3662 1.94362 9.2505 1.8885 8.23929C1.88261 8.13447 1.79285 8.0543 1.68802 8.0602C1.65129 8.06229 1.61593 8.07497 1.58628 8.09674L1.55587 8.11765C1.53125 8.13238 1.50773 8.14891 1.48554 8.16707C0.820273 8.71639 0.51425 9.60974 0.620693 10.6837C0.769285 11.8257 1.24747 12.8998 1.99685 13.7743C2.51067 14.4044 3.14039 14.9302 3.85199 15.3234C4.45401 15.6698 5.13263 15.8612 5.82688 15.8804C6.20518 15.8838 6.57963 15.804 6.92362 15.6466C7.26353 15.8148 7.63731 15.9032 8.01656 15.9051C9.12851 15.9051 10.1663 15.1448 10.843 14.1811C10.9684 14.3712 11.1053 14.546 11.2517 14.7228C11.2412 14.7333 11.2316 14.7448 11.2232 14.757C10.5161 16.0875 9.75196 16.5076 9.33949 16.3194C9.24408 16.2756 9.13127 16.3174 9.08745 16.4129C9.08722 16.4134 9.08698 16.414 9.08669 16.4145C9.04388 16.51 9.08636 16.6222 9.18173 16.6654C9.30096 16.7198 9.43083 16.7471 9.56188 16.7452C10.1929 16.7452 10.9209 16.1142 11.5178 15.0193C11.5748 15.0801 11.6318 15.1429 11.6907 15.2094C11.7985 15.3158 11.9087 15.4185 12.0215 15.5173C11.2346 16.979 10.3735 17.4257 9.90402 17.2166C9.80585 17.1794 9.69612 17.229 9.65901 17.3271C9.62508 17.4168 9.66329 17.5178 9.74816 17.5625C9.8766 17.6205 10.0159 17.6503 10.1568 17.65C10.8506 17.65 11.6489 16.9581 12.3104 15.7606C12.4415 15.8633 12.5765 15.9507 12.7133 16.0533C11.7135 17.3478 11.4645 18.5243 12.0842 19.0946C12.1614 19.1652 12.2813 19.1601 12.3522 19.0831C12.4229 19.0059 12.4177 18.8861 12.3408 18.8151C11.8143 18.3361 12.3218 17.1729 13.0346 16.2548C13.1942 16.3499 13.3558 16.4449 13.5212 16.5171C13.5573 16.6661 13.6063 16.8118 13.6675 16.9524C13.7882 17.2338 14.0592 17.4214 14.3651 17.4352C14.4008 17.4349 14.4364 17.4318 14.4716 17.4257C14.4887 17.477 14.5077 17.5302 14.5305 17.5815C14.5761 17.6904 14.6619 17.7775 14.77 17.8248H14.7814C14.9122 17.8843 15.054 17.9154 15.1976 17.9161C15.2786 17.9152 15.3592 17.9037 15.4371 17.8819C15.5241 18.0195 15.6261 18.147 15.7413 18.262C15.9216 18.4443 16.1335 18.5924 16.3666 18.6992C16.3542 18.7159 16.3445 18.7345 16.3381 18.7543C15.9713 19.8948 16.2374 21.0656 16.9444 21.3945C17.0685 21.4536 17.2043 21.4841 17.3417 21.4838C17.8169 21.4838 18.313 21.1265 18.6722 20.4973C18.761 20.3569 18.9243 20.2823 19.0885 20.3072C19.7157 20.3656 20.2714 19.9045 20.3297 19.2773C20.3363 19.207 20.3363 19.1363 20.3297 19.066C20.298 18.903 20.3659 18.7365 20.5027 18.6422C21.3105 18.1917 21.6716 17.5017 21.3998 16.9315ZM11.5482 2.89055C10.718 2.18484 9.71252 1.71659 8.63811 1.5353C9.69304 0.560211 11.82 0.862432 13.5383 2.2785C14.0644 2.71335 14.5141 3.23311 14.8688 3.81622L13.3064 4.28381L12.8996 4.40165C12.53 3.83109 12.0741 3.32131 11.5482 2.89055ZM9.98575 6.59513C8.6115 5.45468 7.8493 3.87894 8.05648 2.65105L11.896 5.027C11.9415 5.05504 11.9967 5.06264 12.0481 5.04791L12.8673 4.80842L15.0665 4.16216C15.5569 5.13725 15.6367 6.07433 15.2984 6.77761C15.2721 6.80393 15.2549 6.83786 15.249 6.87455C15.1949 6.97486 15.1312 7.06971 15.0589 7.15776C14.0857 8.34574 11.8048 8.09294 9.98575 6.59513ZM13.717 8.245C14.3497 8.18142 14.9342 7.87891 15.3516 7.39916L15.4067 7.32503C15.7869 8.43317 15.2319 9.67817 13.8861 10.5791C13.8697 10.5917 13.855 10.6065 13.8424 10.6229C13.6379 10.5012 13.4273 10.3902 13.2113 10.2902C13.8295 9.80543 14.038 8.96196 13.717 8.245ZM3.82158 14.873C3.23937 14.5153 2.72151 14.0623 2.28956 13.5329C1.58818 12.7162 1.13974 11.713 0.998945 10.6457C0.915311 9.80932 1.10919 9.10604 1.54636 8.63275C1.72599 9.70659 2.19224 10.712 2.89591 11.5428C3.32957 12.0695 3.84258 12.5254 4.41652 12.8943L3.82158 14.873ZM7.16312 15.0516C7.07507 15.124 6.98022 15.1876 6.87991 15.2417C6.84322 15.2476 6.80929 15.2648 6.78297 15.2911C6.07968 15.6295 5.15211 15.5534 4.16752 15.0611V15.0535L4.81378 12.8543L5.05327 12.0351C5.068 11.9838 5.0604 11.9285 5.03236 11.8831L2.65641 8.04352C3.8824 7.83633 5.46574 8.59854 6.60049 9.97279C8.0983 11.7994 8.3511 14.0803 7.16312 15.0516ZM10.5845 13.8903C9.68353 15.2208 8.43853 15.791 7.32849 15.4109L7.40452 15.3558C7.88432 14.9387 8.1863 14.3538 8.24846 13.7211C8.47517 13.8176 8.71866 13.8686 8.96504 13.8713C9.48424 13.8677 9.97368 13.6286 10.2956 13.2212C10.3944 13.4383 10.5054 13.6496 10.6282 13.8541C10.6122 13.8644 10.5976 13.8765 10.5845 13.8903ZM13.4604 15.7593C13.4545 15.8578 13.4544 15.9567 13.4603 16.0552C12.9068 15.7564 12.3997 15.3787 11.9549 14.9338V14.9357C10.5959 13.5766 9.93633 11.7766 10.2119 10.2085C11.782 9.93287 13.5801 10.5886 14.9391 11.9515C15.3832 12.397 15.7608 12.904 16.0606 13.4569C14.7068 13.3747 13.5427 14.4055 13.4604 15.7593ZM14.386 16.1052C14.318 16.4194 14.318 16.7446 14.386 17.0588C14.2269 17.0513 14.0864 16.9529 14.0249 16.806C13.5285 15.7634 13.9715 14.5158 15.0141 14.0195C15.5826 13.7488 16.2428 13.7488 16.8114 14.0195C16.9583 14.081 17.0567 14.2215 17.0642 14.3806C15.8484 14.1173 14.6494 14.8894 14.386 16.1052ZM15.7052 17.1995C15.6695 17.3325 15.577 17.4431 15.4523 17.5017C15.2885 17.5697 15.1031 17.5627 14.9448 17.4827C14.9243 17.475 14.9078 17.4592 14.8992 17.439C14.4332 16.4983 14.8179 15.358 15.7586 14.892C16.2903 14.6285 16.9145 14.6285 17.4462 14.892C17.4695 14.9029 17.4873 14.9228 17.4957 14.9471C17.5679 15.1066 17.5679 15.2894 17.4957 15.4489C17.4392 15.5726 17.3316 15.6656 17.2011 15.7036C16.4803 15.9151 15.9167 16.4788 15.7052 17.1995ZM16.0264 18.0111C15.9395 17.9221 15.8624 17.8239 15.7964 17.7184C15.9265 17.613 16.0224 17.4715 16.072 17.3116C16.1558 17.0167 16.3143 16.7483 16.532 16.5323C16.7494 16.3124 17.0197 16.152 17.317 16.0666C17.4771 16.0175 17.6188 15.9216 17.7238 15.791C17.8282 15.8584 17.9257 15.9361 18.0146 16.0229C18.6342 16.6426 18.6913 17.5929 18.1438 18.1404C17.5964 18.6878 16.646 18.6308 16.0264 18.0111ZM20.3373 18.3152C20.0604 18.4696 19.9014 18.7734 19.9324 19.0888C19.978 19.5063 19.6765 19.8816 19.259 19.9271C19.2042 19.9331 19.149 19.9331 19.0942 19.9271C18.7846 19.891 18.4825 20.0398 18.3225 20.3072C17.9822 20.9193 17.4785 21.2234 17.0984 21.0447C16.5795 20.8033 16.3932 19.8035 16.6916 18.8627C16.6935 18.8475 16.6935 18.8322 16.6916 18.817C16.8569 18.8629 17.0276 18.8866 17.1991 18.8874H17.2979L17.5279 19.6477C17.5523 19.7315 17.6307 19.788 17.718 19.7845C17.7356 19.7872 17.7536 19.7872 17.7712 19.7845C17.872 19.7551 17.9299 19.6496 17.9005 19.5488L17.6819 18.8322C17.9581 18.7572 18.2097 18.611 18.4118 18.4084C18.6162 18.2066 18.7632 17.954 18.8376 17.6766L19.5579 17.8933C19.5763 17.8951 19.5947 17.8951 19.6131 17.8933C19.7004 17.8967 19.7788 17.8403 19.8031 17.7564C19.8327 17.6562 19.7758 17.5509 19.6758 17.5207L18.9155 17.2907C18.9246 17.0864 18.9021 16.8819 18.849 16.6844C18.8635 16.6862 18.8782 16.6862 18.8927 16.6844C19.8431 16.386 20.8334 16.5703 21.0748 17.0911C21.2535 17.4713 20.9494 17.975 20.3373 18.3152Z" fill="#091F5A"/>
<path d="M5.83254 9.82452C5.41856 9.38112 4.90616 9.04126 4.33664 8.83232C4.23766 8.7973 4.12908 8.84914 4.09406 8.94813C4.09382 8.94879 4.09358 8.9495 4.09335 8.95017C4.05932 9.04939 4.11202 9.1574 4.21119 9.19156C4.72682 9.3796 5.19056 9.68705 5.56454 10.0887C5.60056 10.1255 5.64993 10.146 5.70139 10.1457C5.75034 10.1456 5.79729 10.1265 5.83254 10.0925C5.90625 10.0184 5.90625 9.89865 5.83254 9.82452Z" fill="#091F5A"/>
</svg>
