<svg width="35" height="35" viewBox="0 0 35 35" fill="none" xmlns="http://www.w3.org/2000/svg">
<g clip-path="url(#clip0_2272_6606)">
<g filter="url(#filter0_dd_2272_6606)">
<path d="M29.8095 19.2456C29.7919 24.0638 26.7329 28.5092 22.1885 30.1567C19.8994 30.9864 17.3752 31.0812 15.0322 30.4153C12.7638 29.7701 10.7355 28.4238 9.2358 26.6044C6.14103 22.8506 5.77363 17.3709 8.29345 13.2199C10.8058 9.08138 15.7777 6.89289 20.5239 7.86506C25.2231 8.82782 28.9135 12.6964 29.6715 17.4356C29.7674 18.0343 29.8069 18.64 29.8095 19.2462C29.8113 19.7308 30.5637 19.732 30.5618 19.2462C30.5524 16.6912 29.7662 14.1638 28.2771 12.0833C26.82 10.0473 24.778 8.48452 22.428 7.6228C17.5922 5.85042 11.9788 7.3818 8.70412 11.3546C5.39556 15.3682 4.93786 21.1931 7.64453 25.6523C8.93234 27.7743 10.8653 29.5015 13.1306 30.5169C15.4799 31.5701 18.1144 31.8688 20.6405 31.3699C25.6357 30.3839 29.6414 26.2121 30.4107 21.1718C30.5079 20.5335 30.5599 19.8914 30.5625 19.2462C30.5643 18.7617 29.812 18.7611 29.8101 19.2462L29.8095 19.2456Z" fill="#334155"/>
<path d="M18.2103 29.8623C17.9332 29.8623 17.7087 29.6377 17.7087 29.3603C17.7087 29.0828 17.9332 28.8582 18.2103 28.8582C20.7383 28.8582 23.2129 27.832 25.0005 26.0427C26.788 24.2533 27.8131 21.7762 27.8131 19.2456C27.8131 18.9682 28.0375 18.7435 28.3147 18.7435C28.5918 18.7435 28.8163 18.9682 28.8163 19.2456C28.8163 22.0404 27.6839 24.7768 25.7102 26.7525C23.7358 28.7289 21.0022 29.8617 18.2109 29.8617L18.2103 29.8623Z" fill="#334155"/>
<path d="M8.08444 19.7265C7.80731 19.7265 7.58286 19.5018 7.58286 19.2244C7.58286 16.4296 8.71518 13.6932 10.6895 11.7175C12.6639 9.7411 15.3969 8.60763 18.1888 8.60763C18.4659 8.60763 18.6904 8.83231 18.6904 9.10972C18.6904 9.38713 18.4659 9.61181 18.1888 9.61181C15.6608 9.61181 13.1862 10.638 11.3986 12.4273C9.61113 14.2166 8.58602 16.6938 8.58602 19.2244C8.58602 19.5018 8.36156 19.7265 8.08444 19.7265Z" fill="#334155"/>
</g>
<g filter="url(#filter1_dd_2272_6606)">
<path d="M5.57318 13.54C6.44468 12.9374 7.02777 11.846 7.02777 10.5983L6.59578 2.54603C6.57948 2.23912 6.35627 2 6.08667 2C5.79513 2 5.56252 2.27866 5.57694 2.61067L5.85783 9.0682C5.85783 9.43096 5.59951 9.72531 5.28163 9.72531C4.96376 9.72531 4.70544 9.43096 4.70544 9.0682L4.565 2.61318C4.55747 2.27238 4.31295 2 4.01388 2C3.71481 2 3.47029 2.27238 3.46277 2.61318L3.32233 9.0682C3.32233 9.43096 3.06401 9.72531 2.74613 9.72531C2.42826 9.72531 2.16994 9.43096 2.16994 9.0682L2.45083 2.61067C2.46525 2.27866 2.23264 2 1.94109 2C1.67149 2 1.44829 2.23912 1.43199 2.54603L1 10.5983C1 11.8454 1.58246 12.9374 2.45459 13.54C3.022 13.9316 3.338 14.6646 3.26527 15.4165C2.77309 20.4751 2.43891 28.7339 2.43891 29.6339C2.43891 30.9406 3.14426 32 4.01388 32C4.8835 32 5.58885 30.9406 5.58885 29.6339C5.58885 28.7345 5.25467 20.4751 4.7625 15.4165C4.68914 14.6646 5.00576 13.9316 5.57318 13.54Z" fill="#334155"/>
<path d="M34.0798 17.3408V2.35206C34.0798 2.20771 33.9951 2.07905 33.8691 2.03261C33.7431 1.98679 33.6039 2.03261 33.5236 2.14809C31.8051 4.61462 30.8753 7.62466 30.8753 10.7194V16.2029C30.8753 16.8318 31.3436 17.3414 31.9217 17.3414H32.3581C31.928 22.1747 31.644 28.9347 31.644 29.7261C31.644 30.9732 32.3493 31.9843 33.2189 31.9843C34.0885 31.9843 34.7939 30.9732 34.7939 29.7261C34.7939 28.9347 34.5099 22.1734 34.0798 17.3401V17.3408ZM33.2565 14.8623C33.2565 15.0035 33.1349 15.1184 32.9838 15.1184H32.4189H32.207C31.9261 15.1184 31.6979 14.8209 31.6979 14.4544V11.2579C31.6979 9.45353 32.1499 7.69872 32.9857 6.26085C33.0246 6.1937 33.0923 6.16671 33.1537 6.19307C33.2152 6.22006 33.2565 6.29474 33.2565 6.37947V14.8623Z" fill="#334155"/>
</g>
</g>
<defs>
<filter id="filter0_dd_2272_6606" x="3.88281" y="5.89209" width="28.6797" height="28.7132" filterUnits="userSpaceOnUse" color-interpolation-filters="sRGB">
<feFlood flood-opacity="0" result="BackgroundImageFix"/>
<feColorMatrix in="SourceAlpha" type="matrix" values="0 0 0 0 0 0 0 0 0 0 0 0 0 0 0 0 0 0 127 0" result="hardAlpha"/>
<feOffset dy="1"/>
<feGaussianBlur stdDeviation="1"/>
<feComposite in2="hardAlpha" operator="out"/>
<feColorMatrix type="matrix" values="0 0 0 0 0 0 0 0 0 0 0 0 0 0 0 0 0 0 0.1 0"/>
<feBlend mode="normal" in2="BackgroundImageFix" result="effect1_dropShadow_2272_6606"/>
<feColorMatrix in="SourceAlpha" type="matrix" values="0 0 0 0 0 0 0 0 0 0 0 0 0 0 0 0 0 0 127 0" result="hardAlpha"/>
<feOffset dy="1"/>
<feGaussianBlur stdDeviation="0.5"/>
<feComposite in2="hardAlpha" operator="out"/>
<feColorMatrix type="matrix" values="0 0 0 0 0 0 0 0 0 0 0 0 0 0 0 0 0 0 0.06 0"/>
<feBlend mode="normal" in2="effect1_dropShadow_2272_6606" result="effect2_dropShadow_2272_6606"/>
<feBlend mode="normal" in="SourceGraphic" in2="effect2_dropShadow_2272_6606" result="shape"/>
</filter>
<filter id="filter1_dd_2272_6606" x="-1" y="1" width="37.7939" height="34" filterUnits="userSpaceOnUse" color-interpolation-filters="sRGB">
<feFlood flood-opacity="0" result="BackgroundImageFix"/>
<feColorMatrix in="SourceAlpha" type="matrix" values="0 0 0 0 0 0 0 0 0 0 0 0 0 0 0 0 0 0 127 0" result="hardAlpha"/>
<feOffset dy="1"/>
<feGaussianBlur stdDeviation="1"/>
<feComposite in2="hardAlpha" operator="out"/>
<feColorMatrix type="matrix" values="0 0 0 0 0 0 0 0 0 0 0 0 0 0 0 0 0 0 0.1 0"/>
<feBlend mode="normal" in2="BackgroundImageFix" result="effect1_dropShadow_2272_6606"/>
<feColorMatrix in="SourceAlpha" type="matrix" values="0 0 0 0 0 0 0 0 0 0 0 0 0 0 0 0 0 0 127 0" result="hardAlpha"/>
<feOffset dy="1"/>
<feGaussianBlur stdDeviation="0.5"/>
<feComposite in2="hardAlpha" operator="out"/>
<feColorMatrix type="matrix" values="0 0 0 0 0 0 0 0 0 0 0 0 0 0 0 0 0 0 0.06 0"/>
<feBlend mode="normal" in2="effect1_dropShadow_2272_6606" result="effect2_dropShadow_2272_6606"/>
<feBlend mode="normal" in="SourceGraphic" in2="effect2_dropShadow_2272_6606" result="shape"/>
</filter>
<clipPath id="clip0_2272_6606">
<rect width="35" height="35" fill="white"/>
</clipPath>
</defs>
</svg>
