<?xml version="1.0" encoding="utf-8"?>
<!-- Generator: Adobe Illustrator 27.9.0, SVG Export Plug-In . SVG Version: 6.00 Build 0)  -->
<svg version="1.1" id="Calque_1" xmlns="http://www.w3.org/2000/svg" xmlns:xlink="http://www.w3.org/1999/xlink" x="0px" y="0px"
	 viewBox="0 0 24 24" style="enable-background:new 0 0 24 24;" xml:space="preserve">
<style type="text/css">
	.st0{fill:#091F5A;}
</style>
<path class="st0" d="M23.6,21.6L19,17c1.4-1.8,2.2-4,2.2-6.4c0-2.8-1.1-5.5-3.1-7.5c-2-2-4.6-3.1-7.5-3.1C7.7,0,5.1,1.1,3.1,3.1
	C-1,7.2-1,13.9,3.1,18c2,2,4.6,3.1,7.5,3.1c2.3,0,4.6-0.8,6.4-2.2l4.6,4.6c0.3,0.3,0.6,0.4,1,0.4c0.4,0,0.7-0.1,1-0.4
	C24.1,23,24.1,22.1,23.6,21.6z M5.1,16c-3-3-3-7.9,0-10.9c1.5-1.5,3.4-2.3,5.5-2.3c2.1,0,4,0.8,5.5,2.3c1.5,1.5,2.3,3.4,2.3,5.5
	c0,2.1-0.8,4-2.3,5.5c-1.5,1.5-3.4,2.3-5.5,2.3C8.5,18.3,6.6,17.5,5.1,16z"/>
</svg>
