<svg width="24" height="24" viewBox="0 0 24 24" fill="none" xmlns="http://www.w3.org/2000/svg">
<path d="M20.1425 18.7302L16.8994 15.4871C17.8823 14.2004 18.4213 12.6398 18.4216 10.9929C18.4216 9.0083 17.6486 7.14233 16.245 5.73901C14.8417 4.33569 12.976 3.56274 10.9911 3.56274C9.00653 3.56274 7.14056 4.33569 5.73724 5.73901C2.84027 8.63623 2.84027 13.3501 5.73724 16.2468C7.14056 17.6504 9.00653 18.4233 10.9911 18.4233C12.638 18.4231 14.1987 17.8841 15.4853 16.9012L18.7284 20.1443C18.9235 20.3396 19.1796 20.4372 19.4355 20.4372C19.6913 20.4372 19.9474 20.3396 20.1425 20.1443C20.5331 19.7539 20.5331 19.1206 20.1425 18.7302ZM7.1513 14.8328C5.03412 12.7156 5.03436 9.2705 7.1513 7.15307C8.17694 6.12768 9.54071 5.56274 10.9911 5.56274C12.4418 5.56274 13.8054 6.12768 14.831 7.15307C15.8566 8.17871 16.4216 9.54248 16.4216 10.9929C16.4216 12.4436 15.8566 13.8071 14.831 14.8328C13.8054 15.8584 12.4418 16.4233 10.9911 16.4233C9.54071 16.4233 8.17694 15.8584 7.1513 14.8328Z" fill="#091F5A"/>
</svg>
