<svg width="13" height="20" viewBox="0 0 13 20" fill="none" xmlns="http://www.w3.org/2000/svg">
<path d="M9.30145 10.6356H9.20837C8.98213 9.45969 8.05357 8.53113 6.87762 8.30489C6.93294 7.44262 5.7091 7.44314 5.76463 8.30489C4.58869 8.53113 3.66012 9.45969 3.43389 10.6356C2.63287 10.5719 2.54454 11.7001 3.34081 11.7486H9.30149C10.0369 11.7223 10.0404 10.6635 9.30145 10.6356ZM4.57997 10.6356C5.12782 8.95069 7.51514 8.95176 8.06229 10.6356H4.57997Z" fill="#091F5A"/>
<path d="M9.30144 13.6161H3.34076C2.60504 13.6426 2.60203 14.7013 3.34076 14.7291H9.30144C10.0372 14.7026 10.0402 13.6438 9.30144 13.6161Z" fill="#091F5A"/>
<path d="M7.51326 16.0004H5.12898C4.39226 16.0274 4.39122 17.086 5.12898 17.1134H7.51322C7.82056 17.1134 8.06972 16.8643 8.06972 16.5569C8.06972 16.2496 7.82059 16.0004 7.51326 16.0004Z" fill="#091F5A"/>
<path d="M11.6857 4.67505H9.85793V1.05906C9.85793 0.866178 9.75806 0.687062 9.59401 0.585668C9.42995 0.484275 9.22505 0.475075 9.05258 0.561294L0.707654 4.73377C0.519114 4.82804 0.400024 5.02074 0.400024 5.23154V18.9411C0.400024 19.2484 0.649185 19.4976 0.956518 19.4976H11.6857C11.9931 19.4976 12.2422 19.2484 12.2422 18.9411V5.23154C12.2422 4.92417 11.9931 4.67505 11.6857 4.67505ZM8.74495 1.95947V4.67501H3.31386L8.74495 1.95947ZM11.1292 18.3846H1.51301V5.78803H11.1292V18.3846Z" fill="#091F5A"/>
</svg>
