<svg width="16" height="24" viewBox="0 0 16 24" fill="none" xmlns="http://www.w3.org/2000/svg">
<g id="menu">
<path id="Vector" d="M11.6268 12.7945H11.5104C11.2277 11.3246 10.0669 10.1639 8.59701 9.88107C8.66616 8.80323 7.13635 8.80388 7.20578 9.88107C5.73584 10.1639 4.57514 11.3246 4.29235 12.7945C3.29107 12.7149 3.18066 14.1251 4.17599 14.1857H11.6268C12.5461 14.1528 12.5505 12.8293 11.6268 12.7945ZM5.72495 12.7945C6.40976 10.6883 9.39391 10.6897 10.0778 12.7945H5.72495Z" fill="#091F5A"/>
<path id="Vector_2" d="M11.6268 16.5201H4.17592C3.25627 16.5532 3.25251 17.8767 4.17592 17.9113H11.6268C12.5464 17.8782 12.5502 16.5548 11.6268 16.5201Z" fill="#091F5A"/>
<path id="Vector_3" d="M9.39155 19.5005H6.4112C5.49029 19.5343 5.48899 20.8576 6.4112 20.8918H9.3915C9.77567 20.8918 10.0871 20.5803 10.0871 20.1962C10.0871 19.812 9.77571 19.5005 9.39155 19.5005Z" fill="#091F5A"/>
<path id="Vector_4" d="M14.6071 5.34378H12.3224V0.823793C12.3224 0.582693 12.1975 0.358796 11.9925 0.232055C11.7874 0.105314 11.5313 0.0938127 11.3157 0.201587L0.884537 5.41719C0.648862 5.53502 0.5 5.77589 0.5 6.03939V23.1763C0.5 23.5605 0.811451 23.8719 1.19562 23.8719H14.6071C14.9913 23.8719 15.3027 23.5605 15.3027 23.1763V6.03939C15.3027 5.65518 14.9913 5.34378 14.6071 5.34378ZM10.9312 1.9493V5.34373H4.1423L10.9312 1.9493ZM13.9115 22.4807H1.89123V6.73501H13.9115V22.4807Z" fill="#091F5A"/>
</g>
</svg>
