<svg width="16" height="17" viewBox="0 0 16 17" fill="none" xmlns="http://www.w3.org/2000/svg">
<path d="M4.64624 6.57733L6.064 0.58992C7.96148 0.913888 9.40959 2.55285 9.40959 4.52011V7.94059L6.06494 12.2182L4.64624 6.57733Z" fill="#FFDD99"/>
<path d="M6.06399 0.590007V12.2183C4.16392 12.2176 2.69944 10.6222 2.72059 8.78454C2.72059 7.833 2.47091 7.62998 1.80342 7.08726C1.59623 6.91879 1.36155 6.72781 1.09905 6.48437C0.40062 5.83612 0 4.92099 0 3.97439C0 2.07594 1.56217 0.531693 3.48215 0.531693H5.37525C5.60993 0.531693 5.84024 0.551748 6.06399 0.590007Z" fill="#FFF7E6"/>
<path d="M8.23519 3.34567C7.32957 3.39812 6.53802 3.87729 6.06396 4.58199L5.59766 3.05796L6.06396 1.53389C7.04739 1.75573 7.85457 2.44196 8.23519 3.34567Z" fill="#CC5F29"/>
<path d="M3.95074 1.45732V3.42519C3.41543 3.1907 2.82356 3.0605 2.2017 3.0605H1.11108C1.48139 2.12315 2.40451 1.45732 3.48199 1.45732H3.95074Z" fill="#FC6034"/>
<path d="M8.47206 4.26767V7.94085L6.06397 11.2928L5.47632 9.13687L6.06397 7.34259H6.53302V6.11521C6.53302 5.08145 7.43273 4.26671 8.47206 4.26767Z" fill="#CC5F29"/>
<path d="M6.06394 7.34264V11.2929C4.69264 11.2922 3.60368 10.1255 3.65803 8.78476C3.65803 7.39632 3.13022 6.96714 2.3996 6.37289C2.20335 6.21338 1.98117 6.03288 1.74117 5.81011C1.22555 5.33187 0.940557 4.68456 0.937744 3.98633H2.20179C4.07302 3.98633 5.5955 5.49201 5.5955 7.34264H6.06394Z" fill="#FC6034"/>
<path d="M6.06404 1.53381V4.58191C5.97373 4.71551 5.8956 4.85713 5.82998 5.00554C5.57311 4.6177 5.25467 4.27306 4.88843 3.98612V1.45732H5.3753C5.61217 1.45732 5.84248 1.48382 6.06404 1.53381Z" fill="#FC6034"/>
<path d="M10.3447 10.7481L10.8421 6.64418C11.1768 6.70342 11.4821 6.84843 11.7337 7.05577C11.9268 6.98481 12.1349 6.94316 12.3524 6.93729C13.2199 6.91415 13.969 7.46274 14.2296 8.23687C14.2618 8.3319 14.3175 8.5529 14.334 8.65441L11.9644 11.427L10.3447 10.7481Z" fill="#FFDD99"/>
<path d="M8.62158 7.73235C8.97264 6.98398 9.85457 6.63083 10.4505 6.61509C10.5846 6.61139 10.7158 6.62157 10.8424 6.6441V10.6943L8.62158 7.73235Z" fill="#FFF7E6"/>
<path d="M10.249 11.5056L10.8422 9.75008C11.2494 9.98704 11.7747 10.5616 12.0203 10.9778L10.249 11.5056Z" fill="#19803C"/>
<path d="M15.9996 11.2293C15.9996 14.046 13.6906 16.3292 10.8422 16.3292L10.1985 13.9583L10.8422 11.2676C11.1331 11.0349 11.4703 10.8566 11.8384 10.748C11.894 10.732 11.9503 10.7171 12.0072 10.7039C12.2256 9.77795 12.8956 9.02387 13.7753 8.6817C14.228 8.50688 14.7216 8.44622 15.2034 8.50583C15.7077 9.29385 15.9996 10.2278 15.9996 11.2293Z" fill="#1F991F"/>
<path d="M10.135 13.0194L7.30225 11.5321V7.33406C9.01698 7.48355 9.91443 8.39461 10.1746 9.47564C10.4108 9.53611 10.6349 9.62929 10.8424 9.75024V11.2676L10.135 13.0194Z" fill="#1F991F"/>
<path d="M7.67729 15.2563C6.46481 14.3232 5.68481 12.8663 5.68481 11.2292C5.68481 10.4171 5.87669 9.64946 6.21825 8.9679H6.21856C6.9123 9.15888 7.50136 9.59794 7.88198 10.1823C8.05947 10.4548 8.19197 10.7584 8.26853 11.0836C9.00103 11.2523 9.68655 11.7611 10.0903 12.3621L10.1986 13.9582L7.67729 15.2563Z" fill="#19803C"/>
<path d="M10.8422 11.2676V16.3292C9.6491 16.3292 8.55099 15.9287 7.67725 15.2564C7.81193 14.1851 8.54224 13.2968 9.53035 12.9254C9.63191 12.8871 9.73628 12.8544 9.84316 12.8276C9.88816 12.6431 9.95097 12.4656 10.03 12.2969L10.0307 12.2963V12.2959C10.2188 11.8942 10.4982 11.5428 10.8422 11.2676Z" fill="#44CC29"/>
</svg>
