<?xml version="1.0" encoding="iso-8859-1"?>
<!-- Generator: Adobe Illustrator 19.0.0, SVG Export Plug-In . SVG Version: 6.00 Build 0)  -->
<svg version="1.1" id="Capa_1" xmlns="http://www.w3.org/2000/svg" xmlns:xlink="http://www.w3.org/1999/xlink" x="0px" y="0px"
	 viewBox="0 0 512 512" style="enable-background:new 0 0 512 512;" xml:space="preserve">
<circle style="fill:#C95757;" cx="256" cy="256" r="256"/>
<path style="fill:#A53D3D;" d="M437.019,74.981c-23.852-23.852-51.245-41.999-80.481-54.47
	c39.799,93.306,21.652,205.435-54.47,281.557s-188.252,94.269-281.557,54.47c12.471,29.237,30.618,56.629,54.47,80.481
	c99.974,99.974,262.065,99.974,362.039,0S536.994,174.955,437.019,74.981z"/>
<circle style="fill:#FFE4CC;" cx="256" cy="256" r="247.15"/>
<path style="fill:#FFD8C7;" d="M430.759,81.235c-20.798-20.798-44.385-37.103-69.553-48.938
	c33.5,90.824,13.8,196.828-59.143,269.771s-178.947,92.643-269.771,59.143c11.835,25.168,28.14,48.755,48.939,69.553
	c96.52,96.52,253.009,96.52,349.529,0S527.279,177.755,430.759,81.235z"/>
<circle style="fill:#FFF0E3;" cx="256" cy="256" r="187.32"/>
<path style="fill:#FFE8DE;" d="M388.453,123.547c-3.739-3.739-7.602-7.275-11.566-10.632c2.163,68.2-22.768,137.096-74.825,189.153
	c-52.055,52.055-120.946,76.986-189.143,74.825c3.355,3.962,6.89,7.823,10.627,11.56c73.152,73.152,191.755,73.152,264.906,0
	S461.605,196.699,388.453,123.547z"/>
<path style="fill:#77848A;" d="M200.118,226.72l-24.367,3.112c5.578-16.668,13.152-35.668,23.547-55.925
	c9.66-18.825,19.842-35.004,29.434-48.566c5.1-2.24,17.123-6.683,32.377-4.415c11.283,1.677,19.502,6.309,23.959,9.289"/>
<path style="fill:#FFC1AD;" d="M437.191,87.938L404.3,96.474c-9.431,2.448-18.698,5.342-27.778,8.654
	c4.388,70.715-20.419,142.9-74.459,196.94c-48.068,48.068-110.494,73.01-173.471,74.848c-0.657,0.575-1.309,1.155-1.975,1.721
	l-2.933,2.493l-21.666,3.756c-16.156,2.8-31.579,8.625-45.496,17.095c7.378,10.061,15.614,19.689,24.709,28.784
	c18.077,18.077,38.258,32.768,59.755,44.074c3.846-10.088,6.936-20.462,9.223-31.042l5.117-23.666L262.8,378.309
	c20.479-8.155,42.108-18.974,63.787-33.43c87.827-58.566,129.35-145.402,148.847-202.716
	C465.408,122.851,452.657,104.591,437.191,87.938z"/>
<path style="fill:#FFCFC2;" d="M388.453,123.547c-3.739-3.739-7.602-7.275-11.566-10.632c0.015,0.473,0.012,0.938,0.02,1.408
	c1.779,67.739-23.145,136.046-74.845,187.745c-48.068,48.068-110.494,73.01-173.471,74.848c-0.657,0.575-1.309,1.155-1.975,1.721
	l-2.933,2.493l-6.106,1.058c1.933,2.122,3.918,4.214,5.969,6.265c11.609,11.609,24.367,21.369,37.902,29.294L262.8,378.309
	c20.479-8.155,42.108-18.974,63.787-33.43c52.804-35.211,88.865-80.641,113.47-123.73
	C433.319,185.392,416.124,151.217,388.453,123.547z"/>
<path style="fill:#A5B9C0;" d="M458.765,82.764l4.805-13.133c1.513-4.136-2.239-8.27-6.502-7.164L390.14,79.838
	c-74.406,19.311-138.713,66.134-179.939,131.015l-22.95,36.119c-1.779,2.799-3.432,5.677-4.954,8.623l-27.373,52.98
	c-10.542,20.404-24.967,38.552-42.466,53.426l-2.933,2.493l-21.666,3.756c-21.98,3.81-42.614,13.198-59.928,27.265l-9.681,7.866
	c-4.788,3.89-3.421,11.529,2.418,13.518l21.955,7.479c19.839,6.758,35.238,22.613,41.414,42.64l10.1,32.75
	c1.631,5.289,8.812,6.03,11.489,1.186l8.531-15.437c10.103-18.281,17.478-37.941,21.892-58.355l5.117-23.666l107.475-41.821
	c20.479-8.155,42.108-18.974,63.787-33.43c107.316-71.561,145.507-185.344,158.841-235.884c1.513-3.131-1.433-6.561-4.757-5.538
	l-3.016,0.928C460.465,88.681,457.676,85.742,458.765,82.764z"/>
<path style="fill:#FFFFFF;stroke:#000000;stroke-width:15;stroke-linecap:round;stroke-linejoin:round;stroke-miterlimit:10;" d="
	M201.138,380.157l-11.406,29.223c6.293-0.111,14.098-0.816,22.811-2.943c12.322-3.008,21.988-7.767,28.698-11.774
	c5.215-6.673,8.37-12.642,10.302-16.925c0,0,1.651-3.66,7.215-20.203l0,0"/>
<circle cx="406.94" cy="110.06" r="7.805"/>
<g>
	<path style="fill:#B7CACE;" d="M402.266,184.99c-0.526,0-1.06-0.053-1.596-0.165c-9.281-1.928-22.905-6.742-35.102-18.725
		c-13.761-13.52-18.371-29.26-19.894-37.44c-0.789-4.238,2.006-8.313,6.244-9.102c4.243-0.787,8.313,2.007,9.102,6.244
		c1.187,6.374,4.778,18.64,15.488,29.162c9.992,9.817,21.417,13.346,27.337,14.576c4.221,0.877,6.931,5.009,6.054,9.229
		C409.134,182.456,405.887,184.99,402.266,184.99z"/>
	<path style="fill:#B7CACE;" d="M386.483,218.291c-0.526,0-1.06-0.053-1.596-0.165c-12.034-2.5-29.697-8.741-45.509-24.275
		c-17.84-17.527-23.817-37.935-25.791-48.54c-0.789-4.238,2.007-8.313,6.244-9.102c4.242-0.788,8.313,2.006,9.102,6.244
		c1.639,8.8,6.596,25.733,21.385,40.262c13.798,13.556,29.57,18.428,37.744,20.127c4.221,0.877,6.931,5.009,6.054,9.229
		C393.351,215.757,390.104,218.291,386.483,218.291z"/>
</g>
<path style="fill:#FFC82C;" d="M340.246,281.961c0,54.025-43.796,97.821-97.821,97.821s-97.821-43.796-97.821-97.821
	c0-14.335,3.084-27.951,8.624-40.218c15.339-33.965,49.508-57.603,89.197-57.603C296.45,184.14,340.246,227.936,340.246,281.961z"/>
<path style="fill:#FFE5C2;" d="M242.425,199.308c-45.648,0-82.653,37.005-82.653,82.653s37.005,82.653,82.653,82.653
	s82.653-37.005,82.653-82.653S288.073,199.308,242.425,199.308z M306.459,274.156h-44.403l32.288-30.494
	C300.8,252.4,305.091,262.827,306.459,274.156z M234.62,345.995c-12.612-1.522-24.106-6.667-33.397-14.386l33.397-31.541V345.995z
	 M206.862,228.132c8.146-5.393,17.587-8.977,27.758-10.205v42.82L206.862,228.132z M250.23,303.175l27.758,32.616
	c-8.147,5.393-17.588,8.977-27.758,10.205L250.23,303.175L250.23,303.175z M250.23,217.928c12.612,1.522,24.106,6.667,33.397,14.386
	l-33.397,31.541L250.23,217.928L250.23,217.928z M194.977,238.253l30.556,35.904h-47.142
	C180.053,260.383,186.043,247.946,194.977,238.253z M178.391,289.766h44.403l-32.288,30.494
	C184.049,311.522,179.758,301.096,178.391,289.766z M289.873,325.67l-30.556-35.904h47.142
	C304.797,303.54,298.807,315.976,289.873,325.67z"/>
<path style="fill:#F9B52B;" d="M178.992,222.558c-5.099,0-10.119,0.342-15.04,0.993c-12.153,16.301-19.348,36.515-19.348,58.411
	c0,54.025,43.796,97.821,97.821,97.821c16.395,0,31.844-4.039,45.417-11.168c3.067-10.293,4.723-21.195,4.723-32.485
	C292.564,273.406,241.716,222.558,178.992,222.558z"/>
<path style="fill:#F4D5B8;" d="M259.316,289.766h23.379c-2.438-5.444-5.294-10.66-8.524-15.61h-12.116l7.267-6.863
	c-3.165-4.147-6.606-8.072-10.301-11.742l-8.792,8.304v-16.172c-4.887-3.941-10.105-7.485-15.61-10.583v23.648l-27.758-32.615
	c0.783-0.519,1.589-1.005,2.396-1.49c-7.836-2.161-16.009-3.511-24.427-3.937c-15.449,15.018-25.06,36.009-25.06,59.256
	c0,45.648,37.005,82.653,82.653,82.653c18.569,0,35.707-6.125,49.506-16.462c0.416-3.951,0.633-7.961,0.633-12.023
	c0-4.301-0.247-8.544-0.713-12.721c-0.644,0.767-1.3,1.525-1.978,2.261L259.316,289.766z M194.977,238.253l30.556,35.904h-47.142
	C180.053,260.383,186.043,247.946,194.977,238.253z M178.391,289.766h44.403l-32.288,30.494
	C184.049,311.522,179.758,301.096,178.391,289.766z M234.62,345.995c-12.612-1.522-24.106-6.667-33.397-14.386l33.397-31.541
	V345.995z M250.23,345.995v-42.82l27.758,32.616C269.841,341.183,260.4,344.768,250.23,345.995z"/>
<circle style="fill:#FFC82C;" cx="178.99" cy="336.13" r="97.82"/>
<path style="fill:#FFE5C2;" d="M178.992,253.477c-45.648,0-82.653,37.005-82.653,82.653s37.005,82.653,82.653,82.653
	s82.653-37.005,82.653-82.653C261.645,290.482,224.64,253.477,178.992,253.477z M243.026,328.325h-44.403l32.288-30.494
	C237.367,306.569,241.659,316.995,243.026,328.325z M171.187,400.164c-12.612-1.522-24.106-6.667-33.397-14.386l33.397-31.541
	V400.164z M143.429,282.301c8.146-5.393,17.587-8.977,27.758-10.205v42.82L143.429,282.301z M186.797,357.343l27.758,32.616
	c-8.147,5.393-17.588,8.977-27.758,10.205V357.343z M186.797,272.096c12.612,1.522,24.106,6.667,33.397,14.386l-33.397,31.541
	V272.096z M131.544,292.421l30.556,35.904h-47.142C116.62,314.551,122.61,302.115,131.544,292.421z M114.958,343.935h44.403
	l-32.288,30.494C120.616,365.691,116.325,355.265,114.958,343.935z M226.44,379.838l-30.556-35.904h47.142
	C241.364,357.708,235.374,370.145,226.44,379.838z"/>
<g>
</g>
<g>
</g>
<g>
</g>
<g>
</g>
<g>
</g>
<g>
</g>
<g>
</g>
<g>
</g>
<g>
</g>
<g>
</g>
<g>
</g>
<g>
</g>
<g>
</g>
<g>
</g>
<g>
</g>
</svg>
