<svg width="15" height="13" viewBox="0 0 15 13" fill="none" xmlns="http://www.w3.org/2000/svg">
<path d="M11.194 0.591644H8.07068C7.9607 0.591644 7.87158 0.680765 7.87158 0.790746V4.85862C7.94764 4.95582 7.9999 5.07225 8.0176 5.19881C8.01801 5.20162 8.01836 5.20444 8.01871 5.20725C8.03898 5.36563 8.17334 5.47731 8.33289 5.47057C8.37273 5.46887 8.4134 5.47045 8.45471 5.47549C8.7799 5.51534 9.04328 5.78205 9.07955 6.10766C9.10422 6.3292 9.02799 6.53305 8.89141 6.68012H8.96312C9.25076 6.26071 9.73328 5.98549 10.2802 5.98549C10.6092 5.98549 10.9148 6.0851 11.1689 6.25567C11.2264 6.14106 11.3027 6.03688 11.3932 5.94641V0.790746C11.3931 0.680765 11.304 0.591644 11.194 0.591644V0.591644Z" fill="#EDF4FC"/>
<path d="M9.07955 6.10766C9.04328 5.78205 8.7799 5.51533 8.45471 5.47549C8.41346 5.47045 8.37273 5.46887 8.33289 5.47057C8.17334 5.4773 8.03904 5.36557 8.01871 5.20725C8.01836 5.20443 8.01795 5.20162 8.0176 5.19881C7.97301 4.87936 7.71051 4.62201 7.39012 4.58498C7.34992 4.58035 7.31025 4.579 7.27146 4.58076C7.11338 4.58785 6.97914 4.47787 6.95975 4.32084C6.95676 4.29664 6.9526 4.27232 6.94709 4.24777C6.88568 3.97338 6.66092 3.75523 6.38459 3.70326C6.144 3.65803 5.92 3.73262 5.76098 3.87746C5.65129 3.97748 5.48242 3.97748 5.37273 3.87746C5.21371 3.73256 4.98971 3.65803 4.74912 3.70326C4.47279 3.75518 4.24803 3.97338 4.18662 4.24777C4.18111 4.27232 4.17689 4.2967 4.17396 4.32084C4.15457 4.47787 4.02033 4.58785 3.86225 4.58076C3.82346 4.579 3.78379 4.58035 3.74359 4.58498C3.4232 4.62207 3.1607 4.87941 3.11611 5.19881C3.1157 5.20162 3.11535 5.20443 3.11494 5.20725C3.09467 5.36562 2.96031 5.4773 2.80076 5.47057C2.76092 5.46887 2.72025 5.47045 2.67895 5.47549C2.66998 5.4766 2.66119 5.47853 2.65234 5.47994L3.42291 6.25051C3.36525 5.96996 3.42824 5.66855 3.61832 5.43084C3.66707 5.3699 3.75807 5.36463 3.8132 5.41982L5.02768 6.6343C5.04121 6.64777 5.05094 6.66348 5.05732 6.68018H8.89146C9.02799 6.53305 9.10422 6.32914 9.07955 6.10766V6.10766Z" fill="#FC657E"/>
<path d="M2.51176 3.70584C2.48117 3.65474 2.42164 3.62644 2.3627 3.635C2.13606 3.66793 1.92957 3.80937 1.82393 4.03173C1.71828 4.2541 1.73902 4.50347 1.85668 4.7C1.88727 4.75115 1.9468 4.77939 2.00574 4.77084C2.23238 4.73791 2.43887 4.59646 2.54451 4.3741C2.65016 4.15173 2.62942 3.90236 2.51176 3.70584V3.70584Z" fill="#B2E26D"/>
<path d="M9.07955 6.10766C9.04328 5.78205 8.7799 5.51533 8.45471 5.47549C8.41346 5.47045 8.37273 5.46887 8.33289 5.47057C8.17334 5.4773 8.03904 5.36557 8.01871 5.20725C8.01836 5.20443 8.01795 5.20162 8.0176 5.19881C7.97301 4.87936 7.71051 4.62201 7.39012 4.58498C7.34992 4.58035 7.31025 4.579 7.27146 4.58076C7.11338 4.58785 6.97914 4.47787 6.95975 4.32084C6.95676 4.29664 6.9526 4.27232 6.94709 4.24777C6.88568 3.97338 6.66092 3.75523 6.38459 3.70326C6.144 3.65803 5.92 3.73262 5.76098 3.87746C5.65129 3.97748 5.48242 3.97748 5.37273 3.87746C5.21371 3.73256 4.98971 3.65803 4.74912 3.70326C4.47279 3.75518 4.24803 3.97338 4.18662 4.24777C4.18111 4.27232 4.17689 4.2967 4.17396 4.32084C4.15457 4.47787 4.02033 4.58785 3.86225 4.58076C3.82346 4.579 3.78379 4.58035 3.74359 4.58498C3.4232 4.62207 3.1607 4.87941 3.11611 5.19881C3.1157 5.20162 3.11535 5.20443 3.11494 5.20725C3.09467 5.36562 2.96031 5.4773 2.80076 5.47057C2.76092 5.46887 2.72025 5.47045 2.67895 5.47549C2.66998 5.4766 2.66119 5.47853 2.65234 5.47994L3.42291 6.25051C3.36525 5.96996 3.42824 5.66855 3.61832 5.43084C3.66707 5.3699 3.75807 5.36463 3.8132 5.41982L5.02768 6.6343C5.04121 6.64777 5.05094 6.66348 5.05732 6.68018H8.89146C9.02799 6.53305 9.10422 6.32914 9.07955 6.10766V6.10766Z" fill="#B2E26D"/>
<path d="M7.87158 1.84596V4.85862C7.94764 4.95583 7.9999 5.07225 8.0176 5.19881C8.01801 5.20163 8.01836 5.20444 8.01871 5.20725C8.03898 5.36563 8.17334 5.47731 8.33289 5.47057C8.37273 5.46887 8.4134 5.47045 8.45471 5.47549C8.7799 5.51534 9.04328 5.78206 9.07955 6.10766C9.10422 6.3292 9.02799 6.53305 8.89141 6.68012H8.96312C9.25076 6.26071 9.73328 5.98549 10.2802 5.98549C10.6092 5.98549 10.9148 6.0851 11.1689 6.25567C11.2264 6.14106 11.3027 6.03688 11.3932 5.94641V1.84596H7.87158Z" fill="#9BE5F9"/>
<path d="M13.9679 4.08659C13.7304 3.98838 13.4502 4.00643 13.2208 4.16035C12.9914 4.31428 12.8684 4.56676 12.8691 4.82369C12.8694 4.89055 12.9105 4.95196 12.9723 4.9775C13.2098 5.07571 13.4901 5.05766 13.7195 4.90373C13.9489 4.74981 14.0718 4.49739 14.0711 4.24039C14.0709 4.17354 14.0297 4.11213 13.9679 4.08659Z" fill="#B2E26D"/>
<path d="M10.28 5.98549C9.39845 5.98549 8.68384 6.7001 8.68384 7.58164C8.68384 8.46318 9.39845 9.17779 10.28 9.17779C10.3341 9.17779 10.3876 9.17504 10.4403 9.16977L11.529 8.25945C11.6039 8.19688 11.6889 8.1568 11.7768 8.13664C11.8409 7.96379 11.8761 7.77682 11.8761 7.58164C11.8761 6.7001 11.1615 5.98549 10.28 5.98549V5.98549Z" fill="#F5C84C"/>
<path d="M13.6611 5.59566C13.5482 5.59566 13.441 5.61956 13.3442 5.66257C13.095 5.77325 12.804 5.77325 12.5547 5.66257C12.4579 5.61956 12.3507 5.59566 12.2379 5.59566C11.767 5.59566 11.3632 5.86859 11.1689 6.25566C11.5956 6.54218 11.8764 7.02904 11.8764 7.58158C11.8764 7.77687 11.8411 7.96372 11.7768 8.13663C12.0214 8.0805 12.2888 8.18304 12.4245 8.418L12.5149 8.57462L12.7315 8.44958C12.86 8.37534 12.9045 8.20947 12.8303 8.08091L12.8287 8.07827C12.6885 7.83535 12.7859 7.5204 13.0488 7.40269C13.2371 7.31837 13.4649 7.36818 13.6008 7.52357C13.6207 7.54636 13.638 7.57027 13.6526 7.59488C13.7071 7.68628 13.8096 7.73937 13.9144 7.72097C14.1055 7.68745 14.3071 7.77312 14.4108 7.95271C14.421 7.97029 14.4288 7.98845 14.4365 8.00661L14.7569 7.24232C15.0999 6.42429 14.482 5.59566 13.6611 5.59566Z" fill="#FC657E"/>
<path d="M8.68401 7.58164C8.68401 7.24707 8.78714 6.9367 8.96309 6.68018H0.35696C0.214226 6.68018 0.112976 6.81928 0.156804 6.9551L0.588054 8.29174C0.758445 8.81984 1.25005 9.17779 1.80499 9.17779H9.04823C9.25483 9.17779 9.45253 9.12805 9.62825 9.03852C9.07184 8.78914 8.68401 8.23086 8.68401 7.58164Z" fill="#EDF4FC"/>
<path d="M5.0276 6.63424L3.81313 5.41977C3.75799 5.36457 3.66693 5.3699 3.61824 5.43078C3.32375 5.79916 3.33236 6.32076 3.62668 6.68006H5.05725C5.05086 6.66348 5.04107 6.64777 5.0276 6.63424Z" fill="#F5C84C"/>
<path d="M3.42268 6.25051L2.59199 5.41983C2.53686 5.36463 2.4458 5.36996 2.39705 5.43084C2.10256 5.79922 2.11117 6.32082 2.40549 6.68012H3.62705C3.52281 6.55256 3.45437 6.40479 3.42268 6.25051V6.25051Z" fill="#F5C84C"/>
<path d="M2.20173 6.25051L1.37104 5.41983C1.31585 5.36463 1.22485 5.36996 1.1761 5.43084C0.881611 5.79922 0.890225 6.32082 1.18454 6.68012H2.4061C2.30181 6.55256 2.23343 6.40479 2.20173 6.25051V6.25051Z" fill="#F5C84C"/>
<path d="M6.94129 5.62561C6.55223 5.62561 6.23682 5.94102 6.23682 6.33002C6.23682 6.45758 6.27121 6.57688 6.33051 6.68012H7.55201C7.61131 6.57694 7.6457 6.45758 7.6457 6.33002C7.6457 5.94102 7.33029 5.62561 6.94129 5.62561V5.62561Z" fill="#F98FA6"/>
<path d="M6.3712 5.91764C6.24317 5.74098 6.03581 5.62561 5.80091 5.62561C5.41185 5.62561 5.09644 5.94102 5.09644 6.33002C5.09644 6.45758 5.13083 6.57688 5.19013 6.68012H6.3313C6.27177 6.57694 6.23696 6.45776 6.23696 6.33002C6.23702 6.17586 6.28712 6.03366 6.3712 5.91764V5.91764Z" fill="#FC657E"/>
<path d="M13.0146 9.44036L12.4244 8.41807C12.24 8.09867 11.8121 8.02285 11.5292 8.2594L8.49519 10.7962C8.06294 11.1577 8.46132 11.8477 8.99042 11.654L12.7043 10.2949C13.0507 10.1682 13.199 9.75975 13.0146 9.44036V9.44036Z" fill="#FCA265"/>
<path d="M14.3427 8.79072C14.2909 8.69667 14.2943 8.58077 14.3632 8.49839C14.4876 8.34962 14.5142 8.13236 14.4106 7.95277C14.3069 7.77318 14.1053 7.68751 13.9142 7.72103C13.8093 7.73943 13.7069 7.68628 13.6524 7.59488C13.6377 7.57027 13.6204 7.54636 13.6005 7.52357C13.4647 7.36818 13.2369 7.31837 13.0486 7.40269C12.7856 7.5204 12.6882 7.83534 12.8285 8.07827L12.83 8.08091C12.9042 8.20947 12.8598 8.3754 12.7312 8.44958L12.5146 8.57462L12.924 9.28372L13.155 9.15042C13.2761 9.08046 13.4311 9.122 13.501 9.24312C13.6092 9.43068 13.827 9.53521 14.0376 9.48476C14.3493 9.41011 14.4864 9.0545 14.3438 8.79277L14.3427 8.79072Z" fill="#B2E26D"/>
<path d="M12.4187 4.47161C12.3501 4.42878 12.2598 4.44952 12.2168 4.51819C12.174 4.5868 12.1948 4.67721 12.2634 4.72004C12.2687 4.72333 12.79 5.05585 12.79 5.63774C12.79 5.71866 12.8556 5.78422 12.9365 5.78422C13.0174 5.78422 13.083 5.71866 13.083 5.63774C13.083 4.89524 12.4458 4.48854 12.4187 4.47161Z" fill="black"/>
<path d="M11.194 0.44516H8.07068C7.88014 0.44516 7.7251 0.600199 7.7251 0.790687V4.85856C7.7251 4.89131 7.73611 4.92313 7.75621 4.94885C7.81873 5.02871 7.85898 5.12217 7.87252 5.21897C7.87252 5.21914 7.8734 5.22565 7.87346 5.22582C7.90328 5.45862 8.1035 5.62748 8.33893 5.61688C8.37168 5.61559 8.40432 5.61688 8.43684 5.6208C8.696 5.65256 8.905 5.86409 8.93395 6.12377C8.95281 6.29375 8.89961 6.45588 8.78395 6.58039C8.74428 6.62311 8.73373 6.68522 8.75699 6.7386C8.78025 6.79204 8.83305 6.82655 8.89129 6.82655H8.96301C9.01129 6.82655 9.05652 6.80276 9.08383 6.76291C9.35482 6.36782 9.80207 6.13186 10.2801 6.13186C10.5691 6.13186 10.8481 6.2167 11.0871 6.37719C11.1221 6.40063 11.1654 6.40784 11.206 6.39729C11.2467 6.38657 11.2808 6.35891 11.2997 6.32135C11.3496 6.22192 11.4158 6.13063 11.4965 6.05C11.5241 6.02252 11.5395 5.98532 11.5395 5.94635V0.790746C11.5396 0.600199 11.3846 0.44516 11.194 0.44516V0.44516ZM11.2466 5.8877C11.1989 5.93973 11.1558 5.99498 11.1173 6.05299C10.8616 5.9126 10.575 5.83901 10.2801 5.83901C9.89635 5.83901 9.52914 5.96539 9.23049 6.1908C9.23061 6.15782 9.22885 6.12465 9.2251 6.09149C9.18133 5.69844 8.8648 5.37823 8.4724 5.33012C8.43619 5.32573 8.39969 5.3235 8.36342 5.3235C8.35117 5.3235 8.33893 5.32373 8.32674 5.32426C8.24184 5.32772 8.17451 5.27071 8.16414 5.1895L8.16268 5.17854C8.14439 5.04764 8.09471 4.92143 8.01807 4.81063V0.790746C8.01807 0.761742 8.04168 0.738187 8.07068 0.738187H11.194C11.223 0.738187 11.2466 0.761742 11.2466 0.790746V5.8877Z" fill="black"/>
<path d="M11.1361 9.39822L10.8908 8.97336C10.8503 8.90328 10.7606 8.87932 10.6907 8.91975C10.6207 8.96018 10.5966 9.04982 10.6371 9.11984L10.8824 9.54471C10.9095 9.5917 10.9588 9.61795 11.0094 9.61795C11.0343 9.61795 11.0594 9.61168 11.0825 9.59832C11.1525 9.55789 11.1765 9.46824 11.1361 9.39822Z" fill="black"/>
<path d="M12.2056 9.42828L12.1005 9.24623C12.0601 9.17615 11.9704 9.15219 11.9004 9.19262C11.8304 9.23305 11.8064 9.32264 11.8468 9.39272L11.9519 9.57477C11.979 9.62176 12.0283 9.64801 12.0789 9.64801C12.1038 9.64801 12.1289 9.64174 12.152 9.62838C12.222 9.58789 12.246 9.49836 12.2056 9.42828Z" fill="black"/>
<path d="M10.011 10.5334L9.90591 10.3514C9.86548 10.2813 9.77572 10.2573 9.70581 10.2978C9.63579 10.3382 9.61177 10.4278 9.6522 10.4978L9.75732 10.6799C9.78445 10.7269 9.83372 10.7531 9.88429 10.7531C9.90919 10.7531 9.93433 10.7469 9.95742 10.7335C10.0274 10.6931 10.0515 10.6035 10.011 10.5334Z" fill="black"/>
<path d="M11.029 10.7549L10.8188 10.3907C10.7783 10.3205 10.6886 10.2966 10.6187 10.3371C10.5486 10.3775 10.5246 10.4671 10.565 10.5372L10.7753 10.9014C10.8024 10.9484 10.8517 10.9746 10.9022 10.9746C10.9272 10.9746 10.9523 10.9684 10.9754 10.955C11.0455 10.9146 11.0695 10.825 11.029 10.7549Z" fill="black"/>
<path d="M6.86748 10.833H6.72686V10.6982C6.72686 10.5928 6.64483 10.5107 6.53936 10.5107C6.43975 10.5107 6.35186 10.5928 6.35186 10.6924V10.833H6.21709C6.11162 10.833 6.02959 10.915 6.02959 11.0205C6.02373 11.1201 6.10576 11.208 6.21709 11.208H6.35186V11.3428C6.35186 11.4482 6.43389 11.5303 6.53936 11.5303C6.63897 11.5303 6.72686 11.4482 6.72686 11.3486V11.208H6.86162C6.96709 11.208 7.04912 11.126 7.04912 11.0205C7.04912 10.9209 6.96709 10.833 6.86748 10.833Z" fill="#70D6F9"/>
<path d="M7.47095 12.6025C7.58097 12.6025 7.67017 12.5133 7.67017 12.4033C7.67017 12.2933 7.58097 12.2041 7.47095 12.2041C7.36092 12.2041 7.27173 12.2933 7.27173 12.4033C7.27173 12.5133 7.36092 12.6025 7.47095 12.6025Z" fill="#F5C84C"/>
<path d="M6.24048 0.795898C6.3505 0.795898 6.4397 0.706705 6.4397 0.59668C6.4397 0.486654 6.3505 0.397461 6.24048 0.397461C6.13045 0.397461 6.04126 0.486654 6.04126 0.59668C6.04126 0.706705 6.13045 0.795898 6.24048 0.795898Z" fill="#FC657E"/>
<path d="M13.0247 2.87012C12.843 2.83496 12.6965 2.69434 12.6614 2.5127C12.6614 2.50684 12.6438 2.50684 12.6438 2.5127C12.6086 2.69434 12.4622 2.83496 12.2805 2.87012C12.2747 2.87012 12.2747 2.88184 12.2805 2.8877C12.4622 2.92285 12.6086 3.06348 12.6438 3.24512C12.6438 3.25098 12.6614 3.25098 12.6614 3.24512C12.6965 3.06348 12.843 2.92285 13.0247 2.8877C13.0305 2.88184 13.0305 2.87012 13.0247 2.87012Z" fill="#87D147"/>
<path d="M5.40747 1.81543C5.1438 1.76855 4.93872 1.56348 4.88599 1.30566C4.88599 1.29395 4.86255 1.29395 4.86255 1.30566C4.80981 1.56348 4.60474 1.76855 4.34106 1.81543C4.32935 1.81543 4.32935 1.83301 4.34106 1.83887C4.60474 1.88574 4.80981 2.09082 4.86255 2.34863C4.86255 2.36035 4.88599 2.36035 4.88599 2.34863C4.93872 2.09082 5.1438 1.88574 5.40747 1.83887C5.41919 1.83301 5.41919 1.81543 5.40747 1.81543V1.81543Z" fill="#F5C84C"/>
<path d="M9.22506 6.09142C9.18129 5.69837 8.86477 5.37816 8.47237 5.33005C8.42391 5.32413 8.37499 5.32208 8.3267 5.32413C8.2418 5.32759 8.17448 5.27058 8.16411 5.18937L8.16264 5.17841C8.10903 4.79462 7.79122 4.48384 7.4069 4.43937C7.35926 4.43386 7.31139 4.4321 7.26487 4.43433C7.18401 4.4379 7.11493 4.38271 7.10508 4.30279C7.10145 4.27361 7.09641 4.24431 7.08997 4.2156C7.01596 3.88536 6.74338 3.62152 6.41157 3.55917C6.13829 3.50784 5.86512 3.58431 5.66227 3.76911C5.60866 3.81786 5.52481 3.8178 5.47131 3.76911C5.26852 3.58431 4.99536 3.50784 4.72196 3.55917C4.39014 3.62157 4.11751 3.88536 4.04362 4.21566C4.03729 4.24396 4.03219 4.2732 4.02844 4.30279C4.0186 4.38271 3.95063 4.43679 3.86883 4.43433C3.82196 4.43204 3.77426 4.43392 3.72663 4.43937C3.34231 4.48384 3.02456 4.79462 2.971 5.17794L2.96959 5.18849C2.95905 5.27052 2.89213 5.32724 2.80682 5.32407C2.75866 5.32197 2.70961 5.32407 2.66133 5.32999C2.65278 5.33105 2.64422 5.33245 2.63573 5.33404L2.62899 5.33527C2.57467 5.344 2.52991 5.38249 2.51297 5.43476C2.49604 5.48714 2.50987 5.5445 2.54877 5.58341L3.31928 6.35392C3.36493 6.39968 3.43524 6.40999 3.49231 6.37935C3.54926 6.3487 3.57932 6.28425 3.56637 6.22091C3.51657 5.97845 3.57329 5.72984 3.72206 5.53577L4.92159 6.73531C4.94403 6.79038 4.99758 6.82659 5.05723 6.82659H8.89137C8.9321 6.82659 8.97094 6.80966 8.99872 6.77978C9.17069 6.59462 9.25319 6.34372 9.22506 6.09142ZM8.82323 6.53363H5.13411C5.13311 6.53263 5.13211 6.53163 5.13112 6.53064L3.91665 5.31616C3.86104 5.26044 3.78463 5.2312 3.70524 5.23542C3.62643 5.23982 3.55301 5.27773 3.50379 5.33925C3.37559 5.4995 3.29508 5.68876 3.2669 5.88734L2.96965 5.59009C3.12311 5.53437 3.23807 5.39767 3.2601 5.22575C3.26016 5.22546 3.26104 5.21919 3.26104 5.2189C3.29649 4.96519 3.50643 4.7597 3.76026 4.73034C3.79237 4.72671 3.82454 4.72577 3.85559 4.72689C4.0909 4.73861 4.29071 4.5705 4.31918 4.33888C4.32165 4.31925 4.32504 4.29945 4.3295 4.27952C4.37819 4.06185 4.55772 3.88806 4.7761 3.84698C4.95803 3.81277 5.13979 3.86321 5.27403 3.9855C5.44079 4.13761 5.69262 4.13767 5.85956 3.9855C5.99379 3.86321 6.17561 3.81282 6.35743 3.84698C6.57586 3.888 6.75534 4.06185 6.80409 4.27952C6.80848 4.29933 6.81188 4.31902 6.81428 4.33859C6.84293 4.57056 7.04157 4.7396 7.27811 4.72689C7.30922 4.72542 7.34116 4.72659 7.37327 4.73034C7.62709 4.7597 7.83704 4.96519 7.87254 5.2189C7.87254 5.21907 7.87342 5.22558 7.87348 5.22575C7.90331 5.45855 8.10352 5.62741 8.33895 5.61681C8.3717 5.61552 8.40434 5.61681 8.43686 5.62073C8.69602 5.65249 8.90503 5.86402 8.93397 6.1237C8.95055 6.27323 8.91141 6.41661 8.82323 6.53363Z" fill="black"/>
<path d="M2.6375 3.6306C2.6375 3.63055 2.63744 3.63055 2.63744 3.63049C2.57597 3.52801 2.46007 3.47252 2.34166 3.4901C2.05748 3.53129 1.81455 3.71029 1.69162 3.96892C1.56875 4.22744 1.58345 4.5289 1.73099 4.77535C1.78496 4.86541 1.88117 4.9189 1.984 4.9189C1.99818 4.9189 2.01242 4.91791 2.02671 4.9158C2.31089 4.87449 2.55388 4.69549 2.67675 4.43691C2.79957 4.17846 2.78486 3.87699 2.6375 3.6306V3.6306ZM2.4122 4.31123C2.33146 4.48103 2.17168 4.59869 1.98236 4.62482C1.88533 4.46269 1.87554 4.26453 1.95623 4.09467C2.03697 3.9248 2.19675 3.80721 2.38378 3.78002C2.38443 3.78002 2.38572 3.78066 2.38613 3.78119C2.4831 3.94326 2.49283 4.14142 2.4122 4.31123V4.31123Z" fill="black"/>
<path d="M9.22506 6.09142C9.18129 5.69837 8.86477 5.37816 8.47237 5.33005C8.42391 5.32413 8.37499 5.32208 8.3267 5.32413C8.2418 5.32759 8.17448 5.27058 8.16411 5.18937L8.16264 5.17841C8.10903 4.79462 7.79122 4.48384 7.4069 4.43937C7.35926 4.43386 7.31139 4.4321 7.26487 4.43433C7.18401 4.4379 7.11493 4.38271 7.10508 4.30279C7.10145 4.27361 7.09641 4.24431 7.08997 4.2156C7.01596 3.88536 6.74338 3.62152 6.41157 3.55917C6.13829 3.50784 5.86512 3.58431 5.66227 3.76911C5.60866 3.81786 5.52481 3.8178 5.47131 3.76911C5.26852 3.58431 4.99536 3.50784 4.72196 3.55917C4.39014 3.62157 4.11751 3.88536 4.04362 4.21566C4.03729 4.24396 4.03219 4.2732 4.02844 4.30279C4.0186 4.38271 3.95063 4.43679 3.86883 4.43433C3.82196 4.43204 3.77426 4.43392 3.72663 4.43937C3.34231 4.48384 3.02456 4.79462 2.971 5.17794L2.96959 5.18849C2.95905 5.27052 2.89213 5.32724 2.80682 5.32407C2.75866 5.32197 2.70961 5.32407 2.66133 5.32999C2.65278 5.33105 2.64422 5.33245 2.63573 5.33404L2.62899 5.33527C2.57467 5.344 2.52991 5.38249 2.51297 5.43476C2.49604 5.48714 2.50987 5.5445 2.54877 5.58341L3.31928 6.35392C3.36493 6.39968 3.43524 6.40999 3.49231 6.37935C3.54926 6.3487 3.57932 6.28425 3.56637 6.22091C3.51657 5.97845 3.57329 5.72984 3.72206 5.53577L4.92159 6.73531C4.94403 6.79038 4.99758 6.82659 5.05723 6.82659H8.89137C8.9321 6.82659 8.97094 6.80966 8.99872 6.77978C9.17069 6.59462 9.25319 6.34372 9.22506 6.09142ZM8.82323 6.53363H5.13411L3.9167 5.31622C3.8611 5.2605 3.78469 5.23126 3.7053 5.23548C3.62649 5.23988 3.55307 5.27779 3.50385 5.33931C3.37565 5.49956 3.29514 5.68882 3.26696 5.88739L2.96971 5.59015C3.12317 5.53443 3.23813 5.39773 3.26016 5.22581C3.26022 5.22552 3.2611 5.21925 3.2611 5.21896C3.29655 4.96525 3.50649 4.75976 3.76032 4.7304C3.79243 4.72677 3.82459 4.72583 3.85565 4.72695C4.09096 4.73866 4.29077 4.57056 4.31924 4.33894C4.3217 4.31931 4.3251 4.2995 4.32956 4.27958C4.37825 4.06191 4.55778 3.88812 4.77616 3.84704C4.95809 3.81282 5.13985 3.86327 5.27409 3.98556C5.44084 4.13767 5.69268 4.13773 5.85961 3.98556C5.99385 3.86327 6.17567 3.81288 6.35749 3.84704C6.57592 3.88806 6.7554 4.06191 6.80415 4.27958C6.80854 4.29939 6.81194 4.31907 6.81434 4.33864C6.84299 4.57062 7.04163 4.73966 7.27817 4.72695C7.30928 4.72548 7.34122 4.72665 7.37333 4.7304C7.62715 4.75976 7.83709 4.96525 7.8726 5.21896C7.8726 5.21913 7.87348 5.22564 7.87354 5.22581C7.90336 5.45861 8.10358 5.62747 8.33901 5.61687C8.37176 5.61558 8.4044 5.61687 8.43692 5.62079C8.69608 5.65255 8.90508 5.86407 8.93403 6.12376C8.95055 6.27323 8.91141 6.41661 8.82323 6.53363V6.53363Z" fill="black"/>
<path d="M11.3931 1.69942H7.87158C7.79066 1.69942 7.7251 1.76498 7.7251 1.8459V4.85856C7.7251 4.89131 7.73611 4.92313 7.75621 4.94885C7.81873 5.02871 7.85898 5.12217 7.87252 5.21897C7.87252 5.21914 7.8734 5.22565 7.87346 5.22582C7.90328 5.45862 8.1035 5.62748 8.33893 5.61688C8.37145 5.61559 8.40426 5.61682 8.43684 5.6208C8.696 5.65256 8.905 5.86408 8.93395 6.12377C8.95281 6.29375 8.89961 6.45588 8.78395 6.58039C8.74428 6.62311 8.73373 6.68522 8.75699 6.7386C8.78025 6.79203 8.83305 6.82655 8.89129 6.82655H8.96301C9.01129 6.82655 9.05652 6.80276 9.08383 6.76291C9.35482 6.36782 9.80207 6.13186 10.2801 6.13186C10.5691 6.13186 10.8481 6.2167 11.0871 6.37719C11.1221 6.40063 11.1654 6.40783 11.206 6.39729C11.2467 6.38657 11.2808 6.35891 11.2997 6.32135C11.3496 6.22192 11.4158 6.13063 11.4965 6.05C11.5241 6.02252 11.5395 5.98532 11.5395 5.94635V1.8459C11.5396 1.76498 11.474 1.69942 11.3931 1.69942V1.69942ZM11.2466 5.8877C11.199 5.93973 11.1558 5.99498 11.1174 6.05299C10.8616 5.9126 10.5751 5.83901 10.2802 5.83901C9.89641 5.83901 9.5292 5.96539 9.23055 6.1908C9.23066 6.15782 9.22891 6.12465 9.22516 6.09149C9.18139 5.69844 8.86486 5.37823 8.47246 5.33012C8.43625 5.32573 8.39975 5.3235 8.36348 5.3235C8.35123 5.3235 8.33898 5.32373 8.3268 5.32426C8.24189 5.32772 8.17457 5.27071 8.1642 5.1895L8.16273 5.17854C8.14445 5.04764 8.09477 4.92143 8.01813 4.81063V1.99239H11.2467V5.8877H11.2466Z" fill="black"/>
<path d="M14.0239 3.95124C13.7316 3.83048 13.4009 3.86317 13.1391 4.03872C12.8773 4.21426 12.7217 4.50788 12.7227 4.82405C12.723 4.95102 12.7991 5.0644 12.9164 5.11286C13.033 5.16102 13.1557 5.18487 13.2777 5.18487C13.4616 5.18487 13.6438 5.1309 13.8011 5.02538C14.0628 4.84977 14.2185 4.55616 14.2176 4.23999C14.2176 4.23993 14.2176 4.23993 14.2176 4.23987C14.2171 4.11301 14.1411 3.99969 14.0239 3.95124V3.95124ZM13.6378 4.7821C13.4576 4.90298 13.2297 4.92548 13.0282 4.8421C13.0211 4.83911 13.0156 4.83108 13.0156 4.82323C13.0149 4.6052 13.1221 4.40288 13.3023 4.28206C13.4106 4.20946 13.536 4.17237 13.6626 4.17237C13.7468 4.17237 13.8315 4.18872 13.9119 4.22206C13.919 4.22499 13.9246 4.23325 13.9246 4.24092C13.9252 4.45889 13.818 4.66122 13.6378 4.7821Z" fill="black"/>
<path d="M10.2802 5.839C9.31936 5.839 8.5376 6.62076 8.5376 7.58164C8.5376 8.54246 9.31936 9.32422 10.2802 9.32422C10.3381 9.32422 10.397 9.32129 10.455 9.31549C10.4843 9.31256 10.5119 9.30096 10.5344 9.28215L11.6231 8.37184C11.6774 8.32648 11.7402 8.29537 11.8097 8.27943C11.8578 8.26842 11.8971 8.23391 11.9143 8.18768C11.9863 7.99361 12.0228 7.78977 12.0228 7.5817C12.0228 6.62076 11.2411 5.839 10.2802 5.839V5.839ZM11.6632 8.01729C11.58 8.04641 11.5036 8.08988 11.4353 8.14707L10.382 9.02773C10.348 9.03008 10.3139 9.03131 10.2802 9.03131C9.48084 9.03131 8.83057 8.38098 8.83057 7.5817C8.83057 6.78231 9.4809 6.13203 10.2802 6.13203C11.0796 6.13203 11.7298 6.78236 11.7298 7.5817C11.7298 7.73053 11.7075 7.87666 11.6632 8.01729V8.01729Z" fill="black"/>
<path d="M14.7799 6.04958C14.5298 5.67365 14.1115 5.44917 13.6609 5.44917C13.5301 5.44917 13.4034 5.47589 13.2846 5.52863C13.0747 5.62191 12.8241 5.62191 12.614 5.52863C12.4952 5.47589 12.3685 5.44917 12.2377 5.44917C11.7269 5.44917 11.2672 5.733 11.0378 6.18997C11.0047 6.25589 11.0258 6.33616 11.087 6.37724C11.4895 6.64747 11.7298 7.09771 11.7298 7.58163C11.7298 7.7546 11.6993 7.92423 11.6393 8.08566C11.6205 8.13611 11.631 8.19282 11.6665 8.23337C11.702 8.2738 11.7566 8.29179 11.8094 8.27949C12.0021 8.23501 12.1987 8.32027 12.2974 8.49136L12.3878 8.64792C12.415 8.69492 12.4642 8.72117 12.5148 8.72117C12.5397 8.72117 12.5648 8.7149 12.5879 8.70154L12.8045 8.5765C13.0033 8.46171 13.0717 8.20659 12.9553 8.00509C12.9086 7.92406 12.8982 7.8265 12.9271 7.73743C12.9564 7.64714 13.0208 7.57577 13.1085 7.53646C13.2392 7.47804 13.3962 7.51238 13.4902 7.61995C13.504 7.63583 13.5163 7.65265 13.5267 7.66999C13.6145 7.81724 13.7767 7.89388 13.9395 7.86534C14.0762 7.84115 14.2145 7.90589 14.2837 8.02595C14.2908 8.0382 14.2961 8.05103 14.3014 8.06374C14.3244 8.11794 14.3775 8.15316 14.4364 8.15316H14.4366C14.4956 8.1531 14.5487 8.11771 14.5715 8.06333L14.892 7.29904C15.0686 6.87769 15.0278 6.4223 14.7799 6.04958V6.04958ZM14.6218 7.18572L14.3998 7.71511C14.2609 7.5981 14.0739 7.54431 13.8889 7.57671C13.8468 7.58451 13.8033 7.56183 13.7783 7.51993C13.759 7.48759 13.7364 7.45648 13.7109 7.42718C13.5327 7.22339 13.2357 7.15847 12.9888 7.26904C12.8268 7.34158 12.7028 7.47939 12.6485 7.64714C12.5941 7.81501 12.6135 7.99882 12.7032 8.15415C12.7372 8.2131 12.7169 8.28874 12.6581 8.32273L12.5684 8.37452L12.5512 8.34482C12.4278 8.13107 12.2127 7.99829 11.9773 7.97755C12.0076 7.84824 12.0227 7.71575 12.0227 7.58158C12.0227 7.04568 11.7777 6.54429 11.361 6.2147C11.5539 5.9205 11.8798 5.74214 12.2377 5.74214C12.3273 5.74214 12.414 5.76042 12.4951 5.79646C12.7837 5.92466 13.1149 5.92466 13.4036 5.79646C13.4847 5.76042 13.5713 5.74214 13.661 5.74214C14.0133 5.74214 14.3404 5.91775 14.536 6.21183C14.7285 6.50146 14.7598 6.85642 14.6218 7.18572V7.18572Z" fill="black"/>
<path d="M9.68816 8.9048C9.16709 8.67136 8.83047 8.15193 8.83047 7.58164C8.83047 7.28773 8.91807 7.00467 9.08377 6.76297C9.11453 6.71808 9.11793 6.6599 9.09256 6.61185C9.06719 6.56375 9.01732 6.53363 8.96295 6.53363H0.356991C0.241561 6.53363 0.136386 6.58713 0.0684756 6.68047C0.000565398 6.77375 -0.018126 6.89023 0.0173818 6.99998L0.448632 8.33668C0.63912 8.92736 1.18416 9.32422 1.8049 9.32422H9.0482C9.27185 9.32422 9.49545 9.27054 9.69473 9.169C9.745 9.14334 9.77611 9.09119 9.77465 9.03482C9.7733 8.97845 9.73961 8.92789 9.68816 8.9048ZM9.0482 9.03125H1.8049C1.31184 9.03125 0.878768 8.71595 0.727421 8.24668L0.296171 6.90998C0.287558 6.88308 0.298163 6.86263 0.305311 6.85285C0.31246 6.84301 0.32869 6.82654 0.356991 6.82654H8.70924C8.59633 7.06074 8.5375 7.31756 8.5375 7.58158C8.5375 8.15457 8.82015 8.68484 9.27859 9.00734C9.20289 9.02322 9.12555 9.03125 9.0482 9.03125V9.03125Z" fill="black"/>
<path d="M5.19404 6.62809C5.18003 6.59124 5.15882 6.55848 5.13105 6.53071L3.91658 5.31623C3.86097 5.26051 3.78457 5.23127 3.70517 5.23549C3.62636 5.23989 3.55294 5.2778 3.50373 5.33932C3.17039 5.75622 3.17431 6.35915 3.51316 6.77293C3.54105 6.80692 3.58265 6.82661 3.62654 6.82661H5.05716C5.10533 6.82661 5.15044 6.80293 5.17775 6.76327C5.20505 6.72366 5.21115 6.67309 5.19404 6.62809V6.62809ZM3.69943 6.53364C3.49177 6.23411 3.4988 5.82711 3.72199 5.53584L4.71978 6.53364H3.69943Z" fill="black"/>
<path d="M3.74056 6.58742C3.65402 6.48149 3.59373 6.35481 3.56625 6.22098C3.56045 6.19291 3.54656 6.16713 3.52629 6.14686L2.6956 5.31617C2.64 5.26045 2.56289 5.23121 2.48431 5.23543C2.40545 5.23983 2.33197 5.27768 2.28269 5.33926C1.94941 5.75621 1.95339 6.35914 2.2923 6.77287C2.32013 6.80686 2.36173 6.82655 2.40562 6.82655H3.62718C3.68379 6.82655 3.73529 6.79391 3.75955 6.74281C3.78375 6.69172 3.77636 6.63125 3.74056 6.58742V6.58742ZM2.47845 6.53364C2.2708 6.2341 2.27777 5.82705 2.50101 5.53584L3.28927 6.32416C3.30715 6.39617 3.33205 6.46649 3.36351 6.53364H2.47845Z" fill="black"/>
<path d="M2.5197 6.58737C2.43316 6.4816 2.37287 6.35487 2.34539 6.22098C2.33959 6.19291 2.3257 6.16713 2.30543 6.14686L1.47468 5.31617C1.41908 5.26045 1.34267 5.23121 1.26328 5.23543C1.18447 5.23983 1.11105 5.27774 1.06183 5.33926C0.728492 5.75615 0.732417 6.35908 1.07127 6.77287C1.09916 6.80686 1.14076 6.82655 1.18464 6.82655H2.40627C2.46287 6.82655 2.51443 6.79391 2.53863 6.74276C2.56289 6.69172 2.5555 6.63119 2.5197 6.58737V6.58737ZM1.25753 6.53364C1.04988 6.2341 1.05691 5.82711 1.28009 5.53584L2.06841 6.32416C2.08628 6.39617 2.11119 6.46649 2.14265 6.53364H1.25753Z" fill="black"/>
<path d="M6.94147 5.47913C6.47226 5.47913 6.09058 5.86086 6.09058 6.33002C6.09058 6.47786 6.12972 6.62422 6.20372 6.75307C6.22985 6.79854 6.27825 6.82661 6.33075 6.82661H7.55226C7.60476 6.82661 7.65315 6.79854 7.67929 6.75307C7.75335 6.62416 7.79249 6.47786 7.79249 6.33002C7.79237 5.86086 6.94147 5.47913 6.94147 5.47913ZM7.4605 6.53364H6.42233C6.39673 6.46883 6.38349 6.39969 6.38349 6.33002C6.38349 6.02235 6.63374 5.77209 6.94142 5.77209C7.24909 5.77209 7.49935 6.02235 7.49935 6.33002C7.4994 6.39963 7.4861 6.46883 7.4605 6.53364Z" fill="black"/>
<path d="M6.4898 5.83168C6.32983 5.6109 6.07231 5.47913 5.80085 5.47913C5.33163 5.47913 4.94995 5.86086 4.94995 6.33002C4.94995 6.4778 4.98909 6.62416 5.06315 6.75307C5.08929 6.79854 5.13769 6.82661 5.19019 6.82661H6.33136C6.38374 6.82661 6.43208 6.79866 6.45821 6.75336C6.48435 6.70807 6.48435 6.65217 6.45821 6.60688C6.40935 6.52227 6.38356 6.42653 6.38356 6.33002C6.38356 6.21243 6.42036 6.09952 6.48985 6.00354C6.52694 5.95227 6.52694 5.88295 6.4898 5.83168V5.83168ZM6.11562 6.53364H5.28183C5.25622 6.46883 5.24292 6.39963 5.24292 6.33002C5.24292 6.02235 5.49317 5.77209 5.80085 5.77209C5.94675 5.77209 6.08661 5.83034 6.19021 5.93135C6.1247 6.05387 6.09054 6.18969 6.09054 6.33008C6.09048 6.39875 6.09903 6.46713 6.11562 6.53364Z" fill="black"/>
<path d="M13.1413 9.36711L12.5511 8.34489C12.4416 8.1551 12.255 8.02432 12.0392 7.98606C11.8232 7.94774 11.6033 8.00651 11.4351 8.14707L8.40114 10.6839C8.11192 10.9257 8.11954 11.2713 8.25536 11.5065C8.35971 11.6873 8.55834 11.8351 8.80537 11.835C8.87985 11.835 8.95871 11.8216 9.04075 11.7916L12.7547 10.4325C12.9605 10.3572 13.1214 10.1959 13.1961 9.98991C13.2708 9.78389 13.2509 9.5569 13.1413 9.36711V9.36711ZM12.9207 9.88989C12.8755 10.0143 12.7783 10.1118 12.6539 10.1573L8.93996 11.5164C8.73248 11.5924 8.57815 11.4796 8.50907 11.3599C8.43998 11.2403 8.41953 11.0503 8.58905 10.9085L11.623 8.37172C11.7043 8.30381 11.8056 8.26754 11.9096 8.26754C11.9357 8.26754 11.962 8.26983 11.9881 8.27446C12.1185 8.2976 12.2312 8.37658 12.2974 8.49125L12.8876 9.51348C12.9538 9.62826 12.9658 9.76543 12.9207 9.88989V9.88989Z" fill="black"/>
<path d="M14.4756 8.59244C14.6431 8.39211 14.668 8.10565 14.5375 7.87953C14.4069 7.6533 14.1467 7.53172 13.889 7.57672C13.8468 7.58451 13.8032 7.56184 13.7783 7.51994C13.759 7.4876 13.7363 7.45649 13.7109 7.42719C13.5328 7.2234 13.2358 7.15848 12.9888 7.26904C12.8268 7.34158 12.7027 7.4794 12.6484 7.64715C12.5941 7.81496 12.6135 7.99883 12.7017 8.15152L12.8285 8.07828L12.7031 8.15416C12.7371 8.21311 12.7169 8.28875 12.658 8.32274L12.4414 8.44777C12.4078 8.46717 12.3832 8.49922 12.3731 8.53672C12.3631 8.57428 12.3683 8.61424 12.3878 8.64787L12.7972 9.35703C12.8376 9.42711 12.9274 9.45108 12.9973 9.41065L13.2283 9.27734C13.2529 9.26311 13.2816 9.25924 13.3092 9.26662C13.3368 9.274 13.3599 9.2917 13.3741 9.31643C13.4922 9.52092 13.7088 9.64373 13.9319 9.64373C13.9786 9.64373 14.0255 9.6384 14.0718 9.62732C14.2594 9.58232 14.4124 9.45459 14.4914 9.27676C14.571 9.09775 14.5639 8.89068 14.471 8.72006C14.4464 8.67524 14.4481 8.6252 14.4756 8.59244V8.59244ZM14.2152 8.86291C14.2633 8.95121 14.2665 9.06143 14.2238 9.15764C14.1992 9.21277 14.138 9.31016 14.0035 9.34227C13.861 9.37684 13.7062 9.30565 13.6279 9.16983C13.5538 9.04174 13.4192 8.97008 13.2809 8.97008C13.2132 8.97008 13.1445 8.98731 13.0818 9.02357L12.9777 9.08363L12.7147 8.62824L12.8045 8.57645C13.0033 8.46166 13.0716 8.20654 12.9575 8.00879L12.956 8.00615C12.9558 8.00574 12.9556 8.00539 12.9553 8.00498C12.9085 7.92395 12.8982 7.82639 12.9271 7.73733C12.9563 7.64703 13.0208 7.57566 13.1084 7.53635C13.237 7.47875 13.3976 7.51391 13.4902 7.61984C13.504 7.63572 13.5162 7.65254 13.5266 7.66988C13.6145 7.81707 13.7766 7.89418 13.9395 7.86518C14.0765 7.84145 14.2145 7.90584 14.2838 8.0259C14.3531 8.1459 14.3398 8.29801 14.2509 8.40424C14.1453 8.53051 14.131 8.70992 14.2152 8.86291V8.86291Z" fill="black"/>
</svg>
