<svg id="a44830ea-ecfa-4860-987d-420558dd09b0" height="512" viewBox="0 0 64 64" width="512" xmlns="http://www.w3.org/2000/svg" data-name="line"><path d="m58.744 59.42365a1.15023 1.15023 0 0 0 .10955-.54377l-1.80082-14.87988a1.0005 1.0005 0 0 0 -1.98632.24027l1.538 12.70248-6.41986-4.34869v-21.48029a1 1 0 1 0 -2 0v21.53345l-4.97351 4.01709 4.80117-38.26441h3.92138l2.64356 21.84033a1.00053 1.00053 0 0 0 1.98631-.24023l-2.75-22.72016a1.00113 1.00113 0 0 0 -.99317-.87989c-1.63309-.00457-6.40893.00938-7.95214-.02022v-2.98618a9.36877 9.36877 0 0 0 -12.70421-8.77972 9.369 9.369 0 0 0 -12.70447 8.77972v2.75977c-.00884 0-8.22136-.0734-8.22947-.07324a.9998.9998 0 0 0 -.99221.87646l-2.10986 16.96a.99994.99994 0 0 0 1.98439.247l2-16.07565 7.34717.06543v2.3869a3.69625 3.69625 0 1 0 1.9999.00006l.0001-2.36914 14.7876.13166v2.23742a3.69623 3.69623 0 1 0 1.99989.00013l.00011-2.21973c1.49786.01617 6.32652.05433 7.751.069l-4.96977 39.60892-33.88623-.05469 2.47021-19.77979a.99991.99991 0 1 0 -1.98437-.248l-2.47022 19.77779a2.06041 2.06041 0 0 0 2.03229 2.30615h50.67038a.96188.96188 0 0 0 .88362-.57635zm-36.57994-35.33332a1.705 1.705 0 0 1 -3.40966-.00007 1.705 1.705 0 0 1 3.40966.00007zm16.78711 0a1.70477 1.70477 0 0 1 -3.40918-.00007 1.70477 1.70477 0 0 1 3.40918.00007zm-17.4917-10.69678a7.3822 7.3822 0 0 1 8.18268-7.35 9.37452 9.37452 0 0 0 -3.5611 7.35v2.81873l-4.62158-.04114zm6.62158 2.83655v-2.83655a7.39555 7.39555 0 0 1 4.083-6.60144 7.39531 7.39531 0 0 1 4.08307 6.60144v2.90931zm6.6048-10.18664a7.41084 7.41084 0 0 1 8.18229 7.35011v2.96831l-4.62109-.0412v-2.92713a9.37444 9.37444 0 0 0 -3.5612-7.35009zm14.55145 48.32422 5.36194 3.63232h-9.85974z"/></svg>