<?xml version="1.0" encoding="utf-8"?>
<!-- Generator: Adobe Illustrator 27.9.0, SVG Export Plug-In . SVG Version: 6.00 Build 0)  -->
<svg version="1.1" id="a44830ea-ecfa-4860-987d-420558dd09b0"
	 xmlns="http://www.w3.org/2000/svg" xmlns:xlink="http://www.w3.org/1999/xlink" x="0px" y="0px" viewBox="0 0 512 512"
	 style="enable-background:new 0 0 512 512;" xml:space="preserve">
<style type="text/css">
	.st0{clip-path:url(#SVGID_00000047050813940576601420000007587160350293672846_);}
	.st1{fill:none;}
	.st2{fill-rule:evenodd;clip-rule:evenodd;}
</style>
<g id="g141" transform="matrix(1.3333333,0,0,-1.3333333,0,682.66667)">
	<g id="g151">
		<g>
			<g>
				<defs>
					<rect id="SVGID_1_" x="46.2" y="55.8" width="410.9" height="410.9"/>
				</defs>
				<clipPath id="SVGID_00000085241745319685768230000016719574071039877789_">
					<use xlink:href="#SVGID_1_"  style="overflow:visible;"/>
				</clipPath>
				<g id="g153" style="clip-path:url(#SVGID_00000085241745319685768230000016719574071039877789_);">
					<g id="g159" transform="translate(378.0996,53.9995)">
						<path d="M-126.3,91.7c-15.6,0-30.7,3.1-45,9.2c-13.8,5.8-26.1,14.1-36.7,24.8c-10.7,10.7-19,22.9-24.8,36.7
							c-6.1,14.3-9.2,29.4-9.2,45s3.1,30.7,9.2,45c5.8,13.8,14.1,26.1,24.8,36.7c10.7,10.7,22.9,19,36.7,24.8
							c14.3,6.1,29.4,9.2,45,9.2s30.7-3.1,45-9.2c13.8-5.8,26.1-14.1,36.7-24.8c10.7-10.7,19-22.9,24.8-36.7
							c6.1-14.3,9.2-29.4,9.2-45c0-22.8-6.8-45-19.5-64.2c-2.7-4.1-8.3-5.3-12.6-2.5c-4.1,2.7-5.3,8.3-2.5,12.6
							c10.9,16.1,16.5,35,16.5,54.2c0,53.8-43.8,97.5-97.5,97.5c-53.8,0-97.5-43.8-97.5-97.5c0-53.8,43.8-97.5,97.5-97.5
							c17.8,0,35.3,4.9,50.4,14.1c4.2,2.5,9.8,1.2,12.4-3.1c2.5-4.2,1.2-9.8-3.1-12.4C-84.6,97.5-105.1,91.7-126.3,91.7z"/>
					</g>
				</g>
			</g>
		</g>
	</g>
</g>
<g>
	<path class="st1" d="M150.1,192.7c0.1,7.3,6,13.3,13.4,13.4c7.5,0.2,13.7-5.9,13.8-13.4c-0.1-7.3-6-13.3-13.4-13.4
		C156.3,179.2,150.1,185.2,150.1,192.7z"/>
	<path class="st1" d="M305.9,107.1v23.4l37,0.3v-23.7c0-2-0.1-4-0.3-6c-3.4-32.5-32.5-56.2-65.2-52.8
		C295.4,62.5,305.9,84.2,305.9,107.1z"/>
	<path class="st1" d="M384.1,147.3l-1.8,14.6c13.1,4.3,25.6,10.2,37.1,17.4l-3.9-31.9H384.1z"/>
	<path class="st1" d="M306,146.5v8c7.2-0.9,14.5-1.4,21.9-1.4c13.3,0,26.3,1.5,38.8,4.4l1.3-10.4C356.6,146.9,318,146.6,306,146.5z"
		/>
	<path class="st1" d="M257.3,54.3c-20,10.1-32.6,30.5-32.6,52.8v22.7l65.3,0.6v-23.3C289.9,84.7,277.3,64.3,257.3,54.3z"/>
	<path class="st1" d="M237.2,48.3c-2.2-0.2-4.3-0.3-6.5-0.3c-32.6,0-59.1,26.5-59,59.1v22.2l37,0.3v-22.5
		C208.7,84.2,219.2,62.5,237.2,48.3z"/>
	<path d="M57.1,463.6l19.8-158.2c0.6-4.4-2.5-8.4-6.9-9c-4.4-0.6-8.4,2.5-9,6.9c0,0,0,0,0,0.1L41.3,461.6c-1.1,9,5.4,17.2,14.4,18.3
		c0.6,0.1,1.2,0.1,1.9,0.1h190.8c-9-4.6-17.5-10.1-25.5-16.2L57.1,463.6z"/>
	<path d="M306,146.5c12,0.1,50.6,0.4,62,0.6l-1.3,10.4c5.3,1.2,10.5,2.7,15.6,4.4l1.8-14.6h31.4l3.9,31.9c6.1,3.8,12,8,17.6,12.6
		l-6.5-53.6c-0.5-4-3.9-7-7.9-7c-13.1,0-51.3,0.1-63.6-0.2v-23.9c0.1-41.4-33.4-75-74.8-75.1c-9.2,0-18.3,1.6-26.9,4.9
		c-38.7-14.7-82,4.7-96.7,43.4c-3.3,8.6-4.9,17.7-4.9,26.9v22.1c-0.1,0-65.8-0.6-65.8-0.6c-4,0-7.4,3-7.9,7L65,271.3
		c-0.5,4.4,2.7,8.4,7.1,8.9c4.3,0.5,8.2-2.6,8.8-6.9l16-128.6l58.8,0.5v19.1c-15.7,4.4-24.9,20.7-20.5,36.5
		c4.4,15.8,20.7,24.9,36.5,20.5c15.8-4.4,24.9-20.7,20.5-36.5c-2.8-9.9-10.5-17.7-20.5-20.5v-19l118.3,1.1v10.9
		c5.2-1.2,10.6-2.1,16-2.8V146.5z M177.3,192.7c-0.1,7.5-6.3,13.6-13.8,13.4c-7.4-0.1-13.3-6.1-13.4-13.4c0-7.5,6.2-13.5,13.8-13.4
		C171.3,179.4,177.2,185.4,177.3,192.7z M342.6,101.1c0.2,2,0.3,4,0.3,6v23.7l-37-0.3v-23.4c0-22.9-10.5-44.6-28.5-58.8
		C310.1,44.9,339.2,68.6,342.6,101.1z M208.7,129.6l-37-0.3v-22.2c-0.1-32.6,26.4-59.1,59-59.1c2.2,0,4.3,0.1,6.5,0.3
		c-18,14.2-28.5,35.9-28.5,58.8V129.6z M290,130.4l-65.3-0.6v-22.7c0-22.3,12.6-42.7,32.6-52.8c20,10,32.6,30.4,32.7,52.8V130.4z"/>
</g>
<path class="st2" d="M385.3,270.8h-21.7v-11.6c0-3.4-2.7-6.1-6.1-6.1h-43.6c-3.4,0-6.1,2.7-6.1,6.1v11.6h-21.7
	c-9.1,0-16.4,7.3-16.4,16.4v10.3c0,3.4,2.7,6.1,6.1,6.1h2.6v91.2c0,12.8,10.4,23.2,23.3,23.3h68c12.8,0,23.3-10.4,23.3-23.3v-91.2
	h2.6c3.4,0,6.1-2.7,6.1-6.1v-10.3C401.7,278.2,394.3,270.8,385.3,270.8L385.3,270.8z M320,265.4h31.4v5.4H320V265.4z M281.9,287.2
	c0-2.3,1.9-4.2,4.2-4.2h99.2c2.3,0,4.2,1.9,4.2,4.2v4.2H281.9V287.2z M380.7,394.8c0,6.1-4.9,11-11,11h-68c-6.1,0-11-4.9-11-11
	v-91.2h90.1V394.8z M329.5,388.8v-68c0-3.4,2.7-6.1,6.1-6.1c3.4,0,6.1,2.7,6.1,6.1v68c0,3.4-2.7,6.1-6.1,6.1
	C332.3,394.9,329.5,392.1,329.5,388.8z M304,388.8v-68c0-3.4,2.7-6.1,6.1-6.1c3.4,0,6.1,2.7,6.1,6.1v68c0,3.4-2.7,6.1-6.1,6.1
	C306.7,394.9,304,392.1,304,388.8z M355.1,388.8v-68c0-3.4,2.7-6.1,6.1-6.1s6.1,2.7,6.1,6.1v68c0,3.4-2.7,6.1-6.1,6.1
	S355.1,392.1,355.1,388.8z"/>
</svg>
