<?xml version="1.0" encoding="utf-8"?>
<!-- Generator: Adobe Illustrator 28.1.0, SVG Export Plug-In . SVG Version: 6.00 Build 0)  -->
<svg version="1.1" id="a44830ea-ecfa-4860-987d-420558dd09b0"
	 xmlns="http://www.w3.org/2000/svg" xmlns:xlink="http://www.w3.org/1999/xlink" x="0px" y="0px" viewBox="0 0 512 512"
	 style="enable-background:new 0 0 512 512;" xml:space="preserve">
<style type="text/css">
	.st0{clip-path:url(#SVGID_00000121242355219837236000000010769968971453154468_);}
</style>
<g id="g141" transform="matrix(1.3333333,0,0,-1.3333333,0,682.66667)">
	<g id="g143" transform="translate(256,346.0176)">
		<path d="M42-170c-2.9,0-5.3,2.4-5.3,5.3v47.9c0,2.9,2.4,5.3,5.3,5.3s5.3-2.4,5.3-5.3v-47.9C47.3-167.6,45-170,42-170z"/>
	</g>
	<g id="g147" transform="translate(166,256.0176)">
		<path d="M156-56h-47.9c-2.9,0-5.3,2.4-5.3,5.3c0,2.9,2.4,5.3,5.3,5.3H156c2.9,0,5.3-2.4,5.3-5.3C161.3-53.6,158.9-56,156-56z"/>
	</g>
	<g id="g151">
		<g>
			<defs>
				<rect id="SVGID_1_" x="207.2" y="114.5" width="181.5" height="181.5"/>
			</defs>
			<clipPath id="SVGID_00000049219455042656497230000016313132656622097079_">
				<use xlink:href="#SVGID_1_"  style="overflow:visible;"/>
			</clipPath>
			<g id="g153" style="clip-path:url(#SVGID_00000049219455042656497230000016313132656622097079_);">
				<g id="g159" transform="translate(378.0996,53.9995)">
					<path d="M-80.1,83.2c-9.2,0-18.1,1.8-26.5,5.4c-8.1,3.4-15.4,8.3-21.6,14.6c-6.3,6.3-11.2,13.5-14.6,21.6
						c-3.6,8.4-5.4,17.3-5.4,26.5c0,9.2,1.8,18.1,5.4,26.5c3.4,8.1,8.3,15.4,14.6,21.6c6.3,6.3,13.5,11.2,21.6,14.6
						c8.4,3.6,17.3,5.4,26.5,5.4c9.2,0,18.1-1.8,26.5-5.4c8.1-3.4,15.4-8.3,21.6-14.6c6.3-6.3,11.2-13.5,14.6-21.6
						c3.6-8.4,5.4-17.3,5.4-26.5c0-13.4-4-26.5-11.5-37.8c-1.6-2.4-4.9-3.1-7.4-1.5c-2.4,1.6-3.1,4.9-1.5,7.4
						c6.4,9.5,9.7,20.6,9.7,31.9c0,31.7-25.8,57.4-57.4,57.4c-31.7,0-57.4-25.8-57.4-57.4c0-31.7,25.8-57.4,57.4-57.4
						c10.5,0,20.8,2.9,29.7,8.3c2.5,1.5,5.8,0.7,7.3-1.8c1.5-2.5,0.7-5.8-1.8-7.3C-55.5,86.6-67.6,83.2-80.1,83.2z"/>
				</g>
			</g>
		</g>
	</g>
</g>
<g>
	<path d="M393.5,240.9c-4.4,0-8,3.6-8,8v76.2c3.9-0.5,7.8-0.8,11.9-0.8c1.4,0,2.8,0,4.1,0.1v-75.5
		C401.5,244.5,397.9,240.9,393.5,240.9z"/>
	<path d="M328.9,458.7l-0.7,5.3l-271.1-0.4l19.8-158.2c0.6-4.4-2.5-8.4-6.9-9c-4.4-0.6-8.4,2.5-9,6.9c0,0,0,0,0,0.1L41.3,461.6
		c-1.1,9,5.4,17.2,14.4,18.3c0.6,0.1,1.2,0.1,1.9,0.1h293.9C342.7,474.3,335,467.1,328.9,458.7z"/>
	<path d="M72.1,280.2c4.3,0.5,8.2-2.6,8.8-6.9l16-128.6l58.8,0.5v19.1c-15.7,4.4-24.9,20.7-20.5,36.5s20.7,24.9,36.5,20.5
		s24.9-20.7,20.5-36.5c-2.8-9.9-10.5-17.7-20.5-20.5l0-19l118.3,1.1v17.9c-15.7,4.4-24.9,20.7-20.5,36.5s20.7,24.9,36.5,20.5
		c15.7-4.4,24.9-20.7,20.5-36.5c-2.8-9.9-10.5-17.7-20.5-20.5l0-17.8c12,0.1,50.6,0.4,62,0.6l-24.7,196.7
		c5.3-4.4,11.2-8.2,17.5-11.2l23.3-185.3h31.4l21.1,174.7c0.6,4.4,4.6,7.4,9,6.8c4.3-0.6,7.3-4.5,6.9-8.8l-22-181.8
		c-0.5-4-3.9-7-7.9-7c-13.1,0-51.3,0.1-63.6-0.2v-23.9c0.1-41.4-33.4-75-74.8-75.1c-9.2,0-18.3,1.6-26.9,4.9
		c-38.7-14.7-82,4.7-96.7,43.4c-3.3,8.6-4.9,17.7-4.9,26.9v22.1c-0.1,0-65.8-0.6-65.8-0.6c-4,0-7.4,3-7.9,7L65,271.3
		C64.5,275.7,67.7,279.7,72.1,280.2z M311.6,192.7c-0.1,7.5-6.3,13.5-13.8,13.4c-7.4-0.1-13.3-6.1-13.4-13.4
		c0.1-7.5,6.3-13.5,13.8-13.4C305.5,179.4,311.5,185.3,311.6,192.7z M342.6,101.1c0.2,2,0.3,4,0.3,6v23.7l-37-0.3v-23.4
		c0-22.9-10.5-44.6-28.5-58.8C310.1,44.9,339.2,68.6,342.6,101.1z M257.3,54.3c20,10,32.6,30.4,32.7,52.8v23.3l-65.3-0.6v-22.7
		C224.7,84.8,237.3,64.4,257.3,54.3z M171.7,107.1c-0.1-32.6,26.4-59.1,59-59.1c2.2,0,4.3,0.1,6.5,0.3c-18,14.2-28.5,35.9-28.5,58.8
		v22.5l-37-0.3V107.1z M163.9,179.3c7.4,0.1,13.3,6.1,13.4,13.4c-0.1,7.5-6.3,13.6-13.8,13.4c-7.4-0.1-13.3-6.1-13.4-13.4
		C150.1,185.2,156.3,179.2,163.9,179.3z"/>
</g>
</svg>
