<svg width="16" height="17" viewBox="0 0 16 17" fill="none" xmlns="http://www.w3.org/2000/svg">
<path d="M10.9193 3.12154C9.89253 3.12154 8.96562 3.49932 8.30481 4.10642C8.09664 4.29765 8.09664 4.60262 8.30481 4.79392C8.62989 5.09259 9.01965 5.33536 9.45383 5.50537L11.984 3.26279C11.6473 3.17127 11.29 3.12154 10.9193 3.12154Z" fill="#818182"/>
<path d="M14.5637 3.64856C14.3436 3.77643 14.1393 3.92391 13.9558 4.08991C13.8344 4.19975 13.6352 4.19821 13.5137 4.08837C13.2698 3.86763 12.9901 3.67812 12.6833 3.52663L10.2122 5.71687C10.4409 5.75692 10.6772 5.77865 10.9192 5.77865C11.9358 5.77865 12.8544 5.4082 13.5137 4.81172C13.6352 4.70188 13.8343 4.70034 13.9558 4.81018C14.1419 4.97852 14.3493 5.12798 14.5731 5.25714C14.7253 4.72996 14.7222 4.17457 14.5637 3.64856Z" fill="#818182"/>
<path d="M10.0449 4.45004C10.0449 4.03109 9.89252 3.64393 9.63484 3.32884C9.12763 3.49891 8.67452 3.76667 8.30481 4.10632C8.09664 4.29755 8.09664 4.60252 8.30481 4.79382C8.62989 5.09249 9.01957 5.33538 9.45375 5.50533L9.91779 5.09404C9.99911 4.89268 10.0449 4.67626 10.0449 4.45004Z" fill="#5B5D60"/>
<path d="M10.9191 5.77869C11.9358 5.77869 12.8543 5.40824 13.5137 4.81176C13.5199 4.80609 13.5273 4.80189 13.5339 4.79683C12.9169 4.97221 12.2593 5.06724 11.5765 5.06724C11.3731 5.06724 11.172 5.05866 10.9735 5.04219L10.2122 5.71698C10.4409 5.75703 10.6771 5.77869 10.9191 5.77869Z" fill="#AAAAAF"/>
<path d="M9.02661 15.9287C8.8068 15.894 8.63581 15.7425 8.5918 15.552C8.5918 15.5433 8.57224 15.5433 8.57224 15.552C8.52824 15.7425 8.35731 15.894 8.13744 15.9287C8.12769 15.9287 8.12769 15.9417 8.13744 15.946C8.35724 15.9806 8.52824 16.1322 8.57224 16.3227C8.57224 16.3313 8.5918 16.3313 8.5918 16.3227C8.63581 16.1322 8.80673 15.9806 9.02661 15.946C9.03642 15.9416 9.03642 15.9287 9.02661 15.9287Z" fill="#70D6F9"/>
<path d="M6.17153 1.49359H6.33166V1.63552C6.33166 1.74042 6.42914 1.83299 6.55446 1.83299C6.67978 1.83299 6.77726 1.7466 6.77726 1.63552V1.49359H6.93739C7.05576 1.49359 7.16019 1.40719 7.16019 1.29612C7.16019 1.18504 7.06272 1.09865 6.93739 1.09865H6.77726V0.956717C6.77726 0.851811 6.67978 0.759247 6.55446 0.759247C6.42914 0.759247 6.33166 0.84564 6.33166 0.956717V1.09865H6.17153C6.05317 1.09865 5.94873 1.18504 5.94873 1.29612C5.94873 1.40719 6.0462 1.49359 6.17153 1.49359Z" fill="#FC657E"/>
<path d="M14.9718 9.99348C15.1026 9.99348 15.2086 9.89954 15.2086 9.78366C15.2086 9.66779 15.1026 9.57385 14.9718 9.57385C14.8411 9.57385 14.7351 9.66779 14.7351 9.78366C14.7351 9.89954 14.8411 9.99348 14.9718 9.99348Z" fill="#87D147"/>
<path d="M4.94595 2.65012C5.07669 2.65012 5.18267 2.55619 5.18267 2.44031C5.18267 2.32444 5.07669 2.2305 4.94595 2.2305C4.81521 2.2305 4.70923 2.32444 4.70923 2.44031C4.70923 2.55619 4.81521 2.65012 4.94595 2.65012Z" fill="#F5C84C"/>
<path d="M14.7224 11.7121C15.0357 11.6627 15.2793 11.4468 15.342 11.1752C15.342 11.1629 15.3699 11.1629 15.3699 11.1752C15.4325 11.4468 15.6762 11.6627 15.9895 11.7121C16.0034 11.7121 16.0034 11.7306 15.9895 11.7368C15.6762 11.7862 15.4325 12.0021 15.3699 12.2737C15.3699 12.286 15.342 12.286 15.342 12.2737C15.2793 12.0021 15.0357 11.7862 14.7224 11.7368C14.7084 11.7306 14.7084 11.7121 14.7224 11.7121Z" fill="#F5C84C"/>
<path d="M9.54145 14.8302C9.89859 14.8302 10.1881 14.3781 10.1881 13.8204C10.1881 13.2627 9.89859 12.8105 9.54145 12.8105C9.1843 12.8105 8.89478 13.2627 8.89478 13.8204C8.89478 14.3781 9.1843 14.8302 9.54145 14.8302Z" fill="#FCE4BE"/>
<path d="M9.54145 14.8302C9.89859 14.8302 10.1881 14.3781 10.1881 13.8204C10.1881 13.2627 9.89859 12.8105 9.54145 12.8105C9.1843 12.8105 8.89478 13.2627 8.89478 13.8204C8.89478 14.3781 9.1843 14.8302 9.54145 14.8302Z" fill="#916547"/>
<path d="M12.4904 14.6865C12.9088 14.2699 13.0318 13.7616 12.765 13.5511C12.4982 13.3406 11.9427 13.5076 11.5243 13.9242C11.1058 14.3408 10.9829 14.8492 11.2497 15.0597C11.5165 15.2702 12.0719 15.1031 12.4904 14.6865Z" fill="#916547"/>
<path d="M8.89467 13.8205C8.89467 13.3432 9.10695 12.9442 9.39193 12.8388C9.39193 12.8351 9.39221 12.8314 9.39221 12.8277C9.39221 11.5673 8.44594 9.93253 7.27862 9.93253C6.1113 9.93253 5.16504 11.5673 5.16504 12.8277C5.16504 14.088 6.1113 14.8372 7.27862 14.8372C7.94681 14.8372 8.54216 14.5914 8.92948 14.145C8.90727 14.0431 8.89467 13.9342 8.89467 13.8205Z" fill="#FCE4BE"/>
<path d="M11.4722 13.9828C11.4777 13.9298 11.4813 13.8758 11.4813 13.8204C11.4813 13.2626 11.1918 12.8105 10.8347 12.8105C10.4776 12.8105 10.188 13.2626 10.188 13.8204C10.188 14.3781 10.4775 14.8302 10.8347 14.8302C10.932 14.8302 11.0239 14.7956 11.1067 14.7355C11.1096 14.5122 11.2381 14.2344 11.4722 13.9828Z" fill="#916547"/>
<path d="M14.1575 10.9726C14.1574 10.8661 14.1461 10.7572 14.1218 10.6465C13.9389 9.81407 13.1029 9.27633 12.146 9.27929C11.0424 9.28275 10.1489 9.99599 10.1489 10.975V10.9783C10.1493 11.1562 10.3178 11.298 10.5184 11.298H13.7874C13.9907 11.298 14.1578 11.1527 14.1575 10.9726Z" fill="#916547"/>
<path d="M13.1814 12.5111C13.0451 12.1993 12.9085 11.7411 12.85 11.298H11.4569C11.3983 11.7411 11.2618 12.1993 11.1254 12.5111C11.0764 12.6233 11.0436 12.739 11.0264 12.8557C11.29 12.9833 11.4814 13.3669 11.4814 13.8205C11.4814 13.8759 11.4778 13.9299 11.4723 13.9829C11.4887 13.9653 11.5047 13.9478 11.5221 13.9305C11.9407 13.5141 12.4961 13.3471 12.7628 13.5577C12.8809 13.651 12.9222 13.8029 12.8956 13.9792C12.9476 13.9396 12.9942 13.8938 13.0322 13.8413C13.3199 13.4446 13.3737 12.9507 13.1814 12.5111Z" fill="#FEB872"/>
<path d="M5.16533 12.8276C5.16533 12.0795 5.49876 11.1995 6.01384 10.6077V7.67888C6.01384 7.24192 5.82022 6.82242 5.47467 6.51072L4.77174 5.87679C4.4262 5.56509 4.23257 5.14559 4.23257 4.70863V4.41853C4.23257 4.37163 4.26592 4.33128 4.31452 4.31264C4.52548 4.23174 4.66724 4.03618 4.63869 3.81428C4.60701 3.56818 4.35804 3.3891 4.07857 3.3891C3.52276 3.3891 2.66533 3.3891 2.10959 3.3891C1.83012 3.3891 1.58114 3.56818 1.54946 3.81428C1.52092 4.03618 1.66267 4.23168 1.87364 4.31264C1.92223 4.33128 1.95558 4.37163 1.95558 4.41853V4.70863C1.95558 5.14559 1.76196 5.56509 1.41641 5.87679L0.713486 6.51079C0.367941 6.82248 0.174316 7.24198 0.174316 7.67894V14.1808C0.174316 14.5433 0.505867 14.8372 0.91484 14.8372H5.27339C5.57841 14.8372 5.8402 14.6736 5.95362 14.4401C5.473 14.0979 5.16533 13.546 5.16533 12.8276Z" fill="#9BE5F9"/>
<path d="M5.16515 12.8275C5.16515 12.0794 5.49858 11.1995 6.01366 10.6077V7.67882C6.01366 7.33935 5.89551 7.01112 5.68135 6.7351C5.27328 6.8263 5.15972 7.06487 4.56945 7.06487C3.84007 7.06487 3.84007 6.6998 3.11061 6.6998C2.3813 6.6998 2.3813 7.06487 1.65199 7.06487C1.0482 7.06487 0.943002 6.81532 0.511193 6.72923C0.294035 7.00649 0.174072 7.33689 0.174072 7.67882V14.1808C0.174072 14.5432 0.505623 14.8371 0.914595 14.8371H5.27314C5.57817 14.8371 5.83995 14.6735 5.95337 14.4401C5.47282 14.0979 5.16515 13.5459 5.16515 12.8275Z" fill="#DAE6F1"/>
<path d="M5.60334 14.1159C5.52682 14.1386 5.4455 14.1522 5.36028 14.1522H0.827879C0.55168 14.1522 0.310153 14.0229 0.174316 13.8293V14.1808C0.174316 14.5433 0.505867 14.8372 0.91484 14.8372H5.27339C5.57841 14.8372 5.8402 14.6736 5.95362 14.4401C5.82314 14.3472 5.70554 14.2388 5.60334 14.1159Z" fill="#C7D7E5"/>
<path d="M9.99075 9.23795C10.3178 8.88312 10.3632 8.4996 10.2454 8.17038C9.45973 8.0253 8.71148 7.68405 8.10296 7.14471C7.92333 6.9855 7.76431 6.815 7.62339 6.63654C7.1395 6.64949 6.7251 6.90429 6.52757 7.26955C6.5 7.32052 6.43943 7.35051 6.37628 7.34298L6.37517 7.34286C6.24379 7.32731 6.10997 7.33891 5.97998 7.37199C6.00149 7.47257 6.01382 7.57513 6.01382 7.67905V10.6079C6.36653 10.2027 6.80447 9.93261 7.27889 9.93261C8.26512 9.93261 9.09344 11.0995 9.32675 12.2216C9.68622 11.8787 9.60699 11.3933 9.54307 11.1678C9.52225 11.0942 9.5618 11.0188 9.63623 10.9812C10.5812 10.505 10.1902 9.77933 9.97537 9.48615C9.91904 9.40919 9.92531 9.30892 9.99075 9.23795Z" fill="#87D147"/>
<path d="M7.66185 10.1146C7.5657 10.1146 7.48779 10.0455 7.48779 9.96033V8.02932C7.48779 7.9441 7.5657 7.87505 7.66185 7.87505C7.758 7.87505 7.83591 7.9441 7.83591 8.02932V9.96033C7.83591 10.0455 7.758 10.1146 7.66185 10.1146Z" fill="black"/>
<path d="M7.70788 9.55269C7.62865 9.55269 7.55701 9.50437 7.53842 9.43304C7.51684 9.35004 7.57525 9.26722 7.66896 9.24809C8.10885 9.15824 8.45572 8.78762 8.4592 8.78386C8.52012 8.71801 8.62971 8.7082 8.704 8.76201C8.77836 8.81582 8.78964 8.91277 8.72899 8.97873C8.71193 8.99731 8.30519 9.43476 7.74708 9.54868C7.73399 9.55139 7.72083 9.55269 7.70788 9.55269Z" fill="black"/>
<path d="M8.47502 10.6273C8.41883 10.6273 8.36376 10.6032 8.3302 10.5588C8.27673 10.488 8.29817 10.3922 8.3781 10.3448C8.78847 10.1014 9.05868 9.8117 9.06139 9.8088C9.12231 9.74296 9.2319 9.73333 9.30626 9.78721C9.38062 9.84114 9.39169 9.93821 9.33091 10.0041C9.31872 10.0173 9.02714 10.3311 8.57173 10.6012C8.54193 10.6188 8.50823 10.6273 8.47502 10.6273Z" fill="black"/>
<path d="M7.59486 9.12085C7.58191 9.12085 7.56875 9.11956 7.55559 9.1169C6.99755 9.00293 6.59081 8.56553 6.57375 8.54696C6.51303 8.48087 6.52431 8.38367 6.59888 8.32992C6.67338 8.27618 6.78283 8.28617 6.84354 8.35202C6.84772 8.35652 7.19431 8.72647 7.63378 8.81626C7.72742 8.83539 7.78591 8.9182 7.76432 9.00126C7.7458 9.0726 7.67409 9.12085 7.59486 9.12085Z" fill="black"/>
<path d="M9.34392 12.3586C9.30305 12.3586 9.26204 12.346 9.22897 12.3201C9.15684 12.2638 9.14981 12.1663 9.21331 12.1024C9.49417 11.8196 9.43457 11.4189 9.374 11.2053C9.33466 11.0664 9.407 10.9191 9.54987 10.847C9.82461 10.7085 9.9915 10.5379 10.0459 10.3399C10.1283 10.0399 9.94548 9.72887 9.82906 9.57009C9.73117 9.43649 9.74182 9.26377 9.85559 9.14035C10.1744 8.79453 10.1585 8.46333 10.0891 8.24649C10.0629 8.16454 10.1165 8.07919 10.209 8.05593C10.3013 8.03273 10.3977 8.08024 10.424 8.16225C10.5541 8.56873 10.448 8.98539 10.1252 9.3356C10.1076 9.35473 10.1059 9.38138 10.121 9.40206C10.2679 9.60255 10.4975 10.0005 10.3841 10.4129C10.3061 10.6968 10.0833 10.9331 9.72191 11.1153C9.71467 11.1189 9.71022 11.1253 9.71161 11.1302C9.78875 11.4025 9.8606 11.9176 9.47454 12.3063C9.44028 12.341 9.39224 12.3586 9.34392 12.3586Z" fill="black"/>
<path d="M6.01353 7.51802C5.93576 7.51802 5.86488 7.4715 5.84497 7.40158C5.82137 7.31901 5.87776 7.23509 5.97099 7.21417C6.10919 7.18313 6.24628 7.17418 6.37885 7.18763C6.60478 6.78356 7.05748 6.51469 7.56476 6.48445C7.66091 6.47958 7.74369 6.54308 7.7501 6.62805C7.75657 6.71303 7.68403 6.78658 7.58808 6.79232C7.19958 6.81546 6.85334 7.02379 6.68443 7.33604C6.62379 7.44805 6.49046 7.5121 6.35281 7.49562C6.25763 7.48427 6.15821 7.49038 6.05642 7.51321C6.04208 7.51648 6.02766 7.51802 6.01353 7.51802ZM6.39793 7.18973H6.39807C6.398 7.18979 6.398 7.18973 6.39793 7.18973Z" fill="black"/>
<path d="M14.1414 1.79251C12.4766 0.316977 9.76769 0.316915 8.10284 1.79251C6.43805 3.2681 6.43805 5.66902 8.10284 7.14462C9.76762 8.62009 12.4765 8.62021 14.1414 7.14462C15.8063 5.66909 15.8063 3.26816 14.1414 1.79251ZM8.60142 2.23447C9.84463 1.13259 11.7852 1.01602 13.1763 1.88631C13.2871 1.95561 13.2981 2.09803 13.2022 2.183L8.54328 6.31228C8.44741 6.39726 8.28671 6.38744 8.20853 6.28933C7.22717 5.05693 7.358 3.33654 8.60142 2.23447ZM13.6428 6.70272C12.3994 7.80478 10.4584 7.92074 9.0679 7.05088C8.95713 6.98158 8.94613 6.83916 9.042 6.75418L13.7009 2.6249C13.7968 2.53993 13.9575 2.54974 14.0357 2.64786C15.0171 3.88032 14.8863 5.60065 13.6428 6.70272Z" fill="#FC657E"/>
<path d="M4.24474 4.50276H3.20775C3.1116 4.50276 3.03369 4.43371 3.03369 4.34849C3.03369 4.26327 3.1116 4.19421 3.20775 4.19421H4.24474C4.34089 4.19421 4.4188 4.26327 4.4188 4.34849C4.4188 4.43371 4.34089 4.50276 4.24474 4.50276Z" fill="black"/>
<path d="M11.122 8.40549C9.98402 8.40549 8.84601 8.0216 7.97968 7.25375C6.24701 5.71799 6.24701 3.2192 7.97968 1.68344C9.71235 0.147807 12.5316 0.147745 14.2644 1.68344C15.9971 3.21914 15.9971 5.71799 14.2644 7.25375C13.398 8.02154 12.26 8.40549 11.122 8.40549ZM11.122 0.840061C10.0731 0.840061 9.02425 1.1939 8.2258 1.90158C6.6289 3.31701 6.6289 5.62012 8.2258 7.03555C9.82277 8.45085 12.4212 8.45091 14.0183 7.03555C15.6152 5.62012 15.6152 3.31701 14.0183 1.90158C13.2197 1.1939 12.1708 0.840061 11.122 0.840061ZM11.1222 7.78488C10.3729 7.78488 9.61961 7.58495 8.96737 7.17686C8.87344 7.11811 8.81398 7.02586 8.8041 6.92367C8.79407 6.82006 8.83592 6.71855 8.91877 6.64505L13.5777 2.51578C13.6605 2.44234 13.7751 2.40532 13.892 2.41414C14.0073 2.4229 14.1114 2.47567 14.1777 2.55885C15.2294 3.87949 15.0561 5.66807 13.7657 6.81173C13.0402 7.45486 12.0846 7.78488 11.1222 7.78488ZM13.8581 2.72145C13.8491 2.72145 13.8356 2.72355 13.8239 2.73398L9.16496 6.86326C9.1511 6.87554 9.15027 6.88991 9.15097 6.89738C9.15173 6.90546 9.15535 6.91682 9.16816 6.92478C10.5193 7.77013 12.3494 7.6308 13.5197 6.59359C14.6899 5.55638 14.847 3.93435 13.8933 2.73676C13.8844 2.7254 13.8716 2.72226 13.8624 2.72151C13.8611 2.72151 13.8597 2.72145 13.8581 2.72145ZM13.6427 6.70269H13.6434H13.6427ZM8.38607 6.52422C8.37472 6.52422 8.36338 6.52379 8.35203 6.52293C8.2368 6.51417 8.13264 6.46147 8.06636 6.37822C7.01469 5.05758 7.18791 3.269 8.47833 2.12534C9.76867 0.981561 11.7867 0.82809 13.2766 1.76021C13.3705 1.81902 13.4301 1.91127 13.4399 2.01346C13.4499 2.11707 13.4081 2.21858 13.3252 2.29202L8.66631 6.42129C8.59154 6.48763 8.49093 6.52422 8.38607 6.52422ZM11.1219 1.46098C10.2491 1.46098 9.38247 1.76027 8.72438 2.34355C7.55413 3.38076 7.39699 5.00272 8.3507 6.20037C8.35969 6.21167 8.3725 6.21488 8.38162 6.21562C8.39011 6.21623 8.40626 6.21549 8.42012 6.20321L13.079 2.07394C13.0929 2.06166 13.0937 2.04728 13.093 2.03981C13.0923 2.03173 13.0886 2.02037 13.0758 2.01235C12.4844 1.64234 11.8013 1.46098 11.1219 1.46098ZM8.60135 2.23444H8.60205H8.60135Z" fill="black"/>
<path d="M9.54143 14.9846C9.08122 14.9846 8.7207 14.4732 8.7207 13.8205C8.7207 13.1677 9.08122 12.6564 9.54143 12.6564C10.0017 12.6564 10.3622 13.1677 10.3622 13.8205C10.3621 14.4732 10.0017 14.9846 9.54143 14.9846ZM9.54143 12.9649C9.31794 12.9649 9.06882 13.3163 9.06882 13.8205C9.06882 14.3247 9.31787 14.676 9.54143 14.676C9.765 14.676 10.014 14.3247 10.014 13.8205C10.014 13.3163 9.76493 12.9649 9.54143 12.9649Z" fill="black"/>
<path d="M9.54143 14.9846C9.08122 14.9846 8.7207 14.4732 8.7207 13.8205C8.7207 13.1677 9.08122 12.6564 9.54143 12.6564C10.0017 12.6564 10.3622 13.1677 10.3622 13.8205C10.3621 14.4732 10.0017 14.9846 9.54143 14.9846ZM9.54143 12.9649C9.31794 12.9649 9.06882 13.3163 9.06882 13.8205C9.06882 14.3247 9.31787 14.676 9.54143 14.676C9.765 14.676 10.014 14.3247 10.014 13.8205C10.014 13.3163 9.76493 12.9649 9.54143 12.9649Z" fill="black"/>
<path d="M11.544 15.31C11.3847 15.31 11.2419 15.2683 11.1311 15.1808C10.9533 15.0404 10.8916 14.8139 10.9572 14.5428C11.0153 14.3027 11.1698 14.0487 11.3919 13.8278C11.8818 13.3403 12.5348 13.1711 12.8784 13.4424C13.2219 13.7137 13.1074 14.308 12.6175 14.7955C12.2856 15.1258 11.8787 15.31 11.544 15.31ZM12.4616 13.6204C12.247 13.6204 11.9301 13.7561 11.6519 14.0331C11.4718 14.2122 11.3427 14.4216 11.2976 14.6076C11.2599 14.7631 11.2837 14.8881 11.3627 14.9505C11.5295 15.0823 11.9792 14.9669 12.3576 14.5903C12.736 14.2138 12.8137 13.8047 12.6469 13.6729C12.6026 13.6379 12.5387 13.6204 12.4616 13.6204ZM12.4876 14.6929H12.4882H12.4876Z" fill="black"/>
<path d="M7.27885 14.9914C5.9319 14.9914 4.99121 14.1016 4.99121 12.8276C4.99121 12.1723 5.2319 11.4249 5.63503 10.8281C6.09239 10.151 6.67619 9.77814 7.27885 9.77814C7.88152 9.77814 8.46539 10.151 8.92275 10.8281C9.32588 11.4249 9.56657 12.1723 9.56657 12.8276C9.56657 12.9128 9.48866 12.9818 9.39251 12.9818C9.29636 12.9818 9.21845 12.9128 9.21845 12.8276C9.21845 11.6194 8.30525 10.0867 7.27892 10.0867C6.25259 10.0867 5.3394 11.6194 5.3394 12.8276C5.3394 13.9373 6.11884 14.6829 7.27892 14.6829C7.89754 14.6829 8.43302 14.4605 8.78671 14.0567C8.84561 13.9895 8.95499 13.9773 9.03095 14.0295C9.10691 14.0818 9.12062 14.1787 9.06165 14.246C8.64655 14.7197 7.99675 14.9914 7.27885 14.9914Z" fill="black"/>
<path d="M10.8346 14.9846C10.3744 14.9846 10.0139 14.4732 10.0139 13.8205C10.0139 13.1677 10.3744 12.6564 10.8346 12.6564C11.2949 12.6564 11.6554 13.1677 11.6554 13.8205C11.6554 13.8695 11.6528 13.9206 11.6475 13.9765C11.6395 14.0614 11.555 14.1242 11.4595 14.1174C11.3637 14.1103 11.2926 14.0357 11.3006 13.9508C11.305 13.9034 11.3072 13.8608 11.3072 13.8205C11.3072 13.3163 11.0581 12.9649 10.8346 12.9649C10.6111 12.9649 10.362 13.3163 10.362 13.8205C10.362 14.3247 10.611 14.676 10.8346 14.676C10.8841 14.676 10.9353 14.6582 10.9866 14.6231C11.0627 14.5711 11.1721 14.5836 11.2307 14.651C11.2895 14.7185 11.2754 14.8154 11.1993 14.8674C11.0873 14.9441 10.9612 14.9846 10.8346 14.9846Z" fill="black"/>
<path d="M13.7875 11.4523H10.5184C10.2193 11.4523 9.97548 11.2398 9.97485 10.9786C9.97485 9.94143 10.9283 9.12884 12.1454 9.12502H12.1541C13.2207 9.12502 14.0994 9.73754 14.2926 10.617C14.3183 10.7339 14.3314 10.8535 14.3316 10.9724C14.3318 11.0998 14.2757 11.2198 14.1736 11.3104C14.0706 11.4018 13.9334 11.4523 13.7875 11.4523ZM12.1541 9.43356C12.1517 9.43356 12.1492 9.43356 12.1467 9.43356C11.107 9.43677 10.323 10.0995 10.323 10.975C10.3233 11.0694 10.4109 11.1437 10.5185 11.1437H13.7875C13.8404 11.1437 13.8901 11.1254 13.9275 11.0923C13.9638 11.0602 13.9837 11.0177 13.9836 10.9728C13.9835 10.8735 13.9725 10.7736 13.951 10.6759C13.7901 9.94365 13.0518 9.43356 12.1541 9.43356Z" fill="black"/>
<path d="M12.9091 14.1228C12.8616 14.1228 12.8142 14.1057 12.7798 14.0718C12.7154 14.0086 12.7211 13.911 12.7925 13.8539C12.8296 13.8243 12.8609 13.792 12.8856 13.7579C13.1412 13.4055 13.191 12.9603 13.019 12.5669C12.8697 12.2255 12.745 11.7811 12.6856 11.378C12.6731 11.2936 12.7403 11.2161 12.8356 11.2051C12.931 11.1944 13.0183 11.2536 13.0308 11.3381C13.0859 11.7123 13.2058 12.1404 13.3436 12.4554C13.5557 12.9404 13.494 13.4897 13.1784 13.9248C13.137 13.9819 13.0856 14.0351 13.0256 14.0831C12.9924 14.1097 12.9507 14.1228 12.9091 14.1228Z" fill="black"/>
<path d="M11.0305 12.9845C11.022 12.9845 11.0134 12.9839 11.0047 12.9828C10.9096 12.9703 10.844 12.8919 10.8581 12.8076C10.8783 12.6869 10.9136 12.5684 10.9631 12.4553C11.1009 12.1404 11.2207 11.7124 11.2759 11.3385C11.2883 11.254 11.3754 11.1946 11.471 11.2055C11.5663 11.2165 11.6335 11.294 11.6211 11.3784C11.5617 11.7811 11.437 12.2254 11.2877 12.5668C11.2475 12.6586 11.2189 12.7548 11.2025 12.8529C11.1897 12.9294 11.1154 12.9845 11.0305 12.9845Z" fill="black"/>
<path d="M5.27313 14.9914H0.914584C0.410296 14.9914 0 14.6278 0 14.1808V7.67892C0 7.19851 0.209221 6.74526 0.589091 6.40265L1.29195 5.76871C1.60748 5.48411 1.7812 5.10768 1.7812 4.70867V4.44498C1.50305 4.32804 1.34103 4.07047 1.37626 3.79679C1.41748 3.47646 1.73267 3.23486 2.10934 3.23486H4.07831C4.45498 3.23486 4.77017 3.47646 4.81138 3.79685C4.84661 4.07053 4.6846 4.32811 4.40645 4.44498V4.70867C4.40645 5.10762 4.58023 5.48411 4.8957 5.76871L5.59856 6.40271C5.97843 6.74538 6.18765 7.19858 6.18765 7.67898V10.6013C6.18765 10.6866 6.10974 10.7556 6.01359 10.7556C5.91744 10.7556 5.83953 10.6866 5.83953 10.6013V7.67898C5.83953 7.28003 5.66574 6.9036 5.35028 6.61894L4.64742 5.98488C4.26755 5.64227 4.0584 5.18901 4.0584 4.70861V4.41851C4.0584 4.31169 4.13178 4.2145 4.24527 4.17099C4.39573 4.11323 4.48429 3.97692 4.46556 3.83172C4.44474 3.66998 4.27465 3.54335 4.07838 3.54335H2.10941C1.91314 3.54335 1.74304 3.67004 1.72223 3.83172C1.7035 3.97692 1.79206 4.1133 1.94259 4.17099C2.05607 4.21456 2.12939 4.31169 2.12939 4.41851V4.70861C2.12939 5.18901 1.92017 5.64227 1.5403 5.98488L0.837441 6.61888C0.521903 6.90348 0.348191 7.27997 0.348191 7.67892V14.1808C0.348191 14.4576 0.602319 14.6829 0.914654 14.6829H5.2732C5.49043 14.6829 5.69123 14.5704 5.7848 14.3962C5.82609 14.3193 5.92976 14.2866 6.01679 14.3232C6.10361 14.3599 6.14044 14.4519 6.09915 14.5288C5.94807 14.8099 5.6239 14.9914 5.27313 14.9914Z" fill="black"/>
<path d="M4.56943 7.21921C4.15893 7.21921 3.94407 7.11165 3.75441 7.01674C3.58014 6.92949 3.42954 6.85414 3.11059 6.85414C2.79164 6.85414 2.64119 6.92949 2.46685 7.01674C2.27726 7.11165 2.06233 7.21921 1.6519 7.21921C1.24146 7.21921 1.02618 7.1119 0.836177 7.01724C0.735153 6.96688 0.639837 6.91937 0.515906 6.88931C0.423166 6.86685 0.368511 6.782 0.393924 6.6998C0.419267 6.61761 0.514931 6.56923 0.60774 6.59169C0.773098 6.63174 0.897308 6.69363 1.00683 6.74831C1.18172 6.83544 1.33267 6.91073 1.65197 6.91073C1.97091 6.91073 2.12137 6.83538 2.29571 6.74812C2.4853 6.65321 2.70023 6.54565 3.11066 6.54565C3.5211 6.54565 3.73603 6.65321 3.92562 6.74812C4.09995 6.83538 4.25055 6.91073 4.5695 6.91073C4.88873 6.91073 5.0396 6.83544 5.21436 6.74825C5.31399 6.69851 5.41704 6.64717 5.5519 6.60798C5.64318 6.58138 5.74156 6.62551 5.77149 6.70653C5.80143 6.78749 5.75165 6.87463 5.6603 6.90116C5.55796 6.93091 5.47399 6.97281 5.38508 7.01717C5.19514 7.11184 4.97987 7.21921 4.56943 7.21921Z" fill="black"/>
<path d="M5.35988 14.3064H0.827551C0.503868 14.3064 0.206364 14.1614 0.0316766 13.9185C-0.0199845 13.8466 0.0038966 13.7513 0.0849392 13.7055C0.166051 13.6598 0.273551 13.6809 0.325282 13.7527C0.435636 13.9062 0.623413 13.9979 0.827551 13.9979H5.35988C5.41377 13.9979 5.46933 13.9905 5.52482 13.976C5.61707 13.9518 5.71385 13.9984 5.74107 14.0801C5.76829 14.1618 5.71573 14.2477 5.62355 14.2718C5.53596 14.2948 5.44726 14.3064 5.35988 14.3064Z" fill="black"/>
<path d="M9.41224 5.64323C9.38801 5.64323 9.3635 5.63873 9.34004 5.62922C8.90343 5.45249 8.51284 5.20744 8.17927 4.90099C7.90411 4.64817 7.90411 4.25212 8.17927 3.9993C8.90364 3.33382 9.87663 2.96727 10.919 2.96727C11.2855 2.96727 11.6491 3.01392 11.9998 3.10593C12.0919 3.13012 12.1446 3.21596 12.1173 3.2976C12.09 3.3793 11.9933 3.42602 11.901 3.40176C11.5825 3.31821 11.2521 3.27582 10.919 3.27582C9.97202 3.27582 9.088 3.6088 8.42984 4.21349C8.28781 4.34394 8.28781 4.55628 8.42984 4.68674C8.73299 4.96529 9.08793 5.18794 9.48465 5.34857C9.5721 5.38399 9.6106 5.47551 9.57064 5.55301C9.54139 5.60978 9.47825 5.64323 9.41224 5.64323Z" fill="black"/>
<path d="M13.7364 4.32589C13.6049 4.32589 13.4817 4.27991 13.3894 4.19648C13.1638 3.99235 12.9073 3.81715 12.6268 3.67553C12.5432 3.63338 12.5141 3.53921 12.5617 3.4651C12.6093 3.39111 12.7155 3.36526 12.7991 3.4074C13.1076 3.56316 13.39 3.75594 13.6381 3.9805C13.6898 4.02727 13.7803 4.0282 13.8315 3.98198C14.0124 3.81827 14.2161 3.66887 14.4371 3.53792C14.5169 3.49046 14.6251 3.50959 14.6785 3.58038C14.732 3.65116 14.7105 3.74699 14.6306 3.79438C14.4295 3.91354 14.2443 4.0493 14.0802 4.1979C13.9889 4.28041 13.8668 4.32589 13.7364 4.32589Z" fill="black"/>
<path d="M10.9192 5.93299C10.6873 5.93299 10.4528 5.91374 10.2221 5.87573C10.1276 5.86018 10.0652 5.77965 10.0828 5.69584C10.1003 5.6121 10.1916 5.55669 10.2857 5.57236C10.4955 5.60692 10.7086 5.62445 10.9193 5.62445C11.856 5.62445 12.7332 5.29751 13.3895 4.70381C13.4818 4.62031 13.605 4.57434 13.7365 4.57434C13.8669 4.57434 13.9889 4.61976 14.0801 4.70226C14.2387 4.84568 14.4165 4.97706 14.6084 5.09276C14.6879 5.14065 14.7085 5.2366 14.6545 5.30708C14.6005 5.37755 14.4922 5.39594 14.4127 5.34793C14.2017 5.22081 14.0062 5.07628 13.8314 4.91825C13.8062 4.89548 13.7725 4.88295 13.7364 4.88295C13.6992 4.88295 13.6643 4.89603 13.638 4.91979C12.9158 5.5731 11.9502 5.93299 10.9192 5.93299Z" fill="black"/>
<path d="M9.34847 4.35753H9.20922C9.11307 4.35753 9.03516 4.28847 9.03516 4.20325C9.03516 4.11803 9.11307 4.04898 9.20922 4.04898H9.34847C9.44462 4.04898 9.52253 4.11803 9.52253 4.20325C9.52253 4.28847 9.44462 4.35753 9.34847 4.35753Z" fill="black"/>
<path d="M9.91987 5.24267C9.90052 5.24267 9.88088 5.23983 9.86167 5.23372C9.77108 5.20521 9.72374 5.11696 9.75584 5.03674C9.83208 4.84655 9.87065 4.64915 9.87065 4.45007C9.87065 4.08778 9.74699 3.73967 9.51292 3.44335C9.45777 3.37355 9.47699 3.27735 9.55574 3.22847C9.63448 3.17966 9.74303 3.19657 9.79817 3.26643C10.0733 3.6149 10.2188 4.02422 10.2188 4.45013C10.2188 4.6845 10.1734 4.91665 10.0838 5.14004C10.0586 5.20323 9.99152 5.24267 9.91987 5.24267Z" fill="black"/>
</svg>
