<svg width="16" height="17" viewBox="0 0 16 17" fill="none" xmlns="http://www.w3.org/2000/svg">
<g clip-path="url(#clip0_2613_7672)">
<path d="M5.0232 15.1734C4.68214 11.9734 2.69787 6.94539 0.362936 4.00192C0.296733 3.92042 0.262604 3.81754 0.266975 3.71263C0.271346 3.60772 0.313916 3.50803 0.38667 3.43232L0.934937 2.86645C0.973663 2.81148 1.02407 2.76575 1.08254 2.73254C1.14102 2.69934 1.20611 2.67947 1.27316 2.67437C1.34021 2.66928 1.40756 2.67907 1.47038 2.70306C1.53321 2.72705 1.58995 2.76463 1.63654 2.81312C4.2232 5.87499 5.6 9.86672 5.86667 11.2001C6.09871 10.233 6.49884 9.31425 7.0488 8.48565C6.6024 7.16592 5.59707 3.18299 8.91547 1.12032C11.0251 -0.19248 14.1955 0.323253 15.5021 0.621653C15.5538 0.63345 15.6014 0.658979 15.6398 0.695547C15.6782 0.732116 15.706 0.778368 15.7203 0.829427C15.7346 0.880486 15.7349 0.93446 15.7211 0.985657C15.7073 1.03685 15.6799 1.08338 15.6419 1.12032C15.284 1.46992 14.7488 2.16192 14.3672 3.49525C13.6856 5.87019 13.5744 6.80805 12.5917 7.67499C11.1491 8.94752 8.5736 8.92672 8.5736 8.92672C7.79547 9.96166 6.80187 12.9187 6.24054 15.2609C6.20791 15.3955 6.13099 15.5153 6.02214 15.601C5.91329 15.6866 5.7788 15.7333 5.64027 15.7334C5.4863 15.7331 5.3379 15.6757 5.22388 15.5722C5.10986 15.4688 5.03834 15.3266 5.0232 15.1734Z" fill="#8EC140"/>
<path d="M12.7199 2.83204C10.4603 4.30596 8.52928 6.23059 7.04792 8.48537C6.98659 8.3067 6.91725 8.08004 6.85059 7.81604C8.33519 5.65386 10.233 3.80683 12.4346 2.38137C12.4946 2.34443 12.5666 2.3324 12.6354 2.34785C12.7041 2.36329 12.7641 2.40499 12.8026 2.46404C12.8216 2.49354 12.8346 2.52654 12.8407 2.5611C12.8468 2.59567 12.846 2.63111 12.8384 2.66536C12.8307 2.69961 12.8162 2.73199 12.7959 2.7606C12.7756 2.78922 12.7497 2.8135 12.7199 2.83204Z" fill="#738E43"/>
</g>
<defs>
<clipPath id="clip0_2613_7672">
<path d="M0 4.5317C0 2.32256 1.79086 0.531693 4 0.531693H16V16.3292H4C1.79086 16.3292 0 14.5383 0 12.3292V4.5317Z" fill="white"/>
</clipPath>
</defs>
</svg>
