<svg width="18" height="18" viewBox="0 0 18 18" fill="none" xmlns="http://www.w3.org/2000/svg">
<path d="M15.6913 16.5649C15.3547 16.455 15.0124 16.3629 14.6661 16.289C14.646 16.2849 14.6255 16.2828 14.6049 16.2828C14.4866 16.2826 14.3732 16.2356 14.2895 16.1519C14.2058 16.0682 14.1588 15.9548 14.1586 15.8365V11.0709C14.1584 10.9886 14.1864 10.9087 14.2381 10.8447C14.2897 10.7806 14.3618 10.7363 14.4422 10.719C15.3946 10.507 16.2463 9.97667 16.8567 9.21548C17.4672 8.4543 17.7999 7.50776 17.8 6.53203C17.8 6.52695 17.8 6.52186 17.7996 6.51686L17.4962 0.488288C17.4923 0.410533 17.4587 0.337248 17.4023 0.283591C17.3458 0.229935 17.271 0.200012 17.1931 0.200012H9.30346C9.22561 0.200012 9.15073 0.229935 9.09432 0.283591C9.03791 0.337248 9.00428 0.410533 9.00039 0.488288L8.70942 6.26898H0.50346C0.422981 6.26898 0.345798 6.30095 0.28889 6.35786C0.231983 6.41476 0.200012 6.49195 0.200012 6.57243C0.200012 8.61858 2.21586 10.2876 4.16472 10.719C4.24516 10.7363 4.31724 10.7806 4.36887 10.8447C4.4205 10.9087 4.44854 10.9886 4.44829 11.0709V15.8365C4.44815 15.9548 4.40108 16.0682 4.31742 16.1519C4.23375 16.2356 4.12031 16.2826 4.00199 16.2828C3.97786 16.2828 3.95382 16.2856 3.93038 16.2913C3.63228 16.3666 3.339 16.4598 3.05216 16.5704C2.60935 16.7443 2.0207 17.0295 2.0207 17.4966C2.0207 17.577 2.05267 17.6542 2.10958 17.7111C2.16649 17.768 2.24367 17.8 2.32415 17.8H8.69656C8.77704 17.8 8.85423 17.768 8.91113 17.7111C8.96804 17.6542 9.00001 17.577 9.00001 17.4966C9.00001 17.1279 8.63045 16.8405 7.8017 16.5649C7.465 16.455 7.12277 16.3629 6.77642 16.289C6.7563 16.2849 6.73581 16.2828 6.71527 16.2828C6.59695 16.2826 6.48352 16.2356 6.39985 16.1519C6.31618 16.0682 6.26912 15.9548 6.26898 15.8365V11.0709C6.26873 10.9886 6.29678 10.9087 6.34841 10.8447C6.40005 10.7806 6.47214 10.7363 6.55259 10.719C7.52074 10.5047 8.49629 9.98129 9.22908 9.28302C9.32044 9.19595 9.40715 9.10686 9.48921 9.01575C10.1059 9.87946 11.019 10.4858 12.0544 10.7189C12.1348 10.7361 12.207 10.7805 12.2586 10.8446C12.3102 10.9087 12.3382 10.9886 12.3379 11.0709V15.8365C12.3378 15.9548 12.2907 16.0682 12.2071 16.1519C12.1234 16.2356 12.01 16.2826 11.8916 16.2828C11.8675 16.2828 11.8435 16.2856 11.82 16.2913C11.5219 16.3666 11.2287 16.4598 10.9418 16.5704C10.499 16.7443 9.91036 17.0295 9.91036 17.4966C9.91036 17.577 9.94233 17.6542 9.99924 17.7111C10.0561 17.768 10.1333 17.8 10.2138 17.8H16.5862C16.6667 17.8 16.7439 17.768 16.8008 17.7111C16.8577 17.6542 16.8897 17.577 16.8897 17.4966C16.8897 17.1279 16.5201 16.8405 15.6913 16.5649ZM6.42142 10.1266C6.20576 10.173 6.01262 10.2922 5.87437 10.4641C5.73612 10.636 5.66117 10.8502 5.66208 11.0709V15.8365C5.6624 16.1099 5.76889 16.3724 5.95909 16.5688C6.14928 16.7652 6.40831 16.8801 6.68155 16.8891C7.04748 16.9656 7.4077 17.0672 7.75967 17.1931H3.13227C3.42642 17.0665 3.73067 16.9647 4.04182 16.8889C4.31394 16.8783 4.57141 16.7628 4.7603 16.5666C4.94919 16.3705 5.05486 16.1088 5.05518 15.8365V11.0709C5.05614 10.8502 4.98122 10.636 4.84297 10.464C4.70473 10.292 4.51157 10.1728 4.29588 10.1264C2.71768 9.77707 1.02175 8.46071 0.825874 6.87587H9.89139C9.69552 8.46071 7.99958 9.77707 6.42142 10.1266ZM11.0232 17.1931C11.0862 17.1658 11.1569 17.1372 11.2363 17.1074C11.4645 17.023 11.6969 16.9501 11.9325 16.8889C12.2044 16.878 12.4616 16.7624 12.6503 16.5663C12.839 16.3701 12.9445 16.1086 12.9448 15.8365V11.0709C12.9458 10.8502 12.8709 10.636 12.7326 10.464C12.5944 10.292 12.4012 10.1728 12.1855 10.1264C11.2363 9.91241 10.4092 9.33361 9.88312 8.51499C10.2963 7.90415 10.5173 7.23679 10.5173 6.57243C10.5173 6.49195 10.4853 6.41476 10.4284 6.35786C10.3715 6.30095 10.2943 6.26898 10.2138 6.26898H9.31708L9.592 0.806909H16.9046L17.1931 6.53954C17.1913 7.37582 16.905 8.18659 16.3812 8.83851C15.8574 9.49043 15.1273 9.94469 14.311 10.1266C14.0954 10.173 13.9022 10.2922 13.764 10.4641C13.6258 10.636 13.5508 10.8503 13.5517 11.0709V15.8365C13.5521 16.1099 13.6585 16.3724 13.8487 16.5688C14.0389 16.7652 14.298 16.8801 14.5712 16.8891C14.9371 16.9656 15.2974 17.0672 15.6493 17.1931H11.0232Z" fill="#091F5A"/>
</svg>
