<svg id="Capa_1" enable-background="new 0 0 512 512" height="512" viewBox="0 0 512 512" width="512" xmlns="http://www.w3.org/2000/svg"><g><g><path d="m412.713 233.163c2.816-2.109 6.6-2.508 9.803-1.052 2.551 1.159 5.301 1.993 8.208 2.437 14.908 2.278 28.96-6.372 34.028-19.966 1.091-2.926 3.55-5.154 6.563-5.972 15.866-4.307 28.441-17.782 30.653-35.249 2.745-21.667-11.898-42.069-33.31-46.37-10.52-2.114-20.821-.118-29.334 4.82-3.032 1.759-6.775 1.924-9.833.21-4.384-2.457-9.395-3.95-14.758-4.179-15.476-.662-28.922 9.409-33.151 23.608-.871 2.923-3.121 5.216-5.951 6.354-9.113 3.667-16.108 11.914-17.7 22.327-1.516 9.919 2.239 19.424 9.168 25.681-.001.004-.001.008-.002.011-2.397 15.687 8.377 30.346 24.064 32.743 7.934 1.213 15.6-.946 21.552-5.403z" fill="#a3e440"/><path d="m464.75 214.578c-5.062 13.602-19.119 22.251-34.032 19.968-2.904-.443-5.649-1.279-8.204-2.433-3.202-1.451-6.982-1.053-9.798 1.05-5.954 4.462-13.621 6.62-21.55 5.406-12.213-1.872-21.446-11.165-23.806-22.587 2.012.807 4.147 1.393 6.378 1.736 7.929 1.214 15.597-.944 21.55-5.406 2.816-2.103 6.596-2.501 9.798-1.05 2.555 1.155 5.3 1.99 8.213 2.441 14.904 2.276 28.961-6.374 34.023-19.975 1.089-2.919 3.549-5.15 6.57-5.969 15.866-4.304 28.442-17.781 30.654-35.242.902-7.078-.059-14.019-2.516-20.299 13.774 8.374 22.065 24.387 19.934 41.143-2.202 17.469-14.778 30.946-30.644 35.25-3.02.817-5.48 3.048-6.57 5.967z" fill="#8dc637"/></g><g><path d="m322.018 265.331c2.883.196 5.452 1.974 6.667 4.596.967 2.088 2.233 4.08 3.805 5.913 8.061 9.403 21.442 11.545 31.879 5.796 2.246-1.237 4.971-1.307 7.285-.202 12.185 5.817 27.231 4.162 37.964-5.527 13.314-12.019 15.125-32.564 4.099-46.711-5.418-6.951-12.899-11.225-20.844-12.711-2.83-.529-5.248-2.431-6.234-5.136-1.413-3.878-3.733-7.491-6.95-10.506-9.281-8.701-23.046-9.633-33.284-3.058-2.108 1.354-4.737 1.575-7.109.769-7.637-2.598-16.41-1.211-22.978 4.42-6.257 5.364-9.01 13.292-8.047 20.899-.002.002-.005.004-.007.006-9.894 8.482-11.039 23.38-2.556 33.274 4.288 5.003 10.217 7.765 16.31 8.178z" fill="#0f7a4f"/><path d="m409.616 275.901c-10.731 9.694-25.778 11.347-37.958 5.531-2.323-1.099-5.048-1.037-7.293.201-10.437 5.753-23.816 3.613-31.874-5.79-1.581-1.836-2.84-3.835-3.812-5.918-1.213-2.625-3.779-4.392-6.67-4.592-6.086-.409-12.016-3.175-16.303-8.178-5.427-6.331-6.916-14.705-4.684-22.135 3.782 2.988 8.315 4.659 12.947 4.976 2.882.193 5.45 1.977 6.67 4.592.964 2.092 2.231 4.082 3.803 5.911 8.057 9.403 21.437 11.544 31.866 5.8 2.261-1.24 4.978-1.309 7.293-.201 12.18 5.816 27.228 4.163 37.958-5.531 6.667-6.011 10.441-14.156 11.176-22.564.337.391.657.783.978 1.192 11.028 14.15 9.212 34.694-4.097 46.706z" fill="#0c6842"/></g><g><path d="m209.276 80.3c.538 3.976-1.165 7.967-4.392 10.35-2.571 1.898-4.927 4.175-6.983 6.825-10.543 13.588-9.725 32.387 1.006 44.981 2.309 2.71 3.164 6.397 2.307 9.853-4.515 18.197 1.932 38.203 18.105 50.101 20.062 14.759 48.514 11.494 64.683-7.451 7.944-9.308 11.673-20.677 11.477-31.899-.07-3.997 1.843-7.817 5.248-9.912 4.88-3.004 9.149-7.167 12.354-12.384 9.248-15.051 6.677-34.035-5.122-46.128-2.429-2.49-3.464-6.004-3.028-9.455 1.404-11.113-2.929-22.66-12.421-30.024-9.041-7.015-20.594-8.549-30.673-5.118-.003-.003-.007-.006-.01-.008-14.298-11.094-34.882-8.496-45.975 5.802-5.609 7.228-7.713 16.063-6.576 24.467z" fill="#a3e440"/><path d="m293.629 177.108c-10.139.702-20.251-3.362-27.066-11.244-3.207-3.711-7.298-6.588-11.777-8.599-6.456-2.914-14.989-7.663-18.285-13.55-5.888-10.534-5.349-22.908.349-32.608 1.749-2.968 2.097-6.57.843-9.77-6.134-15.748-1.095-34.221 13.301-44.471 4.927-3.515 10.419-5.676 16.014-6.544 1.84-.295 3.543-.999 4.989-2.041 7.159-.097 14.413 2.142 20.516 6.877 9.492 7.362 13.821 18.907 12.416 30.029-.438 3.45.601 6.964 3.028 9.449 11.797 12.093 14.374 31.084 5.12 46.128-3.207 5.221-7.472 9.384-12.353 12.382-3.404 2.104-5.322 5.919-5.249 9.921.085 4.705-.526 9.447-1.846 14.041z" fill="#8dc637"/><path d="m260.398 189.025c-2.304 0-4.581-1.026-6.103-2.988-1.148-1.48-28.053-36.739-23.103-79.923.485-4.239 4.312-7.287 8.556-6.796 4.239.486 7.282 4.316 6.796 8.556-4.218 36.805 19.727 68.388 19.97 68.703 2.6 3.377 1.979 8.227-1.393 10.833-1.408 1.088-3.072 1.615-4.723 1.615z" fill="#79a72d"/></g><g><path d="m427.923 142.833c2.162-2.623 5.623-3.863 8.963-3.229 2.66.505 5.432.659 8.263.411 14.517-1.27 25.731-12.603 27.381-26.524.355-2.996 2.155-5.65 4.796-7.107 13.911-7.67 22.635-23.197 20.719-40.1-2.377-20.969-20.788-36.774-41.874-35.917-10.36.421-19.574 4.649-26.437 11.232-2.445 2.345-5.92 3.355-9.183 2.445-4.677-1.304-9.723-1.56-14.811-.549-14.68 2.917-25.001 15.446-25.724 29.743-.149 2.944-1.738 5.61-4.134 7.326-7.717 5.526-12.399 14.867-11.512 25.008.845 9.659 6.543 17.723 14.479 22.013 0 .004 0 .007.001.011 1.336 15.275 14.802 26.574 30.077 25.238 7.724-.677 14.427-4.456 18.996-10.001z" fill="#0f7a4f"/><g fill="#0c6842"><path d="m462.675 55.619c-3.84-1.856-8.457-.246-10.317 3.589-.104.215-6.114 12.392-17.891 26.365.108-3.08.037-6.356-.284-9.8-.397-4.248-4.161-7.369-8.408-6.974-.001 0-.002 0-.004 0-4.248.397-7.371 4.163-6.974 8.412 1.281 13.704-2.434 24.032-3.938 27.551-5.378 4.276-11.318 8.275-17.837 11.664-3.787 1.968-5.261 6.633-3.292 10.419 1.493 2.873 4.538 4.414 7.574 4.131.966-.09 1.931-.364 2.845-.839 41.135-21.384 61.287-62.474 62.125-64.212 1.851-3.841.239-8.451-3.599-10.306z"/><path d="m445.152 140.013c-2.835.248-5.613.096-8.262-.411-3.349-.631-6.803.612-8.969 3.23-4.564 5.55-11.268 9.321-18.997 10.006-12.634 1.097-24.041-6.451-28.358-17.753 3.18.907 6.572 1.265 10.058.96 7.722-.676 14.433-4.456 18.997-10.006 2.166-2.618 5.62-3.861 8.961-3.221 2.666.506 5.435.65 8.262.411 14.517-1.278 25.736-12.604 27.383-26.52.359-3.006 2.152-5.658 4.797-7.117 13.908-7.662 22.632-23.197 20.716-40.103-.631-5.583-2.407-10.797-5.056-15.43 12.48 5.79 21.722 17.779 23.355 32.223 1.916 16.907-6.8 32.433-20.716 40.103-2.645 1.458-4.438 4.111-4.799 7.1-1.644 13.933-12.862 25.259-27.372 26.528z"/></g></g><g><path d="m36.416 509.681-22.233-18.656c-5.308-4.454-6.001-12.369-1.547-17.677l7.678-9.15c1.276-1.521 1.865-3.495 1.622-5.465-1.574-12.759-3.926-64.427 50.641-115.555 62.873-58.91 237.132-210.649 237.132-210.649l50.896 42.707s-169.54 236.636-248.298 307.951c-13.289 12.033-36.886 12.524-46.482 12.172-2.732-.1-5.349 1.069-7.106 3.163l-8.338 9.937c-3.519 4.194-9.771 4.741-13.965 1.222z" fill="#bcea73"/><path d="m112.306 483.184c-13.282 12.035-36.885 12.52-46.486 12.176-2.731-.097-5.343 1.064-7.101 3.159l-8.34 9.939c-3.515 4.19-9.77 4.737-13.959 1.221l-22.236-18.659c-.345-.289-.665-.589-.969-.89 4.148 2.754 9.788 2.001 13.06-1.899l8.34-9.939c1.758-2.095 4.37-3.256 7.11-3.151 9.601.345 33.194-.148 46.486-12.176 78.754-71.314 248.296-307.952 248.296-307.952l24.095 20.218c0 .001-169.542 236.639-248.296 307.953z" fill="#99d53b"/><path d="m321.819 187.497-14.68-12.318c-58.712 49.459-189.668 171.09-207.859 206.232-8.307 16.048-13.216 28.449-16.071 37.91l-24.209 28.254c-2.742 3.269-2.316 8.142.953 10.885 1.448 1.214 3.21 1.807 4.962 1.807 2.205 0 4.395-.939 5.923-2.76l10.331-12.312c12.435-12.277 161.906-160.267 240.65-257.698z" fill="#79a72d"/></g><g><path d="m347.43 230.948c3.511-1.942 7.848-1.802 11.238.343 2.701 1.708 5.677 3.079 8.891 4.035 16.485 4.902 33.71-2.673 41.559-17.238 1.689-3.135 4.816-5.267 8.347-5.721 18.596-2.386 34.906-15.644 40.135-35.029 6.486-24.047-6.868-49.382-30.384-57.587-11.554-4.031-23.501-3.387-33.89.862-3.7 1.513-7.954 1.115-11.14-1.299-4.568-3.46-9.995-5.93-16.019-7.027-17.379-3.165-34.141 6.11-41.137 21.49-1.44 3.166-4.341 5.404-7.716 6.248-10.867 2.719-20.058 10.941-23.483 22.456-3.262 10.969-.505 22.292 6.344 30.443-.001.004-.003.008-.004.012-5.158 17.346 4.721 35.59 22.068 40.748 8.774 2.609 17.771 1.368 25.191-2.736z" fill="#5bbd93"/><path d="m417.468 212.362c-3.539.461-6.655 2.591-8.347 5.73-7.851 14.568-25.078 22.134-41.565 17.232-3.218-.954-6.187-2.332-8.89-4.029-3.389-2.149-7.721-2.291-11.239-.344-7.414 4.102-16.413 5.343-25.179 2.732-14.622-4.342-23.942-17.988-23.409-32.546 3.39 2.922 7.437 5.189 12 6.546 8.766 2.611 17.766 1.37 25.179-2.732 3.518-1.946 7.85-1.804 11.239.344 2.703 1.696 5.681 3.082 8.89 4.029 16.486 4.902 33.721-2.673 41.565-17.232 1.692-3.139 4.815-5.278 8.347-5.73 18.597-2.383 34.907-15.633 40.134-35.03 1.599-5.921 1.99-11.929 1.321-17.744 10.072 11.681 14.33 27.988 10.087 43.744-5.226 19.397-21.536 32.647-40.133 35.03z" fill="#1ca56f"/></g><g><path d="m352.89 139.718c1.057-3.87 4.183-6.88 8.085-7.814 3.108-.744 6.166-1.92 9.093-3.556 15.012-8.393 21.599-26.019 16.638-41.803-1.068-3.397-.415-7.125 1.724-9.972 11.262-14.989 13.139-35.924 2.896-53.193-12.706-21.421-40.175-29.525-62.458-18.398-10.948 5.467-18.82 14.477-23.022 24.885-1.497 3.707-4.749 6.477-8.702 7.076-5.666.859-11.221 3.026-16.209 6.577-14.391 10.245-19.437 28.726-13.297 44.466 1.264 3.241.844 6.88-.905 9.887-5.632 9.683-6.152 22.005-.289 32.491 5.584 9.988 15.62 15.912 26.239 16.689.002.004.004.008.006.012 8.831 15.796 28.795 21.442 44.591 12.611 7.988-4.466 13.375-11.778 15.61-19.958z" fill="#2db181"/><path d="m360.979 131.908c-3.902.93-7.033 3.943-8.089 7.816-2.235 8.17-7.619 15.489-15.614 19.953-14.219 7.958-31.818 4.162-41.631-8.214 5.429.012 10.933-1.335 16.003-4.173 7.995-4.464 13.372-11.774 15.614-19.953 1.056-3.874 4.187-6.887 8.089-7.816 3.102-.75 6.159-1.925 9.091-3.56 15.013-8.389 21.596-26.014 16.636-41.797-1.071-3.402-.414-7.131 1.724-9.974 11.267-14.993 13.142-35.92 2.9-53.199-2.336-3.938-5.18-7.437-8.4-10.432 13.762 2.09 26.487 10.11 34.028 22.819 10.233 17.271 8.367 38.206-2.9 53.199-2.138 2.842-2.795 6.572-1.724 9.974 4.96 15.783-1.623 33.408-16.636 41.797-2.932 1.635-5.988 2.81-9.091 3.56z" fill="#1ca56f"/></g><g fill="#0f7a4f"><path d="m422.08 162.26c-2.449-3.494-7.267-4.344-10.762-1.894-7.995 5.602-16.813 9.98-25.874 13.399 4.314-5.637 8.712-12.459 12.715-20.629 1.877-3.832.293-8.46-3.539-10.338-3.831-1.879-8.46-.293-10.338 3.539-10.935 22.318-25.162 32.976-29.072 35.605-29.103 5.261-53.975 3.317-54.381 3.283-4.245-.369-7.988 2.792-8.35 7.042-.362 4.252 2.791 7.992 7.042 8.355.772.065 6.113.491 14.437.491 5.102 0 11.328-.162 18.304-.663 4.921 4.505 15.89 13.275 30.845 17.748.739.221 1.484.326 2.217.326 3.326 0 6.397-2.165 7.399-5.515 1.222-4.088-1.101-8.393-5.188-9.616-4.806-1.437-9.125-3.463-12.824-5.596 21.339-3.554 45.393-10.706 65.474-24.777 3.496-2.448 4.344-7.265 1.895-10.76z"/><path d="m364.097 34.096c-2.832-3.19-7.714-3.481-10.907-.647-13.132 11.662-23.863 24.237-32.601 36.63l-2.391-6.551c-1.463-4.008-5.897-6.071-9.907-4.609-4.008 1.463-6.072 5.898-4.61 9.907l6.41 17.566c-18.809 32.103-24.615 59.448-24.971 61.186-.854 4.181 1.843 8.263 6.024 9.117.521.107 1.041.158 1.554.158 3.595 0 6.814-2.522 7.562-6.181.059-.288 3.001-14.145 11.485-33.395l28.79-10.874c3.992-1.508 6.005-5.966 4.498-9.958-1.509-3.992-5.966-6.006-9.959-4.497l-13.103 4.949c9.586-16.929 22.999-35.481 41.479-51.893 3.191-2.834 3.481-7.718.647-10.908z"/></g></g></svg>