<svg id="Capa_1" enable-background="new 0 0 512 512" height="512" viewBox="0 0 512 512" width="512" xmlns="http://www.w3.org/2000/svg"><path d="m413.333 143.836c-11.046 0-20 8.954-20 20v32.831c-13.302.523-30.915-1.994-56.134 4.992 1.588-12.354 1.542-24.931-.234-37.292-8.621-60.017-49.404-85.52-60.965-99.821v-44.546c0-11.046-8.954-20-20-20s-20 8.954-20 20v44.546c-11.667 14.431-52.36 39.909-60.965 99.821-1.775 12.361-1.821 24.937-.233 37.292-25.105-6.955-42.604-4.46-56.135-4.992v-32.831c0-11.046-8.954-20-20-20s-20 8.954-20 20v92.164c0 20.878 4.714 41.251 13.594 59.734-7.9 2.673-13.594 10.13-13.594 18.933v39.333c0 76.093 61.907 138 138 138h78.667c76.094 0 138-61.907 138-138v-39.333c0-8.802-5.694-16.26-13.593-18.933 8.88-18.482 13.593-38.856 13.593-59.734 0-13.152 0-79.03 0-92.164-.001-11.045-8.955-20-20.001-20zm-20 92.831c-1.198 10.639 5.876 44.081-19.514 78.002-38.214.049-72.834 15.714-97.819 40.939v-20.941c0-54.037 43.963-98 98-98zm-178.704-66.612c6.028-41.964 34.38-60.21 41.372-68.94 7.015 8.759 35.346 26.985 41.371 68.94 2.734 19.031-.261 38.767-8.432 56.036-13.075 10.266-24.268 22.824-32.939 37.083-8.672-14.259-19.865-26.818-32.94-37.084-8.171-17.269-11.166-37.005-8.432-56.035zm21.371 164.612v20.941c-24.985-25.225-59.606-40.89-97.819-40.939-25.404-33.94-18.308-67.288-19.514-78.002h19.333c54.038 0 98 43.962 98 98zm-117.333 39.333v-19.333h19.333c54.038 0 98 43.963 98 98v19.333h-19.333c-54.037 0-98-43.962-98-98zm274.666 0c0 54.038-43.963 98-98 98h-19.333v-19.333c0-54.037 43.963-98 98-98h19.333z"/></svg>