<svg id="Capa_1" enable-background="new 0 0 497 497" height="512" viewBox="0 0 497 497" width="512" xmlns="http://www.w3.org/2000/svg"><g><g><g><path d="m283.559 128.495c6.531-67.075-43.69-72.981-62.349-81.125-5.185-2.263-11.514-6.212-17.671-10.49l-96.767-9.421c-6.867 3.01-13.839 5.664-19.362 6.884-19.88 4.392-70.296.5-76.827 67.574-6.53 67.075-22.572 115.014 5.088 148.641 10.372 12.61 28.938 22.461 48.094 29.85 42.344 16.333 88.482 20.825 133.182 12.967 20.221-3.555 40.339-9.64 52.949-20.012 33.626-27.659 27.133-77.793 33.663-144.868z" fill="#fdd76f"/></g></g><g><g><path d="m63.765 280.409c42.344 16.333 88.482 20.825 133.182 12.967 20.221-3.555 40.339-9.64 52.949-20.012 33.626-27.659 27.134-77.793 33.664-144.868 3.772-38.743-11.39-57.077-28.467-67.224-6.637 6.566-45.352 58.99-59.164 119.723-116.554 26.866-132.164 99.414-132.164 99.414z" fill="#fdc352"/></g></g><g><g><path d="m488.656 250.947c27.015-61.74-18.896-82.933-34.109-96.464-4.227-3.76-9.019-9.477-13.545-15.454l-89.071-38.974c-7.461.732-14.913 1.092-20.542.538-20.262-1.991-66.984-21.331-93.999 40.409s-57.136 102.339-41.272 142.887c5.949 15.205 20.543 30.33 36.462 43.297 35.189 28.662 77.658 47.245 122.59 53.641 20.326 2.893 41.339 3.349 56.544-2.6 40.547-15.865 49.926-65.539 76.942-127.28z" fill="#fdd76f"/></g></g><g><g><g><path d="m454.547 154.483c-4.227-3.76-9.019-9.477-13.545-15.454l-12.914 2.952-2.959 13.009c45.728 41.151 60.702 34.357 33.526 95.957-27.201 61.658-36.395 111.415-76.942 127.279-4.824 1.887-10.235 3.126-16.021 3.851 16.864 1.603 33.433 1.074 46.021-3.851 40.548-15.864 49.927-65.539 76.942-127.279 27.016-61.74-18.896-82.933-34.108-96.464z" fill="#fdc352"/></g></g></g><g><g><path d="m348.897 277.116c-10.733-66.532-60.806-59.478-80.922-62.612-5.59-.871-12.715-3.081-19.757-5.654l-95.983 15.484c-5.876 4.657-11.944 8.995-16.977 11.58-18.11 9.301-67.861 18.351-57.127 84.883 10.733 66.532 7.404 116.974 42.702 142.466 13.237 9.559 33.697 14.368 54.102 16.645 45.105 5.033 90.87-2.35 132.104-21.311 18.654-8.578 36.563-19.577 46.123-32.814 25.491-35.298 6.468-82.135-4.265-148.667z" fill="#fdd76f"/></g></g><g><g><g><path d="m348.897 277.116c-8.442-52.332-41.221-59.136-64.619-61.182 15.024 7.884 28.533 23.457 33.67 55.297 11.085 68.715 30.365 117.149 5.035 153.445-9.499 13.611-27.367 24.869-45.992 33.625-28.299 13.304-58.768 20.952-89.722 22.671 41.068 2.526 82.29-5.14 119.77-22.375 18.654-8.578 36.563-19.577 46.123-32.814 25.491-35.298 6.468-82.135-4.265-148.667z" fill="#fdc352"/></g></g></g><g><g><path d="m203.54 36.88c-2.841-1.974-5.646-4.018-8.284-5.999-11.225-8.429-24.546-13.606-38.517-14.966-13.972-1.36-28.04 1.15-40.681 7.256-2.971 1.435-6.117 2.899-9.285 4.288 3.147 27.181 20.72 48.679 43.883 50.935 23.162 2.254 44.553-15.451 52.884-41.514z" fill="#f2f5fb"/></g></g><g><g><path d="m441.002 139.029c-2.089-2.758-4.121-5.571-6.015-8.273-8.057-11.495-19.114-20.549-31.974-26.176-12.86-5.627-27.014-7.605-40.925-5.722-3.269.443-6.714.859-10.158 1.196-5.44 26.816 4.598 52.706 25.918 62.035 21.322 9.33 47.15-.866 63.154-23.06z" fill="#f2f5fb"/></g></g><g><g><path d="m356.714 99.537c5.578 1.066 11.048 2.745 16.3 5.043 12.861 5.627 23.918 14.681 31.975 26.176 5.997 8.557 13.382 18.232 19.559 23.727.188.167.385.337.582.507 5.873-4.215 11.279-9.591 15.873-15.961-.001-.001-.002-.003-.002-.004-1.01-1.334-2.005-2.68-2.979-4.021-.072-.099-.143-.197-.215-.296-.958-1.322-1.896-2.638-2.8-3.927-.006-.008-.012-.016-.017-.024-5.539-7.903-12.496-14.652-20.482-19.927-1.452-.959-2.938-1.869-4.456-2.729-2.277-1.29-4.625-2.465-7.036-3.52-9.645-4.22-20.018-6.388-30.47-6.413-1.742-.004-3.486.051-5.23.166s-3.486.29-5.225.526c-1.745.236-3.542.464-5.361.677-.007-.001-.011 0-.016 0z" fill="#e6e8f0"/></g></g><g><g><path d="m248.218 208.85c-3.249-1.187-6.481-2.451-9.537-3.696-12.999-5.299-27.198-6.92-41.056-4.684-13.858 2.236-26.827 8.24-37.501 17.358-2.508 2.143-5.179 4.359-7.89 6.508 9.952 25.488 32.413 41.814 55.388 38.107 22.976-3.708 39.164-26.269 40.596-53.593z" fill="#f2f5fb"/></g></g></g></svg>