<svg height="512" viewBox="0 0 256 256" width="512" xmlns="http://www.w3.org/2000/svg"><g id="Layer_9"><g><g><path d="m157.448 86.896-6.216-6.325c-4.257-4.333-6.643-10.164-6.643-16.238v-4.03c0-.646.397-1.212.991-1.467 2.541-1.091 4.272-3.702 4.036-6.693-.279-3.526-3.408-6.153-6.945-6.153h-29.341c-3.537 0-6.667 2.627-6.945 6.153-.237 2.991 1.495 5.602 4.036 6.693.593.255.991.818.991 1.464v4.029c0 6.074-2.385 11.909-6.643 16.242l-8.66 8.813c-4.257 4.333-6.643 10.164-6.643 16.238v49.258z" fill="#9be5f9"/></g><g><path d="m89.465 194.698c0 6.644 5.386 12.03 12.03 12.03h53.011c6.644 0 12.03-5.386 12.03-12.03v-89.077c0-1.178-.116-2.342-.292-3.493l-76.778 76.778v15.792z" fill="#dae6f1"/></g><g><path d="m127.997 103.874c-10.617 0-10.617 5.996-21.235 5.996-9.079 0-10.399-4.382-17.228-5.652-.028.467-.069.933-.069 1.403v49.258l48.418-48.418c-2.432-1.35-5.064-2.587-9.886-2.587z" fill="#dae6f1"/></g><g><g><path d="m156.436 194.554h-56.872c-4.094 0-7.735-1.912-10.099-4.885v5.029c0 6.644 5.386 12.03 12.03 12.03h53.011c6.644 0 12.03-5.386 12.03-12.03v-5.029c-2.365 2.973-6.007 4.885-10.1 4.885z" fill="#c7d7e5"/></g></g><g><path d="m211.612 44.746c-46.138-46.138-121.082-46.141-167.224 0-46.103 46.104-46.103 121.121 0 167.224 46.139 46.138 121.082 46.141 167.224 0 46.103-46.104 46.103-121.12 0-167.224zm-164.109 145.046c-30.656-40.112-26.831-97.303 8.898-133.033 36.691-36.69 93.849-38.849 133.04-8.893 2.101 1.606 2.329 4.709.445 6.593l-135.785 135.785c-1.885 1.885-4.988 1.654-6.598-.452zm152.096 10.164c-35.599 35.6-92.779 39.664-133.033 8.898-2.112-1.614-2.33-4.72-.452-6.597l135.785-135.785c1.881-1.88 4.986-1.658 6.597.452 30.656 40.112 26.832 97.304-8.897 133.032z" fill="#fc657e"/></g><g><path d="m128 249.046c-30.92 0-61.841-11.77-85.38-35.309-47.077-47.078-47.077-123.681 0-170.759 47.078-47.08 123.682-47.079 170.76 0 47.077 47.079 47.077 123.681 0 170.759-23.539 23.539-54.459 35.309-85.38 35.309zm0-236.379c-29.64 0-59.28 11.282-81.845 33.847-45.128 45.129-45.128 118.56 0 163.689 45.129 45.128 118.561 45.128 163.689 0 45.128-45.129 45.128-118.56 0-163.689-22.564-22.565-52.204-33.847-81.844-33.847zm-.109 219.359c-22.093 0-44.255-6.98-62.843-21.186-1.583-1.21-2.567-3.044-2.699-5.032-.132-1.98.597-3.919 1.998-5.32l135.784-135.784c1.403-1.403 3.352-2.132 5.322-1.998 1.987.133 3.821 1.117 5.03 2.701 31.413 41.103 27.494 99.707-9.117 136.317-20.054 20.056-46.713 30.302-73.475 30.302zm77.102-164.335c-.337 0-.866.088-1.327.549l-135.784 135.784c-.523.523-.565 1.135-.545 1.453.021.322.147.932.747 1.39 39.12 29.9 94.9 26.17 129.747-8.678 34.847-34.847 38.578-90.625 8.679-129.747-.458-.6-1.067-.726-1.39-.747-.038-.003-.081-.004-.127-.004zm-153.985 126.334c-.152 0-.304-.005-.456-.015-1.989-.132-3.824-1.117-5.034-2.701-31.414-41.102-27.496-99.706 9.115-136.318 36.613-36.613 95.22-40.53 136.326-9.112 1.579 1.207 2.562 3.038 2.694 5.024.132 1.98-.597 3.92-2 5.323l-135.785 135.785c-1.292 1.294-3.043 2.014-4.86 2.014zm77.097-164.34c-25.477 0-50.845 9.75-69.938 28.842-34.847 34.848-38.577 90.627-8.678 129.747.459.6 1.069.726 1.393.747.309.02.927-.021 1.449-.544l135.787-135.786c.524-.525.567-1.137.546-1.456-.021-.321-.146-.929-.741-1.383-17.69-13.52-38.791-20.167-59.818-20.167z"/></g><g><g><g><path d="m37.955 32.631c-3.155-.561-5.61-3.015-6.241-6.1 0-.14-.28-.14-.28 0-.631 3.085-3.085 5.539-6.241 6.1-.14 0-.14.21 0 .28 3.155.561 5.61 3.015 6.241 6.1 0 .14.28.14.28 0 .631-3.085 3.085-5.539 6.241-6.1.14-.069.14-.28 0-.28z" fill="#fc657e"/></g></g></g><g><g><g><path d="m211.811 22.018h2.298v2.298c0 1.699 1.399 3.198 3.198 3.198s3.198-1.399 3.198-3.198v-2.298h2.298c1.699 0 3.198-1.399 3.198-3.198s-1.399-3.198-3.198-3.198h-2.298v-2.298c0-1.699-1.399-3.198-3.198-3.198s-3.198 1.399-3.198 3.198v2.298h-2.298c-1.699 0-3.198 1.399-3.198 3.198s1.399 3.198 3.198 3.198z" fill="#70d6f9"/></g></g></g><g><g><g><circle cx="31.331" cy="227.223" fill="#fc657e" r="3.398"/></g></g></g><g><g><g><circle cx="190.225" cy="3.841" fill="#87d147" r="3.398"/></g></g></g><g><g><g><path d="m48.737 247.028c4.497-.799 7.995-4.297 8.894-8.694 0-.2.4-.2.4 0 .899 4.397 4.397 7.895 8.894 8.694.2 0 .2.3 0 .4-4.497.799-7.995 4.297-8.894 8.694 0 .2-.4.2-.4 0-.899-4.397-4.397-7.895-8.894-8.694-.2-.1-.2-.4 0-.4z" fill="#f5c84c"/></g></g></g><g><path d="m146.031 60.854h-11.334c-1.381 0-2.5-1.119-2.5-2.5s1.119-2.5 2.5-2.5h11.334c1.381 0 2.5 1.119 2.5 2.5s-1.119 2.5-2.5 2.5z"/></g><g><path d="m89.465 157.265c-1.381 0-2.5-1.119-2.5-2.5v-49.144c0-6.771 2.613-13.16 7.359-17.99l8.66-8.813c3.821-3.889 5.926-9.035 5.926-14.489v-3.439c-3.314-1.674-5.314-5.197-5.019-8.943.376-4.742 4.521-8.456 9.438-8.456h29.342c4.917 0 9.062 3.714 9.438 8.456.296 3.746-1.703 7.269-5.019 8.943v3.444c0 5.452 2.104 10.596 5.926 14.486l5.998 6.104c.968.985.954 2.567-.031 3.535-.984.968-2.568.954-3.535-.031l-5.998-6.104c-4.746-4.83-7.359-11.219-7.359-17.99v-4.03c0-1.632.982-3.109 2.503-3.763 1.657-.711 2.674-2.398 2.531-4.199-.171-2.158-2.127-3.85-4.453-3.85h-29.342c-2.326 0-4.282 1.691-4.453 3.85-.143 1.801.874 3.488 2.529 4.198 1.522.654 2.505 2.13 2.505 3.761v4.029c0 6.773-2.613 13.164-7.359 17.994l-8.66 8.813c-3.821 3.889-5.926 9.033-5.926 14.485v49.144c-.001 1.38-1.12 2.499-2.501 2.499z"/></g><g><path d="m154.505 209.228h-53.01c-8.012 0-14.53-6.518-14.53-14.529v-15.682c0-1.381 1.119-2.5 2.5-2.5s2.5 1.119 2.5 2.5v15.682c0 5.254 4.275 9.529 9.53 9.529h53.01c5.255 0 9.53-4.275 9.53-9.529v-89.077c0-.869-.074-1.808-.228-2.87-.196-1.367.751-2.634 2.118-2.831 1.376-.192 2.634.752 2.831 2.118.188 1.3.278 2.472.278 3.583v89.077c.001 8.011-6.517 14.529-14.529 14.529z"/></g><g><path d="m106.762 112.37c-5.965 0-9.091-1.763-11.849-3.319-1.717-.968-3.199-1.805-5.371-2.281-1.349-.295-2.202-1.628-1.907-2.977.297-1.348 1.624-2.204 2.978-1.907 2.905.637 4.952 1.791 6.758 2.81 2.543 1.435 4.739 2.674 9.392 2.674 4.651 0 6.847-1.24 9.388-2.675 2.757-1.557 5.881-3.321 11.848-3.321 5.319 0 8.316 1.387 10.708 2.687 1.213.659 1.661 2.177 1.002 3.39-.66 1.213-2.177 1.663-3.391 1.002-1.936-1.052-4.172-2.079-8.319-2.079-4.652 0-6.848 1.24-9.389 2.675-2.758 1.557-5.882 3.321-11.848 3.321z"/></g><g><g><path d="m156.436 197.054h-56.872c-4.629 0-8.972-2.061-11.914-5.653-.875-1.068-.719-2.643.35-3.518 1.067-.874 2.642-.719 3.518.35 1.99 2.428 4.923 3.821 8.047 3.821h56.871c3.108 0 6.032-1.382 8.021-3.791.879-1.066 2.456-1.214 3.52-.336 1.064.879 1.215 2.455.336 3.52-2.943 3.563-7.272 5.607-11.877 5.607z"/></g></g></g></g></svg>