<svg height="512pt" viewBox="0 -27 512.13119 512" width="512pt" xmlns="http://www.w3.org/2000/svg"><path d="m93.726562 274.503906c-50.742187-13.328125-93.72265575-37.515625-93.72265575-80.949218 0-105.929688 132.12109375-61.792969 220.20312475-88.273438 36.730469-11.035156 60.910157-34.871094 87.394531-61.085938 26.480469-26.21875 64.644532-46.167968 102.886719-43.960937 44.746094 2.558594 75.304688 39.988281 90.726563 79.269531 1.140625 3 2.199218 6.003906 3.257812 9.003906 12.546875 35.988282 9.582032 75.570313-8.191406 109.285157-25.597656 45.816406-76.632812 69.386719-125.605469 81.039062-32.183593 7.289063-65.046875 11.167969-98.039062 11.5625zm0 0" fill="#5e5f62"/><path d="m235.628906 255.4375c1.84375.089844 3.699219.089844 5.632813.089844 7.945312 0 12.683593-.175782 12.949219-.175782h1.238281c80.503906 0 142.863281-14.65625 180.476562-42.285156 25.800781-17.320312 41.1875-46.433594 40.960938-77.507812 0-38.929688-21.316407-91.984375-63.691407-100.191406-34.613281-6.710938-66.585937 19.332031-89.21875 42.371093-20.304687 20.921875-45.808593 46.964844-93.632812 61.351563-32.820312 8.339844-66.554688 12.519531-100.414062 12.449218-85.355469 3.351563-94.695313 11.472657-94.695313 42.015626 0 19.6875 27.480469 36.636718 72.226563 47.847656zm0 0" fill="#fdd7ad"/><path d="m441.382812 122.496094c-4.386718-.003906-8.105468-3.230469-8.730468-7.574219-.476563-11.796875-6.5-22.675781-16.242188-29.34375-16.957031-9.585937-41.929687.792969-42.179687.882813-4.472657 1.867187-9.613281-.222657-11.515625-4.675782-1.90625-4.457031.136718-9.617187 4.578125-11.558594 1.34375-.574218 33.128906-13.886718 57.714843-.089843 14.699219 9.214843 24.050782 24.945312 25.125 42.257812.367188 2.539063-.386718 5.113281-2.066406 7.050781-1.679687 1.941407-4.117187 3.054688-6.683594 3.050782zm0 0" fill="#5e5f62"/><path d="m.00390625 339.035156v.265625c.35156275 65.589844 114.75781275 118.640625 255.99999975 118.640625 141.242188 0 255.648438-53.050781 256-118.640625v-.265625zm0 0" fill="#2c2f38"/><path d="m512.003906 339.035156v.265625c.015625.441407-.015625.886719-.089844 1.324219-1.941406 13.328125-32.132812 25.246094-79.625 33.808594-.882812.175781-1.675781.265625-2.558593.441406-57.457031 9.070312-115.5625 13.378906-173.726563 12.886719-55.804687.429687-111.558594-3.496094-166.753906-11.738281h-.175781c-52.789063-8.5625-86.6875-21.1875-88.980469-35.3125-.0742188-.464844-.1054688-.9375-.08984375-1.410157v-.265625c.26562475-15.273437 37.69531275-28.953125 96.04296875-37.695312h.175781l177.4375-10.503906h.703125c132.503907 1.765624 237.109375 22.597656 237.640625 48.199218zm0 0" fill="#5e5f62"/><path d="m431.320312 374.433594-1.589843.441406c-57.457031 9.070312-115.5625 13.378906-173.726563 12.886719-55.804687.429687-111.558594-3.496094-166.753906-11.738281h-.175781c-1.675781-8.296876-4.148438-31.515626 21.363281-31.515626-6.402344-13.804687-11.226562-28.28125-14.390625-43.167968-1.898437-8.808594-2.671875-17.828125-2.292969-26.835938-.085937-12.425781 4.847656-24.359375 13.679688-33.101562 10.417968-9.445313 27.632812-14.566406 54.820312-11.828125 45.460938 4.589843 62.851563 14.652343 73.359375 25.863281 11.472657 12.269531 14.5625 25.867188 36.984375 34.957031.355469.175781.707032.265625 1.0625.441407h.175782c10.785156 3.957031 22.023437 6.539062 33.457031 7.679687 93.21875 11.476563 82.890625 45.992187 82.890625 45.992187s37.691406 0 41.136718 29.925782zm0 0" fill="#fac176"/><path d="m299.257812 363.734375c-47.472656-1.253906-94.84375-5.046875-141.910156-11.359375-3.164062-.378906-5.878906-2.429688-7.105468-5.367188-1.226563-2.941406-.773438-6.3125 1.183593-8.828124 1.957031-2.511719 5.117188-3.773438 8.269531-3.300782 1.289063.167969 131.132813 17.363282 173.257813 8.914063 4.746094-.878907 9.316406 2.21875 10.261719 6.949219.949218 4.734374-2.082032 9.347656-6.800782 10.363281-12.277343 2.011719-24.714843 2.894531-37.15625 2.628906zm0 0" fill="#f18d46"/></svg>