<svg height="512pt" viewBox="-25 0 512 512.00103" width="512pt" xmlns="http://www.w3.org/2000/svg"><path d="m270.9375 307.933594c9.402344-12.960938 24.671875-21.390625 41.910156-21.390625h3.03125c.445313-17.894531 15.082032-32.265625 33.085938-32.265625h13.789062v32.265625h3.011719c28.578125 0 51.742187 23.167969 51.742187 51.742187 14.289063 0 25.871094 11.582032 25.871094 25.871094v26.546875h-172.683594v-82.769531" fill="#ffd150"/><path d="m417.507812 338.285156c0-28.574218-23.167968-51.742187-51.742187-51.742187h-3.011719v-32.265625h-13.792968c-14.671876 0-27.109376 9.550781-31.445313 22.773437v9.492188h3.011719c28.574218 0 51.738281 23.164062 51.738281 51.742187 14.289063 0 25.871094 11.582032 25.871094 25.871094v26.546875h45.242187v-26.546875c0-14.289062-11.585937-25.871094-25.871094-25.871094zm0 0" fill="#ffc930"/><path d="m264.527344 370.398438h196.664062v19.714843c0 67.316407-54.570312 121.886719-121.886718 121.886719-27.253907 0-52.421876-8.945312-72.722657-24.0625zm0 0" fill="#7f8a91"/><path d="m415.953125 370.398438v19.714843c0 59.570313-42.738281 109.152344-99.222656 119.773438 7.320312 1.371093 14.859375 2.113281 22.574219 2.113281 67.316406 0 121.886718-54.570312 121.886718-121.886719v-19.71875h-45.238281zm0 0" fill="#6b7c85"/><path d="m215.992188 150.878906 58.808593 173.679688c19.164063 56.601562 13.558594 118.664062-15.441406 170.914062-7.5625 10.199219-19.503906 16.21875-32.203125 16.21875h-168.3125c-12.695312 0-24.640625-6.019531-32.199219-16.21875-29-52.25-34.609375-114.3125-15.441406-170.914062l58.808594-173.679688zm0 0" fill="#ffd150"/><path d="m274.800781 324.558594-58.808593-173.679688h-55.519532l58.804688 173.679688c19.167968 56.601562 13.558594 118.664062-15.441406 170.914062-7.558594 10.199219-19.503907 16.21875-32.199219 16.21875h55.519531c12.695312 0 24.640625-6.019531 32.203125-16.21875 29-52.25 34.605469-114.3125 15.441406-170.914062zm0 0" fill="#ffc930"/><path d="m183.21875 142.46875-22.175781-131.339844c-1.085938-6.425781-6.648438-11.128906-13.164063-11.128906h-9.753906c-6.515625 0-12.078125 4.703125-13.164062 11.128906l-22.175782 131.339844" fill="#4c585e"/><path d="m225.355469 150.660156h-164.710938c-13.433593 0-24.324219-10.890625-24.324219-24.320312v-14.988282c0-13.433593 10.890626-24.324218 24.324219-24.324218h164.710938c13.4375 0 24.324219 10.890625 24.324219 24.324218v14.988282c0 13.429687-10.886719 24.320312-24.324219 24.320312zm0 0" fill="#7f8a91"/><path d="m225.355469 87.027344h-45.238281c13.433593 0 24.324218 10.890625 24.324218 24.324218v14.988282c0 13.433594-10.890625 24.320312-24.324218 24.320312h45.238281c13.433593 0 24.324219-10.890625 24.324219-24.320312v-14.988282c0-13.433593-10.886719-24.324218-24.324219-24.324218zm0 0" fill="#6b7c85"/><g fill="#4c585e"><path d="m86.792969 118.621094c-4.257813 0-7.710938 3.453125-7.710938 7.710937v24.328125h15.421875v-24.328125c0-4.257812-3.453125-7.710937-7.710937-7.710937zm0 0"/><path d="m143 118.621094c-4.257812 0-7.710938 3.453125-7.710938 7.710937v24.328125h15.421876v-24.328125c0-4.257812-3.449219-7.710937-7.710938-7.710937zm0 0"/><path d="m199.210938 118.621094c-4.261719 0-7.710938 3.453125-7.710938 7.710937v24.328125h15.421875v-24.328125c0-4.257812-3.453125-7.710937-7.710937-7.710937zm0 0"/></g><path d="m193.535156 309.558594v14.035156c15.21875 0 26.398438 14.292969 22.734375 29.066406l-21.800781 87.910156h-102.9375l-21.800781-87.910156c-3.664063-14.773437 7.515625-29.066406 22.738281-29.066406v-14.035156c0-27.90625 22.625-50.53125 50.53125-50.53125 27.910156 0 50.535156 22.625 50.535156 50.53125zm0 0" fill="#fff7d7"/><path d="m253.316406 402.921875c-4.289062-.210937-7.863281 3.089844-8.0625 7.34375-.710937 15.242187-4.605468 29.371094-11.582031 42.003906-5.191406 9.394531-10.257813 14.425781-10.402344 14.570313-3.054687 2.949218-3.152343 7.8125-.210937 10.882812 1.515625 1.578125 3.539062 2.375 5.566406 2.375 1.921875 0 3.839844-.710937 5.335938-2.144531 1.007812-.964844 24.707031-24.144531 26.699218-66.96875.199219-4.253906-3.089844-7.863281-7.34375-8.0625zm0 0" fill="#f2aa00"/></svg>