<svg height="512" viewBox="0 0 64 64" width="512" xmlns="http://www.w3.org/2000/svg"><g id="Flat"><g id="Color_copy" data-name="Color copy"><path d="m44 3a22.592 22.592 0 0 0 -8.429 1.577 9.559 9.559 0 0 1 -7.142 0 22.592 22.592 0 0 0 -8.429-1.577c-9.389 0-17 5.373-17 12s7.611 12 17 12a22.592 22.592 0 0 0 8.429-1.577 9.559 9.559 0 0 1 7.142 0 22.592 22.592 0 0 0 8.429 1.577c9.389 0 17-5.373 17-12s-7.611-12-17-12z" fill="#f9dbaf"/><path d="m44 24a19.683 19.683 0 0 1 -7.306-1.359 12.556 12.556 0 0 0 -9.389 0 19.679 19.679 0 0 1 -7.305 1.359c-7.589 0-14-4.122-14-9s6.411-9 14-9a19.683 19.683 0 0 1 7.306 1.359 12.476 12.476 0 0 0 4.694.911 12.48 12.48 0 0 0 4.695-.911 19.679 19.679 0 0 1 7.305-1.359c7.589 0 14 4.122 14 9s-6.411 9-14 9z" fill="#edb88e"/><path d="m59.96 10.85a24.8 24.8 0 0 1 -8.968 5.25c0-.032.008-.065.008-.1 0-2.774-3.932-6-9-6s-9 3.226-9 6a4.531 4.531 0 0 0 1.384 2.976c-.46.01-.919.024-1.384.024a61.073 61.073 0 0 1 -7.049-.4 4.252 4.252 0 0 0 1.049-2.6c0-2.774-3.932-6-9-6a10.148 10.148 0 0 0 -8.165 3.7 17.142 17.142 0 0 1 -4.975-4.17 9.256 9.256 0 0 0 -1.86 5.47c0 6.63 7.61 12 17 12a22.481 22.481 0 0 0 8.43-1.58 9.581 9.581 0 0 1 7.14 0 22.481 22.481 0 0 0 8.43 1.58c9.39 0 17-5.37 17-12a8.957 8.957 0 0 0 -1.04-4.15z" fill="#edb88e"/><path d="m44 6a19.718 19.718 0 0 0 -7.31 1.36 12.511 12.511 0 0 1 -4.69.91 12.511 12.511 0 0 1 -4.69-.91 19.718 19.718 0 0 0 -7.31-1.36c-7.59 0-14 4.12-14 9s6.41 9 14 9a19.719 19.719 0 0 0 7.31-1.36 12.54 12.54 0 0 1 9.38 0 19.719 19.719 0 0 0 7.31 1.36c7.59 0 14-4.12 14-9s-6.41-9-14-9zm6.99 10.1c0-.04.01-.07.01-.1 0-2.77-3.93-6-9-6s-9 3.23-9 6a4.565 4.565 0 0 0 1.38 2.98c-.46.01-.91.02-1.38.02a61.77 61.77 0 0 1 -7.05-.4 4.271 4.271 0 0 0 1.05-2.6c0-2.77-3.93-6-9-6a10.122 10.122 0 0 0 -8.16 3.7 22.194 22.194 0 0 1 -1.86-1.23c2.47-2.65 6.98-4.47 12.02-4.47a19.718 19.718 0 0 1 7.31 1.36 12.511 12.511 0 0 0 4.69.91 12.511 12.511 0 0 0 4.69-.91 19.718 19.718 0 0 1 7.31-1.36c5.58 0 10.51 2.23 12.74 5.35a31.353 31.353 0 0 1 -5.75 2.75z" fill="#da9367"/><path d="m20 21c-5.068 0-9-3.226-9-6s3.932-6 9-6 9 3.226 9 6-3.932 6-9 6z" fill="#fcf2ad"/><path d="m44 21c-5.068 0-9-3.226-9-6s3.932-6 9-6 9 3.226 9 6-3.932 6-9 6z" fill="#fcf2ad"/><path d="m29 15c0 2.77-3.93 6-9 6s-9-3.23-9-6a5.03 5.03 0 0 1 2.03-3.6c.35 2.67 4.14 5.6 8.97 5.6a10.931 10.931 0 0 0 6.97-2.4 2.691 2.691 0 0 1 .03.4z" fill="#f9dbaf"/><path d="m53 15c0 2.77-3.93 6-9 6s-9-3.23-9-6a5.03 5.03 0 0 1 2.03-3.6c.35 2.67 4.14 5.6 8.97 5.6a10.931 10.931 0 0 0 6.97-2.4 2.691 2.691 0 0 1 .03.4z" fill="#f9dbaf"/><path d="m22 17.74a1 1 0 0 1 -.26-1.966 4.527 4.527 0 0 0 2.35-1.34 1 1 0 0 1 1.648 1.132 6.32 6.32 0 0 1 -3.478 2.139.983.983 0 0 1 -.26.035z" fill="#edb88e"/><path d="m46 17.74a1 1 0 0 1 -.26-1.966 4.527 4.527 0 0 0 2.35-1.34 1 1 0 1 1 1.648 1.132 6.32 6.32 0 0 1 -3.478 2.139.983.983 0 0 1 -.26.035z" fill="#edb88e"/><path d="m40.791 30.8a22.592 22.592 0 0 0 -7.733 3.7 9.559 9.559 0 0 1 -6.9 1.849 22.592 22.592 0 0 0 -8.55.658c-9.068 2.43-15.029 9.593-13.314 15.993s10.458 9.62 19.527 7.19a22.592 22.592 0 0 0 7.734-3.705 9.559 9.559 0 0 1 6.9-1.849 22.592 22.592 0 0 0 8.545-.658c9.069-2.43 15.03-9.59 13.315-15.991s-10.455-9.621-19.524-7.187z" fill="#edb88e"/><path d="m47 53.98a22.8 22.8 0 0 1 -8.55.66 9.578 9.578 0 0 0 -6.9 1.84 22.4 22.4 0 0 1 -7.73 3.71c-9.07 2.43-17.81-.79-19.53-7.19a9.316 9.316 0 0 1 .48-5.99c3.26 4.33 10.54 6.19 18.05 4.18a22.4 22.4 0 0 0 7.73-3.71 9.578 9.578 0 0 1 6.9-1.84 22.8 22.8 0 0 0 8.55-.66c6.27-1.68 11.05-5.62 12.84-10a8.817 8.817 0 0 1 1.48 3.01c1.71 6.4-4.25 13.56-13.32 15.99z" fill="#da9367"/><path d="m11.05 56.66a1 1 0 0 1 -.99.91c-.03 0-.07-.01-.1-.01a16.4 16.4 0 0 1 -3.44-.67 9 9 0 0 1 -1.83-2.75 1.778 1.778 0 0 1 -.12-.29.914.914 0 0 1 .65.2 9.927 9.927 0 0 0 4.93 1.52 1 1 0 0 1 .9 1.09z" fill="#edb88e"/><path d="m15.817 57.458a1 1 0 0 1 -.112-1.994 38.262 38.262 0 0 0 5.521-1.059 1 1 0 1 1 .516 1.933 40.338 40.338 0 0 1 -5.811 1.113 1.01 1.01 0 0 1 -.114.007z" fill="#edb88e"/><path d="m26.94 54.491a1 1 0 0 1 -.4-1.918c.847-.366 1.659-.757 2.413-1.163a16.5 16.5 0 0 1 2.955-1.226 1 1 0 0 1 .592 1.916 14.506 14.506 0 0 0 -2.6 1.075c-.8.433-1.667.85-2.567 1.238a1 1 0 0 1 -.393.078z" fill="#edb88e"/><path d="m37.905 51.353a1 1 0 0 1 -.08-2 36.754 36.754 0 0 0 5.542-.9 1 1 0 1 1 .465 1.945 38.733 38.733 0 0 1 -5.845.947c-.028.007-.055.008-.082.008z" fill="#edb88e"/><path d="m8.85 46.74a13.405 13.405 0 0 0 -3.96 3.55 1 1 0 0 1 -.83.45h-.06a9.715 9.715 0 0 1 .56-3.17 18.973 18.973 0 0 1 3.22-2.52 1 1 0 0 1 1.07 1.69z" fill="#f9dbaf"/><path d="m49.106 48.7a1 1 0 0 1 -.369-1.93 29.959 29.959 0 0 0 4.99-2.5 1 1 0 1 1 1.073 1.691 31.923 31.923 0 0 1 -5.324 2.668 1 1 0 0 1 -.37.071z" fill="#edb88e"/><g fill="#f9dbaf"><path d="m13.467 44.3a1 1 0 0 1 -.37-1.93 41.187 41.187 0 0 1 4.547-1.5q.549-.147 1.092-.277a1 1 0 0 1 .467 1.944q-.519.125-1.042.265a39.345 39.345 0 0 0 -4.327 1.428.993.993 0 0 1 -.367.07z"/><path d="m24.662 41.637a1 1 0 0 1 -.081-2q.855-.07 1.671-.1a14.89 14.89 0 0 0 3.822-.643 1 1 0 1 1 .582 1.913 16.9 16.9 0 0 1 -4.343.729q-.765.023-1.568.089c-.028.011-.056.012-.083.012z"/><path d="m41.093 35.638a1 1 0 0 1 -.693 1.219 37.993 37.993 0 0 0 -4.37 1.573 1 1 0 0 1 -.795-1.835 39.929 39.929 0 0 1 4.614-1.661 1 1 0 0 1 1.244.7z"/><path d="m46.835 35.523a1 1 0 0 1 -.111-1.994 29.23 29.23 0 0 1 5.973-.1 1 1 0 1 1 -.193 1.99 27.217 27.217 0 0 0 -5.555.1.993.993 0 0 1 -.114.004z"/><path d="m10.542 54.292a1 1 0 0 1 -.135-1.991c1.736-.239 3.7-.6 5.824-1.064a1 1 0 1 1 .429 1.953c-2.179.479-4.191.846-5.98 1.092a1.014 1.014 0 0 1 -.138.01z"/><path d="m22.268 51.767a1 1 0 0 1 -.268-1.967c1.993-.551 3.9-1.137 5.681-1.741a1 1 0 0 1 .644 1.894c-1.813.616-3.762 1.213-5.792 1.775a1.011 1.011 0 0 1 -.265.039z"/><path d="m14.336 48.884a1 1 0 0 1 -.311-1.951c1.54-.5 3.153-.991 4.809-1.45a1.007 1.007 0 0 1 1.237.706 1 1 0 0 1 -.7 1.222c-1.628.451-3.211.929-4.721 1.423a.987.987 0 0 1 -.314.05z"/><path d="m33.728 48.22a1 1 0 0 1 -.238-1.971c.9-.223 1.794-.414 2.651-.567 1.025-.184 2.114-.4 3.25-.651a1 1 0 1 1 .429 1.953c-1.163.255-2.276.478-3.325.667-.815.146-1.666.328-2.526.54a.989.989 0 0 1 -.241.029z"/><path d="m25.924 45.781a1 1 0 0 1 -.2-1.979c.83-.173 1.63-.329 2.4-.467 1.1-.2 2.246-.456 3.417-.769a1 1 0 0 1 .518 1.932c-1.225.328-2.429.6-3.581.806-.749.134-1.531.287-2.341.457a1.02 1.02 0 0 1 -.213.02z"/><path d="m44.428 45.562a1 1 0 0 1 -.266-1.964c1.987-.549 3.9-1.134 5.683-1.74a1 1 0 1 1 .643 1.894c-1.82.618-3.77 1.215-5.793 1.774a1.008 1.008 0 0 1 -.267.036z"/></g><path d="m60.57 41.05c-1.55.52-3.19 1.01-4.88 1.47a.745.745 0 0 1 -.26.04 1.014 1.014 0 0 1 -.97-.73 1 1 0 0 1 .7-1.23c1.87-.52 3.67-1.07 5.36-1.63a8.511 8.511 0 0 1 .05 2.08z" fill="#edb88e"/><path d="m37.5 42.679a1 1 0 0 1 -.312-1.951c1.839-.6 3.792-1.183 5.8-1.722a1 1 0 1 1 .518 1.932c-1.977.53-3.894 1.1-5.7 1.691a1.009 1.009 0 0 1 -.306.05z" fill="#f9dbaf"/><path d="m47.25 39.977a1 1 0 0 1 -.222-1.977c2.141-.49 4.146-.881 5.96-1.161a1 1 0 1 1 .306 1.977c-1.767.273-3.725.654-5.819 1.134a.98.98 0 0 1 -.225.027z" fill="#f9dbaf"/><path d="m16.66 53.19c-2.18.48-4.19.85-5.98 1.09a.659.659 0 0 1 -.14.01 1 1 0 0 1 -.13-1.99q1.515-.21 3.24-.54h.01a20.111 20.111 0 0 0 3.76.23v.01a1 1 0 0 1 -.76 1.19z" fill="#edb88e"/><path d="m28.33 49.96c-1.82.61-3.77 1.21-5.79 1.77a1.257 1.257 0 0 1 -.27.04.976.976 0 0 1 -.69-.28c.41-.09.83-.19 1.24-.3a23.193 23.193 0 0 0 6.09-2.59.355.355 0 0 1 .04.09 1 1 0 0 1 -.62 1.27z" fill="#edb88e"/><path d="m39.82 46.98c-1.16.26-2.28.48-3.33.67-.81.15-1.66.33-2.52.54a1 1 0 0 1 -.48-1.94c.9-.22 1.79-.41 2.65-.57.18-.03.36-.06.54-.1h.01c.26.01.5.03.76.06a21.474 21.474 0 0 0 3.13.14v.01a.991.991 0 0 1 -.76 1.19z" fill="#edb88e"/><path d="m51.15 42.93a.983.983 0 0 1 -.66.82c-1.82.62-3.77 1.22-5.8 1.77a.745.745 0 0 1 -.26.04 1.18 1.18 0 0 1 -.49-.12c.68-.12 1.37-.28 2.06-.46a23.069 23.069 0 0 0 5.15-2.05z" fill="#edb88e"/><path d="m6.341 48.649a17.521 17.521 0 0 1 2.509-1.909 1 1 0 0 0 -1.07-1.69 19.366 19.366 0 0 0 -2.838 2.164 10.2 10.2 0 0 0 1.399 1.435z" fill="#f9dbaf"/><path d="m6.34 48.65a8.892 8.892 0 0 0 -1.45 1.64 1 1 0 0 1 -.83.45h-.06a9.715 9.715 0 0 1 .56-3.17c.12-.12.25-.24.38-.36a10.008 10.008 0 0 0 1.4 1.44z" fill="#edb88e"/></g></g></svg>