<?xml version="1.0" encoding="iso-8859-1"?>
<!-- Generator: Adobe Illustrator 19.0.0, SVG Export Plug-In . SVG Version: 6.00 Build 0)  -->
<svg xmlns="http://www.w3.org/2000/svg" xmlns:xlink="http://www.w3.org/1999/xlink" version="1.1" id="Layer_1" x="0px" y="0px" viewBox="0 0 490 490" style="enable-background:new 0 0 490 490;" xml:space="preserve" width="512" height="512">
<g>
	<g>
		<path style="fill:#5B5B68;" d="M225.654,300.749c-18.14,21.2-35.7,33.74-35.7,33.74s-104.01-23.21-123.78-103.19    c-0.37-1.45-0.7-2.93-1-4.42c-16.95-83.56,6.5-165.92,56.92-226.87c70.18,36.48,123.88,103.19,140.83,186.75    C272.384,233.379,248.564,273.979,225.654,300.749z"/>
		<path style="fill:#40404C;" d="M122.227,215.295c16.819,82.904,66.938,118.629,67.715,119.181    c-1.662-0.373-107.95-24.703-124.769-107.606C48.221,143.313,71.679,60.958,122.099,0    C106.469,53.9,105.275,131.738,122.227,215.295z"/>
		<path style="fill:#40404C;" d="M172.199,254.523c-3.494,0-6.621-2.454-7.342-6.01L129.263,73.071    c-0.824-4.06,1.799-8.018,5.859-8.841c4.058-0.826,8.018,1.799,8.841,5.859l35.593,175.441c0.824,4.06-1.799,8.018-5.859,8.841    C173.195,254.474,172.693,254.523,172.199,254.523z"/>
		<g>
			<path style="fill:#40404C;" d="M225.654,300.749c-18.14,21.2-35.7,33.74-35.7,33.74s-104.01-23.21-123.78-103.19     C124.574,233.689,181.884,257.229,225.654,300.749z"/>
		</g>
	</g>
	<g>
		<path style="fill:#5B5B68;" d="M231.35,204.446c-59.225,61.332-17.915,163.794-17.915,163.794s103.843,37.703,163.068-23.629    c59.224-61.332,83.739-143.384,74.007-221.882C371.719,115.746,290.574,143.114,231.35,204.446z"/>
		<path style="fill:#40404C;" d="M273.232,244.882c-58.761,60.853-59.78,122.392-59.795,123.345    c-0.635-1.581-40.845-102.932,17.916-163.785c59.224-61.332,140.366-88.693,219.166-81.713    C397.256,140.408,332.456,183.55,273.232,244.882z"/>
		<path style="fill:#40404C;" d="M267.994,319.238c-1.888,0-3.776-0.708-5.234-2.129c-2.966-2.891-3.027-7.64-0.136-10.605    l79.297-81.353l26.841-27.796l25.549-27.223c2.834-3.02,7.581-3.17,10.601-0.336c3.021,2.834,3.171,7.581,0.336,10.601    l-25.585,27.262c-0.024,0.026-0.049,0.052-0.074,0.078l-26.902,27.86l-79.322,81.377    C271.896,318.481,269.946,319.238,267.994,319.238z"/>
	</g>
	<g>
		<path style="fill:#FFCA5E;" d="M92.166,451.886c48.017,58.349,142.413,32.334,142.413,32.334s43.697-87.624-4.32-145.973    c-48.016-58.349-117.787-88.23-187.89-87.597C28.255,319.32,44.15,393.537,92.166,451.886z"/>
		<path style="fill:#E8A328;" d="M132.005,419.096c47.641,57.893,101.725,65.011,102.563,65.121    c-1.456,0.399-94.764,25.559-142.405-32.334C44.147,393.534,28.258,319.32,42.371,250.641    C52.552,299.328,83.989,360.747,132.005,419.096z"/>
	</g>
</g>















</svg>
