<?xml version="1.0" encoding="iso-8859-1"?>
<!-- Generator: Adobe Illustrator 19.0.0, SVG Export Plug-In . SVG Version: 6.00 Build 0)  -->
<svg xmlns="http://www.w3.org/2000/svg" xmlns:xlink="http://www.w3.org/1999/xlink" version="1.1" id="Layer_1" x="0px" y="0px" viewBox="0 0 495.898 495.898" style="enable-background:new 0 0 495.898 495.898;" xml:space="preserve" width="512" height="512">
<g>
	<path style="fill:#F95C5C;" d="M108.22,327.71c-0.078,0-0.155-0.001-0.234-0.003c-24.414-0.75-44.98-6.736-61.128-17.793   c-14.166-9.7-24.691-23.054-31.285-39.69c-14.667-37.005-6.278-84.002,11.02-101.301c2.931-2.93,7.679-2.929,10.607,0   s2.929,7.678,0,10.606c-11.814,11.814-20.904,51.808-7.683,85.167c11.968,30.195,39.261,46.799,78.93,48.017   c4.14,0.127,7.394,3.586,7.266,7.727C115.588,324.502,112.256,327.71,108.22,327.71z"/>
	<path style="fill:#F95C5C;" d="M387.678,327.71c-4.036,0-7.368-3.208-7.492-7.27c-0.128-4.14,3.126-7.599,7.266-7.727   c39.668-1.218,66.962-17.822,78.93-48.017c13.222-33.359,4.133-73.354-7.682-85.168c-2.929-2.929-2.929-7.678,0-10.606   c2.931-2.93,7.679-2.929,10.607,0c17.298,17.299,25.686,64.296,11.019,101.302c-6.594,16.636-17.12,29.989-31.285,39.689   c-16.148,11.057-36.714,17.043-61.128,17.793C387.833,327.709,387.755,327.71,387.678,327.71z"/>
	<path style="fill:#D11C1C;" d="M437.326,439.557c-3.403,0-6.485-2.333-7.295-5.79c-13.301-56.747-57.949-62.421-58.399-62.472   c-4.115-0.464-7.076-4.177-6.612-8.293c0.465-4.117,4.177-7.075,8.294-6.612c0.583,0.065,14.469,1.727,30.144,11.791   c14.289,9.174,33.031,27.406,41.178,62.163c0.945,4.033-1.558,8.068-5.59,9.014C438.469,439.492,437.894,439.557,437.326,439.557z"/>
	<path style="fill:#D11C1C;" d="M410.31,470.629c-3.403,0-6.484-2.333-7.295-5.79c-8.449-36.044-29.167-51.687-45.06-58.463   c-3.811-1.624-5.582-6.03-3.958-9.84c1.624-3.81,6.026-5.583,9.841-3.958c15.62,6.66,43.378,24.458,53.78,68.838   c0.945,4.033-1.558,8.068-5.59,9.014C411.452,470.564,410.877,470.629,410.31,470.629z"/>
	<path style="fill:#D11C1C;" d="M375.91,495.898c-3.403,0-6.484-2.332-7.295-5.789c-4.533-19.33-13.1-34.78-25.46-45.921   c-3.076-2.773-3.322-7.516-0.55-10.592c2.774-3.077,7.518-3.322,10.593-0.549c14.675,13.228,24.775,31.274,30.021,53.638   c0.946,4.033-1.557,8.068-5.589,9.014C377.054,495.834,376.478,495.898,375.91,495.898z"/>
	<path style="fill:#D11C1C;" d="M58.572,439.557c-0.567,0-1.143-0.064-1.718-0.199c-4.033-0.945-6.536-4.981-5.591-9.014   c8.146-34.757,26.889-52.989,41.177-62.163c15.675-10.064,29.561-11.726,30.144-11.791c4.118-0.461,7.829,2.496,8.294,6.612   c0.463,4.105-2.481,7.81-6.581,8.29c-1.881,0.23-45.236,6.185-58.43,62.475C65.058,437.224,61.976,439.557,58.572,439.557z"/>
	<path style="fill:#D11C1C;" d="M85.588,470.629c-0.567,0-1.143-0.064-1.719-0.199c-4.032-0.946-6.535-4.981-5.59-9.014   c10.403-44.379,38.16-62.178,53.78-68.837c3.812-1.625,8.217,0.148,9.841,3.958c1.624,3.81-0.147,8.216-3.958,9.84   c-15.892,6.776-36.609,22.419-45.06,58.463C92.072,468.296,88.991,470.629,85.588,470.629z"/>
	<path style="fill:#D11C1C;" d="M119.988,495.898c-0.567,0-1.143-0.064-1.719-0.2c-4.033-0.945-6.535-4.981-5.59-9.014   c5.243-22.363,15.344-40.41,30.021-53.638c3.075-2.772,7.817-2.529,10.593,0.549c2.772,3.077,2.526,7.819-0.55,10.592   c-12.361,11.142-20.928,26.592-25.46,45.921C126.473,493.566,123.392,495.898,119.988,495.898z"/>
	<g>
		<path style="fill:#5B5B68;" d="M220.202,222.163l-30.94,21.89l-21.69,15.35c-3.64-5.22-5.77-11.57-5.77-18.41    c0-12.79,7.46-23.85,18.27-29.05c0.02-0.01,0.03-0.02,0.05-0.02c0.21-0.11,0.43-0.21,0.66-0.31c0.18-0.09,0.36-0.17,0.54-0.24    c3.9-1.68,8.2-2.61,12.72-2.61C204.812,208.763,214.352,214.043,220.202,222.163z"/>
		<path style="fill:#5B5B68;" d="M334.092,240.993c0,6.84-2.13,13.18-5.77,18.4l-32.72-23.15c0,0,0,0,0-0.01l-19.9-14.08    c5.85-8.11,15.39-13.39,26.16-13.39c2.36,0,4.65,0.25,6.87,0.74c1.24,0.26,2.46,0.61,3.65,1.02c0.02,0,0.05,0.02,0.07,0.02    C325.052,214.923,334.092,226.903,334.092,240.993z"/>
	</g>
	<path style="fill:#40404C;" d="M308.732,209.503c-9.83-0.94-15.88,13.66-13.13,26.73l-19.9-14.08   c5.85-8.11,15.39-13.39,26.16-13.39C304.222,208.763,306.512,209.013,308.732,209.503z"/>
	<path style="fill:#40404C;" d="M189.262,244.053l-21.69,15.35c-3.64-5.22-5.77-11.57-5.77-18.41c0-12.79,7.46-23.85,18.27-29.05   C168.042,218.123,171.292,239.663,189.262,244.053z"/>
	<path style="fill:#F95C5C;" d="M206.101,67.947c-0.42,27.99-14.14,59.55-39.65,85.06c-43.01,43.02-103.26,52.52-134.56,21.22   c-31.29-31.3-21.79-91.54,21.22-134.56c42.75-42.75,102.5-52.4,133.96-21.81c-9.44,4.57-19.57,11.82-28.99,21.25   c-23.17,23.17-33.24,50.67-22.49,61.42c10.76,10.76,38.26,0.69,61.43-22.48C200.321,74.747,203.351,71.357,206.101,67.947z"/>
	<path style="fill:#D11C1C;" d="M116.971,50.097c-43.01,43.02-52.51,103.26-21.22,134.56c1.97,1.97,4.06,3.78,6.25,5.43   c-27,6.21-52.92,1.33-70.11-15.86c-31.29-31.3-21.79-91.54,21.22-134.56c40.31-40.31,95.75-51.19,128.31-26.65   C159.251,18.127,136.361,30.707,116.971,50.097z"/>
	<path style="fill:#F95C5C;" d="M289.797,67.947c0.42,27.99,14.14,59.55,39.65,85.06c43.01,43.02,103.26,52.52,134.56,21.22   c31.29-31.3,21.79-91.54-21.22-134.56c-42.75-42.75-102.5-52.4-133.96-21.81c9.44,4.57,19.57,11.82,28.99,21.25   c23.17,23.17,33.24,50.67,22.49,61.42c-10.76,10.76-38.26,0.69-61.43-22.48C295.577,74.747,292.547,71.357,289.797,67.947z"/>
	<path style="fill:#D11C1C;" d="M418.698,20.087c-8.39,5.46-16.51,12-24.09,19.58c-13.5,13.5-23.69,28.69-30.36,44.15   c-1.92-12.91-11.44-29.72-26.43-44.71c-9.42-9.43-19.55-16.68-28.99-21.25C334.708-7.313,379.738-5.243,418.698,20.087z"/>
	<path style="fill:#D11C1C;" d="M373.387,174.227c11.81,11.81,27.74,17.81,45.31,18.39c-29,0.97-62.47-12.82-89.25-39.61   c-25.51-25.51-39.23-57.07-39.65-85.06c2.75,3.41,5.78,6.8,9.08,10.1c21.63,21.63,47.04,31.84,59.07,24.35   C351.117,130.017,355.837,156.677,373.387,174.227z"/>
	<path style="fill:#F95C5C;" d="M211.688,225.855L132.18,283.62c-21.622,15.709-30.669,43.555-22.411,68.973l30.369,93.467   c8.259,25.418,31.946,42.628,58.672,42.628h98.277c26.726,0,50.413-17.209,58.672-42.628l30.369-93.467   c8.259-25.418-0.789-53.263-22.411-68.973l-79.508-57.766C262.588,210.145,233.31,210.145,211.688,225.855z"/>
	<path style="fill:#D11C1C;" d="M247.95,214.077c-6.21,0-12.41,3.92-17.69,11.78l-38.79,57.76c-10.54,15.71-14.96,43.56-10.93,68.98   l14.82,93.46c4.03,25.42,15.58,42.63,28.62,42.63h-25.17c-26.73,0-50.41-17.21-58.67-42.63l-30.37-93.46   c-8.26-25.42,0.79-53.27,22.41-68.98l79.51-57.76C222.5,217.997,235.22,214.077,247.95,214.077z"/>
	<path style="fill:#D11C1C;" d="M247.949,470.18c-4.143,0-7.5-3.358-7.5-7.5V259.386c0-4.142,3.357-7.5,7.5-7.5s7.5,3.358,7.5,7.5   V462.68C255.449,466.822,252.092,470.18,247.949,470.18z"/>
</g>















</svg>
