<svg id="Capa_1" enable-background="new 0 0 512 512" height="512" viewBox="0 0 512 512" width="512" xmlns="http://www.w3.org/2000/svg"><path d="m241.491 67.581c-50.824 9.024-86.074-20.915-121.239 28.789-41.79 59.068 32.951 168.511 155.625 139.409 116.734-27.693 142.56-145.705 80.12-187.231-41.805-27.803-69.557 11.052-114.506 19.033z" fill="#ffeca1"/><path d="m259.111 158.136c-.228.189-.456.378-.682.567-2.173 1.816-5.39 1.542-7.229-.61-11.471-13.422-28.925-20.94-46.581-23.311-34.529-4.637-59.052 15.323-86.182 38.622 22.215 44.246 80.36 80.661 157.441 62.375 47.512-11.271 79.962-37.505 97.533-67.454-44.803-14.355-79.088-39.333-114.3-10.189z" fill="#ffdf85"/><path d="m241.491 67.58c14.232-2.527 26.739-8.149 38.515-13.771 7.724 16.99 11.154 42.751-33 50.427-40.814 7.095-47.986-14.995-46.416-35.764 12.565 1.056 26.069 1.742 40.901-.892z" fill="#cc624e"/><path d="m281.88 58.385c-1.503 11.901-10.818 23.117-37.46 27.749-26.868 4.671-39.153-3.307-43.967-15.229-.818 20.015 7.329 40.152 46.553 33.333 40.347-7.015 40.961-29.128 34.874-45.853z" fill="#bc574a"/><path d="m379.67 189.169c-51.32-5.551-76.79-44.154-124.453-6.268-56.642 45.023-15.493 171.002 110.424 177.371 119.821 6.061 177.622-100.019 129.289-157.351-32.361-38.386-69.873-8.843-115.26-13.752z" fill="#ffeca1"/><path d="m511.447 241.161c-4.287 37.323-33.707 75.487-82.122 92.132-2.153-28.673-16.202-55.118-42.545-72.747-55.955-37.445-81.598 7.525-134 24.614-12.728-17.38-20.128-36.845-22.002-55.517-5.789 54.608 40.957 125.878 134.863 130.629 96.269 4.869 152.486-62.646 145.806-119.111z" fill="#ffdf85"/><path d="m379.67 189.169c14.371 1.554 27.951-.346 40.83-2.449 2.664 18.473-1.248 44.165-45.787 39.185-41.17-4.603-41.877-27.817-34.561-47.318 11.768 4.527 24.541 8.962 39.518 10.582z" fill="#cc624e"/><path d="m376.86 207.008c-26.03-2.91-35.881-13.261-37.76-25.409-6.085 18.811-3.455 39.938 35.613 44.306 41.883 4.682 47.839-17.757 46.185-35.811-4.546 11.38-16.556 19.986-44.038 16.914z" fill="#bc574a"/><path d="m102.714 215.645c44.672-25.863 52.322-71.475 111.246-56.143 70.025 18.22 83.433 150.068-29.111 206.897-107.095 54.079-202.911-19.495-181.944-91.491 14.038-48.205 60.301-36.389 99.809-59.263z" fill="#ffeca1"/><path d="m267.62 233.828c-1.35 17.026-6.397 34.705-15.67 51.536-.024.004-.047.011-.072.016-54.767 9.703-97.546-14.634-128.981 41.377-6.946 12.377-10.646 25.858-11.329 39.715-59.696.327-105.213-37.005-110.946-80.656-6.735 51.275 43.322 100.019 111.796 99.232v.002c.071-.001.142-.005.213-.007 22.54-.293 47.066-5.943 72.219-18.644 62.866-31.744 86.42-86.892 82.77-132.571z" fill="#ffdf85"/><path d="m102.714 215.645c-12.509 7.242-25.695 11.006-38.322 14.3 5.047 17.968 19.031 39.874 57.735 17.28 35.776-20.885 27.02-42.396 12.431-57.262-8.925 8.906-18.807 18.135-31.844 25.682z" fill="#cc624e"/><path d="m136.832 192.393c3.706 12.09-.76 25.9-23.966 39.446-23.884 13.942-38.351 10.937-47.117 2.371 6.03 16.857 20.702 33.841 56.379 13.014 33.871-19.772 27.824-40.105 14.704-54.831z" fill="#bc574a"/><path d="m255.426 302.476c50.076-12.527 70.019-54.255 122.421-23.254 62.275 36.841 38.767 167.268-85.091 190.823-117.862 22.414-189.647-74.749-149.621-138.161 26.799-42.456 68.004-18.329 112.291-29.408z" fill="#ffeca1"/><path d="m292.756 451.465c-90.292 17.171-153.54-35.836-160.194-90.083-7.462 59.769 59.562 127.802 160.194 108.664 85.158-16.195 122.878-82.909 117.897-134.993-4.396 48.276-42.6 102.092-117.897 116.412z" fill="#ffdf85"/><path d="m255.425 302.476c-14.022 3.508-27.735 3.486-40.78 3.166-.109 18.664 7.285 43.578 50.722 32.545 40.151-10.198 37.673-33.29 27.755-51.606-11.037 6.096-23.082 12.239-37.697 15.895z" fill="#cc624e"/><path d="m294.736 289.753c.172 12.6-7.962 24.586-33.926 31.181-26.952 6.845-40.021-.152-46.038-10.906 1.117 17.889 10.488 38.345 50.595 28.159 37.866-9.617 37.816-30.702 29.369-48.434z" fill="#bc574a"/></svg>