<svg id="Capa_1" enable-background="new 0 0 510 510" height="512" viewBox="0 0 510 510" width="512" xmlns="http://www.w3.org/2000/svg" xmlns:xlink="http://www.w3.org/1999/xlink"><linearGradient id="lg1"><stop offset="0" stop-color="#eaf6ff"/><stop offset="1" stop-color="#b3dafe"/></linearGradient><linearGradient id="SVGID_1_" gradientUnits="userSpaceOnUse" x1="153.356" x2="496.119" xlink:href="#lg1" y1="216.223" y2="558.986"/><linearGradient id="SVGID_2_" gradientUnits="userSpaceOnUse" x1="326.799" x2="245.803" y1="247.909" y2="6.421"><stop offset="0" stop-color="#d8ecfe" stop-opacity="0"/><stop offset=".7867" stop-color="#9bd1fe" stop-opacity=".787"/><stop offset="1" stop-color="#8ac9fe"/></linearGradient><linearGradient id="SVGID_3_" gradientUnits="userSpaceOnUse" x1="255" x2="255" xlink:href="#lg1" y1="1.202" y2="45.931"/><linearGradient id="SVGID_4_" gradientUnits="userSpaceOnUse" x1="255" x2="255" y1="444" y2="528.214"><stop offset="0" stop-color="#8ac9fe" stop-opacity="0"/><stop offset=".0634" stop-color="#85c2f3" stop-opacity=".063"/><stop offset=".3677" stop-color="#70a3c3" stop-opacity=".368"/><stop offset=".6362" stop-color="#608ca0" stop-opacity=".636"/><stop offset=".8561" stop-color="#577e8b" stop-opacity=".856"/><stop offset="1" stop-color="#537983"/></linearGradient><linearGradient id="lg2"><stop offset="0" stop-color="#26a6fe"/><stop offset=".1643" stop-color="#269ff9"/><stop offset=".3986" stop-color="#278ceb"/><stop offset=".6746" stop-color="#276dd3"/><stop offset=".9805" stop-color="#2743b3"/><stop offset="1" stop-color="#2740b0"/></linearGradient><linearGradient id="SVGID_5_" gradientUnits="userSpaceOnUse" x1="152.952" x2="356.942" xlink:href="#lg2" y1="286.732" y2="580.717"/><linearGradient id="lg3"><stop offset="0" stop-color="#2740b0" stop-opacity="0"/><stop offset=".2693" stop-color="#263eac" stop-opacity=".269"/><stop offset=".5611" stop-color="#22399f" stop-opacity=".561"/><stop offset=".8625" stop-color="#1c2f89" stop-opacity=".863"/><stop offset="1" stop-color="#192a7d"/></linearGradient><linearGradient id="SVGID_6_" gradientUnits="userSpaceOnUse" x1="255" x2="255" xlink:href="#lg3" y1="408" y2="496.091"/><linearGradient id="lg4"><stop offset="0" stop-color="#fff"/><stop offset="1" stop-color="#eaf6ff"/></linearGradient><linearGradient id="SVGID_7_" gradientUnits="userSpaceOnUse" x1="142" x2="211.745" xlink:href="#lg4" y1="364.089" y2="364.089"/><linearGradient id="SVGID_8_" gradientUnits="userSpaceOnUse" x1="221.547" x2="291.293" xlink:href="#lg4" y1="364.231" y2="364.231"/><linearGradient id="SVGID_9_" gradientUnits="userSpaceOnUse" x1="301.096" x2="368" xlink:href="#lg4" y1="363.805" y2="363.805"/><linearGradient id="SVGID_10_" gradientUnits="userSpaceOnUse" x1="246.199" x2="293.308" xlink:href="#lg2" y1="179.679" y2="226.788"/><linearGradient id="SVGID_11_" gradientUnits="userSpaceOnUse" x1="266.083" x2="266.083" xlink:href="#lg3" y1="204.26" y2="229.905"/><linearGradient id="SVGID_12_" gradientUnits="userSpaceOnUse" x1="198.962" x2="234.369" xlink:href="#lg2" y1="110.795" y2="146.202"/><linearGradient id="SVGID_13_" gradientUnits="userSpaceOnUse" x1="213.906" x2="213.906" xlink:href="#lg3" y1="129.27" y2="148.545"/><linearGradient id="SVGID_14_" gradientUnits="userSpaceOnUse" x1="276.549" x2="311.956" xlink:href="#lg2" y1="65.561" y2="100.968"/><linearGradient id="SVGID_15_" gradientUnits="userSpaceOnUse" x1="291.494" x2="291.494" xlink:href="#lg3" y1="84.036" y2="103.311"/><g><g><path d="m483.836 407.216-83.779-126.937c-29.549-44.771-45.301-97.234-45.301-150.877v-104.964h-199.513v104.964c0 53.643-15.752 106.106-45.301 150.877l-83.778 126.937c-29.082 44.064 2.519 102.784 55.315 102.784h347.042c52.796 0 84.397-58.72 55.315-102.784z" fill="url(#SVGID_1_)"/><path d="m155.243 24.438v18.805l259.914 259.914-15.1-22.878c-29.549-44.771-45.301-97.233-45.301-150.877v-104.964z" fill="url(#SVGID_2_)"/><path d="m363.17 43.268h-216.34c-11.948 0-21.634-9.686-21.634-21.634 0-11.948 9.686-21.634 21.634-21.634h216.34c11.948 0 21.634 9.686 21.634 21.634 0 11.948-9.686 21.634-21.634 21.634z" fill="url(#SVGID_3_)"/></g><path d="m26.164 407.216c-29.082 44.064 2.519 102.784 55.315 102.784h347.042c52.796 0 84.397-58.72 55.315-102.784l-44.363-67.216h-368.946z" fill="url(#SVGID_4_)"/><path d="m456.06 458.54c-2.66 4.95-10.67 16.46-27.54 16.46h-347.04c-16.87 0-24.88-11.51-27.54-16.46-2.66-4.94-7.86-17.97 1.44-32.04l83.77-126.94c4.39-6.65 8.5-13.44 12.34-20.35 5.446-9.803 10.336-19.86 14.657-30.132 10.629-25.266 43.741-32.256 63.315-13.066.435.426.864.862 1.288 1.308 9.76 10.25 22.56 15.4 35.37 15.4 12.47 0 24.94-4.87 34.63-14.64.105-.106.211-.212.317-.316 12.999-12.83 34.825-8.046 41.76 8.85 4.699 11.448 10.097 22.637 16.183 33.506 3.7 6.6 7.65 13.08 11.84 19.44l83.77 126.94c9.3 14.07 4.1 27.1 1.44 32.04z" fill="url(#SVGID_5_)"/><path d="m397.537 340h-285.074l-57.083 86.5c-9.3 14.07-4.1 27.1-1.44 32.04 2.66 4.95 10.67 16.46 27.54 16.46h347.04c16.87 0 24.88-11.51 27.54-16.46 2.66-4.94 7.86-17.97-1.44-32.04z" fill="url(#SVGID_6_)"/><g><path d="m189.586 387.881c0-17.187-45.029-14.204-45.029-47.443 0-21.307 18.608-29.404 36.364-29.404 7.529 0 28.268 1.421 28.268 12.5 0 3.835-2.557 11.648-8.807 11.648-5.113 0-7.812-5.398-19.46-5.398-10.085 0-14.205 4.119-14.205 8.523 0 14.205 45.029 11.505 45.029 47.302 0 20.454-14.915 31.534-35.511 31.534-18.609 0-34.234-9.091-34.234-18.466 0-4.829 4.261-11.932 9.659-11.932 6.676 0 10.938 10.511 24.147 10.511 6.534.001 13.779-2.556 13.779-9.375z" fill="url(#SVGID_7_)"/><path d="m221.547 383.053v-37.643c0-24.432 15.199-33.523 34.802-33.523s34.944 9.091 34.944 33.523v37.643c0 24.432-15.341 33.523-34.944 33.523s-34.802-9.092-34.802-33.523zm47.586-37.644c0-9.801-4.83-14.205-12.784-14.205-7.955 0-12.642 4.404-12.642 14.205v37.643c0 9.801 4.687 14.204 12.642 14.204 7.954 0 12.784-4.403 12.784-14.204z" fill="url(#SVGID_8_)"/><path d="m334.903 311.886c16.478 0 33.097 10.369 33.097 29.404 0 30.824-43.892 40.91-43.892 53.836v1.278h37.216c3.551 0 6.676 4.404 6.676 9.517 0 5.114-3.125 9.802-6.676 9.802h-50.569c-3.977 0-9.659-2.699-9.659-6.819v-13.778c0-22.301 44.745-35.086 44.745-53.126 0-4.546-2.841-10.085-10.795-10.085-5.682 0-10.654 2.841-10.654 10.654 0 4.119-4.403 8.096-11.648 8.096-5.682 0-9.943-2.557-9.943-11.505 0-17.33 15.909-27.274 32.102-27.274z" fill="url(#SVGID_9_)"/></g><g><g><circle cx="266.083" cy="199.563" fill="url(#SVGID_10_)" r="32.917"/><path d="m233.173 200.097c.133 8.245 3.343 16.45 9.635 22.742 12.855 12.855 33.697 12.855 46.551 0 6.292-6.292 9.502-14.497 9.635-22.742z" fill="url(#SVGID_11_)"/></g><g><circle cx="213.906" cy="125.74" fill="url(#SVGID_12_)" r="24.74"/><path d="m189.171 126.141c.1 6.197 2.513 12.364 7.241 17.093 9.662 9.662 25.326 9.662 34.988 0 4.729-4.729 7.142-10.896 7.241-17.093z" fill="url(#SVGID_13_)"/></g><g><circle cx="291.494" cy="80.506" fill="url(#SVGID_14_)" r="24.74"/><path d="m266.759 80.907c.1 6.197 2.513 12.364 7.241 17.093 9.662 9.662 25.326 9.662 34.988 0 4.729-4.729 7.142-10.896 7.241-17.093z" fill="url(#SVGID_15_)"/></g></g></g></svg>